<svg width="26" height="26" viewBox="0 0 26 26" fill="none" xmlns="http://www.w3.org/2000/svg">
<g clip-path="url(#clip0_2176_386)">
<path d="M24.9999 13.0001C24.9999 19.6276 19.6273 25.0002 13 25.0002C6.37257 25.0002 1 19.6276 1 13.0001C1 6.37261 6.37257 1 13 1C19.6273 1 24.9999 6.37261 24.9999 13.0001Z" fill="#000A16" stroke="#527B0B" stroke-width="2"/>
<mask id="mask0_2176_386" style="mask-type:alpha" maskUnits="userSpaceOnUse" x="6" y="6" width="15" height="13">
<path d="M11.751 18.4798H7.00657C6.94637 18.4798 6.89643 18.4346 6.89202 18.3745C6.84576 17.7447 6.60974 14.4445 6.60974 12.6782C6.60974 10.9185 6.84402 7.87005 6.8915 7.27027C6.89623 7.21052 6.94598 7.16614 7.00592 7.16614H10.2658C10.3294 7.16614 10.3809 7.2177 10.3809 7.28127V7.92498C10.3809 8.02429 10.4976 8.07644 10.5716 8.01019C11.2205 7.42912 12.1857 6.65637 14.2247 7.16615C16.4729 7.72827 18.7211 10.2846 19.6639 12.0252C20.5313 13.6267 19.6798 17.7453 19.5381 18.3934C19.5267 18.4458 19.4809 18.4798 19.4273 18.4798H14.7442C14.6939 18.4798 14.6495 18.447 14.6338 18.3993C14.1941 17.0679 13.4483 16.2077 14.5148 14.999C16.1822 13.1093 15.1675 11.4453 14.5148 11.0102C13.8621 10.5751 12.049 10.2124 10.9611 10.8652C9.87328 11.5179 10.0909 13.908 11.2512 14.5639C12.7612 15.4173 12.0129 17.9345 11.8574 18.404C11.8423 18.4499 11.7993 18.4798 11.751 18.4798Z" fill="url(#paint0_linear_2176_386)" stroke="black" stroke-width="0.345296"/>
</mask>
<g mask="url(#mask0_2176_386)">
<path d="M11.751 18.4798H7.00657C6.94637 18.4798 6.89643 18.4346 6.89202 18.3745C6.84576 17.7447 6.60974 14.4445 6.60974 12.6782C6.60974 10.9185 6.84402 7.87005 6.8915 7.27027C6.89623 7.21052 6.94598 7.16614 7.00592 7.16614H10.2658C10.3294 7.16614 10.3809 7.2177 10.3809 7.28127V7.92498C10.3809 8.02429 10.4976 8.07644 10.5716 8.01019C11.2205 7.42912 12.1857 6.65637 14.2247 7.16615C16.4729 7.72827 18.7211 10.2846 19.6639 12.0252C20.5313 13.6267 19.6798 17.7453 19.5381 18.3934C19.5267 18.4458 19.4809 18.4798 19.4273 18.4798H14.7442C14.6939 18.4798 14.6495 18.447 14.6338 18.3993C14.1941 17.0679 13.4483 16.2077 14.5148 14.999C16.1822 13.1093 15.1675 11.4453 14.5148 11.0102C13.8621 10.5751 12.049 10.2124 10.9611 10.8652C9.87328 11.5179 10.0909 13.908 11.2512 14.5639C12.7612 15.4173 12.0129 17.9345 11.8574 18.404C11.8423 18.4499 11.7993 18.4798 11.751 18.4798Z" fill="url(#paint1_linear_2176_386)" stroke="black" stroke-width="0.345296"/>
</g>
</g>
<defs>
<linearGradient id="paint0_linear_2176_386" x1="13.4741" y1="7" x2="13.4741" y2="18.4798" gradientUnits="userSpaceOnUse">
<stop stop-color="#74A409"/>
<stop offset="1" stop-color="#50780A"/>
</linearGradient>
<linearGradient id="paint1_linear_2176_386" x1="13.4741" y1="7" x2="13.4741" y2="18.4798" gradientUnits="userSpaceOnUse">
<stop stop-color="#74A409"/>
<stop offset="1" stop-color="#50780A"/>
</linearGradient>
<clipPath id="clip0_2176_386">
<rect width="26" height="26" fill="white"/>
</clipPath>
</defs>
</svg>
