<svg xmlns="http://www.w3.org/2000/svg" width="60" height="60" viewBox="0 0 60 60">
    <g fill="none" fill-rule="evenodd" opacity=".3">
        <g fill="#FFF" fill-rule="nonzero">
            <g>
                <g>
                    <path d="M29.258 21.64c-3.946 0-7.158 3.212-7.158 7.158 0 3.947 3.212 7.158 7.158 7.158 3.947 0 7.159-3.21 7.159-7.158 0-3.946-3.212-7.158-7.159-7.158zm0 11.608c-2.453 0-4.45-1.996-4.45-4.45 0-2.453 1.997-4.45 4.45-4.45 2.454 0 4.45 1.997 4.45 4.45 0 2.454-1.996 4.45-4.45 4.45z" transform="translate(-517 -380) translate(517 380) translate(2.143 2.143)"/>
                    <path d="M55.42 16.422c.528-3.874-.077-7.169-1.75-9.603.274-.604.428-1.273.428-1.979 0-2.654-2.16-4.814-4.814-4.814-1.794 0-3.361.987-4.19 2.446-4.535-.227-10.088 1.44-15.836 4.76C19.444 1.561 10.56.88 5.95 5.49c-2.003 2.003-3.04 4.87-3.036 8.333C1.202 14.56 0 16.265 0 18.245 0 20.9 2.16 23.06 4.814 23.06l.084-.003c.74 1.884 1.677 3.808 2.794 5.741-5.672 9.814-6.353 18.7-1.742 23.309 2.034 2.034 4.9 3.038 8.31 3.038 4.32 0 9.515-1.612 14.998-4.78 5.484 3.169 10.677 4.78 14.997 4.78 3.412 0 6.278-1.004 8.313-3.038 4.61-4.61 3.928-13.496-1.746-23.31 2.496-4.319 4.083-8.583 4.599-12.375zM44.482 5.16c.165 2.506 2.255 4.495 4.803 4.495.922 0 1.784-.261 2.517-.713 1.002 1.82 1.326 4.248.936 7.115-.419 3.079-1.638 6.538-3.547 10.103-2.176-3.3-4.79-6.486-7.799-9.494-3.008-3.008-6.195-5.624-9.497-7.802 4.624-2.48 8.99-3.765 12.587-3.704zM7.491 22.245c1.288-.865 2.138-2.335 2.138-4 0-2.379-1.735-4.359-4.006-4.745.055-2.58.82-4.672 2.242-6.095 3.463-3.464 10.688-2.855 18.755 1.46-3.301 2.178-6.487 4.793-9.495 7.8-3.007 3.008-5.623 6.195-7.8 9.496-.708-1.321-1.32-2.63-1.834-3.916zm.374 27.946C4.4 46.73 5.01 39.503 9.325 31.437c2.177 3.301 4.793 6.487 7.8 9.495 3.008 3.007 6.194 5.622 9.495 7.8-8.067 4.314-15.292 4.923-18.755 1.46zM19.04 39.016c-3.226-3.226-5.978-6.66-8.19-10.218 2.211-3.557 4.964-6.99 8.19-10.217 3.227-3.227 6.661-5.98 10.218-8.191 3.557 2.212 6.991 4.964 10.218 8.19 3.228 3.228 5.98 6.662 8.19 10.218-2.21 3.556-4.962 6.99-8.19 10.218-3.227 3.227-6.66 5.98-10.218 8.191-3.557-2.212-6.991-4.964-10.218-8.19zm31.612 11.176c-3.464 3.463-10.69 2.854-18.756-1.46 3.302-2.178 6.488-4.793 9.495-7.8 3.008-3.009 5.623-6.195 7.8-9.495 4.315 8.066 4.925 15.291 1.461 18.755z" transform="translate(-517 -380) translate(517 380) translate(2.143 2.143)"/>
                </g>
            </g>
        </g>
    </g>
</svg>
