<svg xmlns="http://www.w3.org/2000/svg" width="51" height="15" viewBox="0 0 51 15">
    <path fill="#DC97DC" fill-rule="evenodd" d="M7.5 0h36C47.642 0 51 3.358 51 7.5c0 4.142-3.358 7.5-7.5 7.5h-36C3.358 15 0 11.642 0 7.5 0 3.358 3.358 0 7.5 0zm5.858 11.102c1.507 0 2.457-.796 2.457-2.032 0-.937-.75-1.645-1.701-1.689v-.04c.78-.107 1.374-.736 1.374-1.527 0-1.09-.833-1.758-2.217-1.758H10v7.046h3.358zm-.648-4.175h-.921V5.325h1.009c.6 0 .95.293.95.786 0 .508-.39.816-1.038.816zm.141 2.905H11.79V8.016h1.053c.736 0 1.155.322 1.155.898 0 .596-.41.918-1.146.918zm8.54 1.27V9.656H18.36V8.221h2.852V6.902h-2.852v-1.4h3.032V4.055h-4.82v7.046h4.82zm4.426 0v-5.6h1.94V4.055h-5.664V5.5h1.94v5.6h1.784zm3.193 0l.448-1.548h2.301l.444 1.548h1.9L31.74 4.056H29.55l-2.364 7.046h1.823zm2.398-2.837h-1.604l.785-2.715h.04l.78 2.715zM42 11.102V9.725h-3.061V9.69l1.374-1.255c1.141-1.035 1.6-1.548 1.6-2.456 0-1.23-1.049-2.1-2.662-2.1-1.618 0-2.715.952-2.715 2.378h1.638c0-.62.463-1.03 1.077-1.03.546 0 .93.361.93.869 0 .434-.18.752-1.047 1.533l-2.496 2.251v1.22H42z" opacity=".5"/>
</svg>
