<svg xmlns="http://www.w3.org/2000/svg" xmlns:xlink="http://www.w3.org/1999/xlink" width="187" height="75" viewBox="0 0 187 75">
    <defs>
        <filter id="kdfsygcgda" width="110.2%" height="128.1%" x="-5.1%" y="-14.1%" filterUnits="objectBoundingBox">
            <feOffset in="SourceAlpha" result="shadowOffsetOuter1"/>
            <feGaussianBlur in="shadowOffsetOuter1" result="shadowBlurOuter1" stdDeviation="3"/>
            <feColorMatrix in="shadowBlurOuter1" values="0 0 0 0 0 0 0 0 0 0.964705882 0 0 0 0 0.823529412 0 0 0 0.5 0"/>
        </filter>
        <path id="uxbitbsepb" d="M101.766 5.87c.116-.427.673-.495.9-.148l.042.08 5.763 13.397 9.934-8.017c.27-.218.664-.1.78.21l.024.08 11.12 55.168 9.442-40.706c.102-.441.675-.519.904-.164l.044.083 6.896 16.405 7.206-23.685c.115-.379.594-.47.846-.194l.054.07 9.325 14.603 15.65-12.041c.194-.15.463-.135.64.025l.06.066c.15.194.134.464-.025.64l-.066.061-16.08 12.375c-.207.159-.496.13-.668-.052l-.06-.075-9.035-14.15-7.293 23.973c-.127.418-.677.473-.897.128l-.042-.08-6.835-16.258-9.613 41.449c-.113.491-.78.512-.95.079l-.027-.093-11.414-56.621-9.805 7.913c-.234.19-.573.128-.732-.114l-.041-.077-5.457-12.685-11.553 42.693c-.122.45-.723.492-.924.107l-.036-.089-6.701-21.471-9.316-11.982-5.85 16.45c-.08.227-.308.36-.538.329l-.086-.02-10.686-3.415-8.13 9.799-8.63 13.634c-.19.302-.615.306-.82.037l-.049-.08-7.67-15.306-6.44 4.674c-.094.067-.206.1-.319.095l-.084-.012-7.995-1.786-10.19 9.423c-.18.167-.45.176-.64.033l-.066-.06c-.167-.18-.175-.45-.033-.64l.06-.067 10.383-9.6c.097-.09.223-.136.352-.133l.097.012 8.029 1.793 6.736-4.887c.224-.163.533-.11.693.104l.047.077 7.537 15.041 8.195-12.939 8.383-10.11c.112-.135.284-.2.453-.177l.084.02 10.546 3.37 5.995-16.854c.123-.343.55-.437.806-.204l.06.065 9.932 12.775.082.158 6.215 19.917 11.481-42.42z"/>
    </defs>
    <g fill="none" fill-rule="evenodd">
        <g fill-rule="nonzero">
            <g transform="translate(-70 -432) translate(70 432)">
                <use fill="#000FF" filter="url(#kdfsygcgda)" xlink:href="#uxbitbsepb"/>
                <use fill="#DC97DC" xlink:href="#uxbitbsepb"/>
            </g>
        </g>
    </g>
</svg>
