<svg xmlns="http://www.w3.org/2000/svg" xmlns:xlink="http://www.w3.org/1999/xlink" width="420" height="75" viewBox="0 0 420 75">
    <defs>
        <filter id="96nf87qh2a" width="104.4%" height="128.1%" x="-2.2%" y="-14.1%" filterUnits="objectBoundingBox">
            <feOffset in="SourceAlpha" result="shadowOffsetOuter1"/>
            <feGaussianBlur in="shadowOffsetOuter1" result="shadowBlurOuter1" stdDeviation="3"/>
            <feColorMatrix in="shadowBlurOuter1" values="0 0 0 0 0 0 0 0 0 0.964705882 0 0 0 0 0.823529412 0 0 0 0.5 0"/>
        </filter>
        <path id="suq2xk2t5b" d="M230.12 5.738c.15-.244.469-.307.699-.158l.073.058 13.993 13.358 23.779-8.318c.215-.076.45.005.576.187l.042.073 26.601 56.947 22.824-42.496c.146-.272.495-.343.734-.17l.068.06 16.702 17.44 17.595-25.127c.141-.201.403-.267.619-.168l.078.045 22.141 15.526 37.196-12.54c.233-.078.483.024.597.232l.037.082c.078.233-.024.483-.232.597l-.082.037-37.435 12.62c-.12.041-.251.034-.365-.017l-.082-.047-21.94-15.384-17.656 25.217c-.163.232-.48.279-.7.12l-.07-.061-16.651-17.384-22.968 42.77c-.18.334-.64.347-.847.054l-.046-.08-26.834-57.441-23.639 8.272c-.148.052-.31.03-.438-.053l-.072-.057-13.769-13.144-27.076 43.94c-.17.276-.545.315-.769.102l-.062-.07-15.508-21.447-23.581-13.626-13.96 17.112c-.091.113-.227.179-.37.184l-.085-.005-25.403-3.528-19.938 10.226-19.584 13.713c-.162.114-.373.12-.54.023l-.078-.058L65.79 37.526l-15.985 5.273-.197.023-19.971-1.627-23.444 9.733c-.227.094-.483.009-.612-.19l-.042-.08c-.094-.227-.009-.483.19-.612l.08-.042 23.558-9.779c.05-.02.1-.033.153-.037h.08l19.986 1.629 16.163-5.33c.141-.047.293-.028.417.047l.071.053 17.825 15.757 19.32-13.523 20.137-10.332c.068-.035.144-.054.22-.055l.077.004 25.28 3.51 14.051-17.223c.136-.166.36-.225.556-.155l.082.038 24.042 13.893.155.14 15.131 20.925 27.009-43.828z"/>
    </defs>
    <g fill="none" fill-rule="evenodd">
        <g fill-rule="nonzero">
            <g transform="translate(-81 -255) translate(81 255)">
                <use fill="#000" filter="url(#96nf87qh2a)" xlink:href="#suq2xk2t5b"/>
                <use fill="#00F6D2" xlink:href="#suq2xk2t5b"/>
            </g>
        </g>
    </g>
</svg>
