<svg xmlns="http://www.w3.org/2000/svg" xmlns:xlink="http://www.w3.org/1999/xlink" width="420" height="74" viewBox="0 0 420 74">
    <defs>
        <filter id="mzltmwmefa" width="104.4%" height="128.6%" x="-2.2%" y="-14.3%" filterUnits="objectBoundingBox">
            <feOffset in="SourceAlpha" result="shadowOffsetOuter1"/>
            <feGaussianBlur in="shadowOffsetOuter1" result="shadowBlurOuter1" stdDeviation="3"/>
            <feColorMatrix in="shadowBlurOuter1" values="0 0 0 0 1 0 0 0 0 1 0 0 0 0 1 0 0 0 0.5 0"/>
        </filter>
        <path id="frfmz0d24b" d="M236.976 5.678c.174-.206.474-.234.681-.08l.073.067 15.871 17.584 29.637 3.743c.08.01.157.04.223.086l.062.051 31.788 30.778 29.01-24.526c.184-.156.448-.156.631-.012l.065.06 9.541 10.68 18.117-1.894c.114-.012.228.016.323.077l.068.052 15.806 14.547 24.774-24.795c.174-.173.443-.193.638-.058l.07.058c.173.174.192.443.058.638l-.058.07-25.114 25.134c-.165.166-.42.192-.613.074l-.079-.06-15.994-14.719-18.146 1.898c-.128.013-.255-.023-.355-.1l-.07-.064-9.389-10.509-28.983 24.505c-.171.145-.415.156-.596.037l-.074-.06-31.994-30.977-29.656-3.745c-.089-.011-.173-.046-.243-.1l-.065-.06L237.37 6.76l-30.464 36.273c-.205.244-.576.232-.768-.003l-.053-.078-14.34-26.05-13.994 13.652c-.164.16-.41.185-.601.074l-.078-.056-13.174-11.553-28.653 35.278c-.13.158-.34.22-.53.164l-.08-.032-18.589-9.196-19.978 18.567c-.186.174-.468.176-.658.02l-.066-.066-17.233-20.654-17.509-10.007-22.47 27.605c-.133.162-.349.223-.542.16l-.081-.034-19.927-10.608L6.425 68.263c-.129.209-.387.29-.607.203l-.081-.04c-.209-.13-.29-.388-.203-.608l.04-.081L16.98 49.293c.123-.2.365-.283.58-.212l.08.034 19.975 10.633 22.481-27.614c.135-.166.358-.225.554-.156l.082.038 17.955 10.262.136.114 16.951 20.317 19.846-18.442c.13-.12.313-.162.48-.113l.082.031 18.539 9.172 28.73-35.37c.16-.196.435-.24.643-.115l.075.054 13.215 11.589 14.135-13.787c.213-.208.55-.181.733.037l.054.08 14.304 25.987 30.366-36.154z"/>
    </defs>
    <g fill="none" fill-rule="evenodd">
        <g fill-rule="nonzero">
            <g transform="translate(-82 -132) translate(82 132)">
                <use fill="#000" filter="url(#mzltmwmefa)" xlink:href="#frfmz0d24b"/>
                <use fill="#FFF" xlink:href="#frfmz0d24b"/>
            </g>
        </g>
    </g>
</svg>
