<svg xmlns="http://www.w3.org/2000/svg" xmlns:xlink="http://www.w3.org/1999/xlink" width="187" height="74" viewBox="0 0 187 74">
    <defs>
        <filter id="kh83a6dvua" width="110.2%" height="128.6%" x="-5.1%" y="-14.3%" filterUnits="objectBoundingBox">
            <feOffset in="SourceAlpha" result="shadowOffsetOuter1"/>
            <feGaussianBlur in="shadowOffsetOuter1" result="shadowBlurOuter1" stdDeviation="3"/>
            <feColorMatrix in="shadowBlurOuter1" values="0 0 0 0 1 0 0 0 0 1 0 0 0 0 1 0 0 0 0.5 0"/>
        </filter>
        <path id="yv8u6xom3b" d="M104.762 5.834c.144-.41.69-.444.898-.095l.042.087 6.53 17.557 12.714 3.946c.11.035.205.105.268.2l.041.075 13.289 29.947 12.062-23.404c.184-.358.681-.355.873-.028l.04.081 3.983 10.582 7.222-2.308c.207-.066.429.01.554.18l.047.077 6.775 13.864 10.443-23.561c.1-.224.344-.34.574-.284l.086.03c.224.099.339.343.283.574l-.029.085-10.877 24.543c-.159.359-.638.395-.857.098l-.05-.08-7.057-14.441-7.263 2.321c-.225.072-.466-.024-.582-.221l-.038-.079-3.755-9.975-12.022 23.333c-.178.344-.65.358-.856.056l-.046-.082-13.622-30.695-12.73-3.951c-.119-.037-.218-.116-.28-.22l-.04-.083-6.135-16.492-12.842 36.581c-.155.443-.761.437-.93.035l-.03-.092L85.62 17.81l-5.798 13.02c-.162.364-.651.393-.865.086l-.047-.083-5.02-11.108-12.192 34.778c-.116.332-.522.436-.783.226l-.062-.06-7.544-8.482-8.463 17.308c-.18.368-.688.368-.88.034l-.039-.083-7.389-20.293-6.989-9.449-9.3 27.027c-.118.34-.535.441-.795.22l-.062-.062-8.249-9.843-4.66 17.087c-.064.236-.289.387-.525.366l-.089-.016c-.236-.064-.387-.289-.366-.525l.016-.089 4.91-18.008c.099-.36.532-.48.802-.254l.064.064 8.295 9.897 9.323-27.087c.121-.352.56-.445.815-.203l.06.068 7.598 10.272.068.126 7.01 19.255 8.274-16.92c.143-.293.517-.367.76-.173l.063.06 7.474 8.404 12.325-35.153c.139-.396.66-.446.882-.122l.045.081 5.074 11.229 5.962-13.384c.183-.411.756-.382.917.006l.027.088 5.775 25.955 12.72-36.235z"/>
    </defs>
    <g fill="none" fill-rule="evenodd">
        <g fill-rule="nonzero">
            <g transform="translate(-311 -432) translate(311 432)">
                <use fill="#000" filter="url(#kh83a6dvua)" xlink:href="#yv8u6xom3b"/>
                <use fill="#FFF" xlink:href="#yv8u6xom3b"/>
            </g>
        </g>
    </g>
</svg>
