<svg xmlns="http://www.w3.org/2000/svg" width="28" height="28" viewBox="0 0 28 28">
    <g fill="none" fill-rule="evenodd">
        <g fill-rule="nonzero" stroke="#00F6D2" stroke-width="1.8">
            <g>
                <g>
                    <path d="M13.784 18.002c.746 0 1.421.302 1.91.79.488.49.79 1.165.79 1.91h0v4.174H-.9v-4.174c0-.745.302-1.42.791-1.91.489-.488 1.164-.79 1.91-.79h0zM10.86-.899c.46 0 .918.176 1.262.525h0l4.56 4.556c.346.35.518.805.518 1.26 0 .455-.172.91-.522 1.264-.332.332-.767.507-1.207.52h0l-1.483.99L24.291 18.52c.391.391.587.904.587 1.416 0 .512-.196 1.024-.587 1.415-.391.391-.904.587-1.418.587-.513 0-1.026-.196-1.417-.587h0l-10.3-10.3-1.029 1.027c.028.877-.143 1.32-.484 1.665-.348.347-.805.522-1.263.522-.456 0-.912-.173-1.265-.523h0L2.566 9.19c-.352-.348-.528-.807-.528-1.265 0-.458.176-.917.522-1.259.348-.352.807-.528 1.265-.528h0l5.288-4.842c-.03-.886.145-1.332.482-1.665.349-.353.807-.529 1.266-.529z" transform="translate(-21 -212) translate(21 212) translate(2 2)"/>
                </g>
            </g>
        </g>
    </g>
</svg>
