<svg width="16" height="11" viewBox="0 0 16 11" fill="none" xmlns="http://www.w3.org/2000/svg">
<path d="M14.6667 3.50008V2.83341C14.6667 2.46675 14.3667 2.16675 14 2.16675C13.6333 2.16675 13.3333 2.46675 13.3333 2.83341V3.50008H12.6667C12.3 3.50008 12 3.80008 12 4.16675C12 4.53342 12.3 4.83342 12.6667 4.83342H13.3333V5.50008C13.3333 5.86675 13.6333 6.16675 14 6.16675C14.3667 6.16675 14.6667 5.86675 14.6667 5.50008V4.83342H15.3333C15.7 4.83342 16 4.53342 16 4.16675C16 3.80008 15.7 3.50008 15.3333 3.50008H14.6667Z" fill="white"/>
<path d="M5.33332 5.50008C6.80666 5.50008 7.99999 4.30675 7.99999 2.83341C7.99999 1.36008 6.80666 0.166748 5.33332 0.166748C3.85999 0.166748 2.66666 1.36008 2.66666 2.83341C2.66666 4.30675 3.85999 5.50008 5.33332 5.50008Z" fill="white"/>
<path d="M5.33333 6.16675C3.55333 6.16675 0 7.06008 0 8.83341V10.8334H10.6667V8.83341C10.6667 7.06008 7.11333 6.16675 5.33333 6.16675Z" fill="white"/>
<path d="M8.34 0.200195C8.95333 0.906862 9.33333 1.82686 9.33333 2.83353C9.33333 3.8402 8.95333 4.7602 8.34 5.46686C9.64666 5.3002 10.6667 4.19353 10.6667 2.83353C10.6667 1.47353 9.64666 0.366862 8.34 0.200195Z" fill="white"/>
<path d="M11.02 6.71997C11.6133 7.2733 12 7.96664 12 8.8333V10.8333H13.3333V8.8333C13.3333 7.86664 12.2733 7.15997 11.02 6.71997Z" fill="white"/>
</svg>
