<svg xmlns="http://www.w3.org/2000/svg" width="40" height="40" viewBox="0 0 40 40">
    <g fill="none" fill-rule="evenodd" opacity=".6">
        <g>
            <g>
                <g>
                    <g transform="translate(-121 -1410) translate(90 1108) translate(0 262) translate(31 40)">
                        <g fill="#FF746B">
                            <path d="M9.583 3.299s4.386-4.514 4.619-5.3c.233-.786-.796-2.142-1.988-1.987C11.022-3.832 4.94 3.3 4.94 4.886c0 1.587 6.632 8.86 7.465 9.223.834.363 1.966-.694 1.796-1.817-.17-1.122-4.619-5.819-4.619-5.819V3.3z" transform="translate(11 8) matrix(0 1 1 0 4.497 -4.497)"/>
                            <path d="M15.176 7.297c0-.392-.309-.71-.701-.71H8v2.5h6.475c.387 0 .7-.307.7-.71v-1.08z" transform="translate(11 8) matrix(0 1 1 0 3.751 -3.751)"/>
                            <path d="M12.676 8.087H2.5v2.5h9.476c.387 0 .7-.307.7-.71v-1.79z" transform="translate(11 8) matrix(0 1 1 0 -1.749 1.749)"/>
                            <path d="M16.605 17.868c0-.392-.308-.71-.702-.71H8.998l-2.427 2.5H15.9c.39 0 .706-.307.706-.71v-1.08z" transform="translate(11 8) matrix(0 1 1 0 -6.82 6.82)"/>
                            <path d="M10.676 19.797c0-.392-.313-.71-.708-.71H7.003l-2.503 2.5h5.467c.392 0 .709-.307.709-.71v-1.08z" transform="translate(11 8) matrix(0 1 1 0 -12.749 12.749)"/>
                        </g>
                        <path fill="#FF746B" d="M18.97 15.455H20c.552 0 1 .447 1 1V28.09c0 .552-.448 1-1 1h-1.03c-.553 0-1-.448-1-1V16.455c0-.553.447-1 1-1z" transform="rotate(45 19.485 22.273)"/>
                        <circle cx="20" cy="20" r="18.5" stroke="#FF746B" stroke-width="3"/>
                    </g>
                </g>
            </g>
        </g>
    </g>
</svg>
