<svg width="20" height="20" xmlns="http://www.w3.org/2000/svg">
    <g fill="#FFF" fill-rule="evenodd">
        <path d="M8.767 3.666c2.956 0 5.36 2.454 5.36 5.47v4.146l2.636-2.682 1.19 1.118-4.632 4.676-4.606-4.676L9.85 10.6l2.665 2.682V9.137c0-1.663-1.045-3.08-2.5-3.606l.2.08A3.826 3.826 0 0 0 7.92 8.92l-.006.216V12.6H6.3V9.137c0-1.406.522-2.689 1.378-3.659l.184-.051c-1.63.414-2.84 1.92-2.84 3.71V12.6H3.406V9.137c0-3.017 2.405-5.47 5.36-5.47z" fill-rule="nonzero"/>
        <path d="M3.4 14H5v3.636H3.4zM6.3 14h1.6v3.636H6.3z"/>
    </g>
</svg>
