<svg xmlns="http://www.w3.org/2000/svg" width="22" height="22" viewBox="0 0 22 22">
    <defs>
        <radialGradient id="hj73eza9ca" cx="50%" cy="50%" r="41.403%" fx="50%" fy="50%">
            <stop offset="0%" stop-color="#F5AC37"/>
            <stop offset="100%" stop-color="#0B2B4D"/>
        </radialGradient>
    </defs>
    <g fill="none" fill-rule="evenodd">
        <g>
            <g>
                <g transform="translate(-572 -324) translate(552 301) translate(20 23)">
                    <circle cx="11" cy="11" r="10" fill="url(#hj73eza9ca)" stroke="#F5AC37" stroke-width="2"/>
                    <path fill="#FEFEFD" fill-rule="nonzero" d="M11.607 11.314h2.616c.056 0 .082 0 .086-.073.022-.266.022-.533 0-.8 0-.052-.025-.073-.082-.073H9.022c-.065 0-.082.021-.082.082v.766c0 .098 0 .098.103.098h2.564zm2.41-1.84c.008-.02.008-.042 0-.06-.044-.096-.095-.187-.155-.272-.09-.146-.197-.28-.319-.4-.057-.073-.123-.138-.198-.194-.372-.317-.815-.54-1.29-.654-.24-.054-.486-.08-.732-.077h-2.31c-.065 0-.073.026-.073.082v1.527c0 .064 0 .082.082.082h4.964s.043-.01.052-.035h-.021zm0 2.735c-.073-.008-.147-.008-.22 0h-4.77c-.065 0-.087 0-.087.086v1.494c0 .068 0 .086.086.086h2.203c.105.008.21 0 .314-.022.32-.023.634-.092.934-.206.109-.038.214-.087.313-.147h.03c.517-.268.936-.69 1.2-1.208 0 0 .03-.065-.003-.082zm-5.941 2.44V12.27c0-.056 0-.065-.07-.065h-.933c-.052 0-.073 0-.073-.068v-.818h.998c.056 0 .078 0 .078-.073v-.809c0-.052 0-.064-.07-.064h-.933c-.052 0-.073 0-.073-.069v-.757c0-.047 0-.06.069-.06h.925c.064 0 .082 0 .082-.082V7.086c0-.069 0-.086.086-.086h3.226c.234.01.467.035.697.077.474.088.93.258 1.347.5.276.162.53.358.757.585.17.177.324.368.46.572.135.206.248.427.336.658.011.06.069.1.129.09h.77c.099 0 .099 0 .103.095v.706c0 .069-.026.086-.095.086h-.594c-.06 0-.077 0-.073.077.024.263.024.526 0 .788 0 .073 0 .081.082.081h.68c.03.04 0 .078 0 .117.004.05.004.1 0 .15v.52c0 .074-.022.096-.086.096h-.814c-.056-.011-.111.025-.124.081-.194.504-.504.955-.904 1.317-.146.132-.3.255-.46.37-.173.099-.34.202-.517.284-.325.146-.665.254-1.015.322-.332.06-.669.087-1.007.082H8.074v-.004l.002-.001z"/>
                </g>
            </g>
        </g>
    </g>
</svg>
