<svg width="60" height="60" viewBox="0 0 60 60" fill="none" xmlns="http://www.w3.org/2000/svg">
<path d="M18.7748 4.64215H10.8874C7.62039 4.64215 4.97192 7.3314 4.97192 10.6488V18.6576C4.97192 21.9749 7.62039 24.6642 10.8874 24.6642H18.7748C22.0419 24.6642 24.6903 21.9749 24.6903 18.6576V10.6488C24.6903 7.3314 22.0419 4.64215 18.7748 4.64215Z" stroke="#7D929E" stroke-width="4"/>
<path d="M18.7748 34.7056H10.8874C7.62039 34.7056 4.97192 37.3949 4.97192 40.7122V48.7211C4.97192 52.0384 7.62039 54.7277 10.8874 54.7277H18.7748C22.0419 54.7277 24.6903 52.0384 24.6903 48.7211V40.7122C24.6903 37.3949 22.0419 34.7056 18.7748 34.7056Z" stroke="#7D929E" stroke-width="4"/>
<path d="M50.3241 4.64215H42.4368C39.1697 4.64215 36.5212 7.3314 36.5212 10.6488V18.6576C36.5212 21.9749 39.1697 24.6642 42.4368 24.6642H50.3241C53.5912 24.6642 56.2396 21.9749 56.2396 18.6576V10.6488C56.2396 7.3314 53.5912 4.64215 50.3241 4.64215Z" stroke="#7D929E" stroke-width="4"/>
<path d="M45.3946 52.9768L51.6106 56.9107C52.749 57.6316 54.142 56.5659 53.8424 55.218L52.1948 47.8205L57.6919 42.8366C58.6954 41.9276 58.1562 40.2036 56.8381 40.0939L49.6035 39.4513L46.7726 32.4613C46.2633 31.1918 44.5258 31.1918 44.0166 32.4613L41.1857 39.4357L33.9511 40.0782C32.633 40.188 32.0938 41.9119 33.0973 42.821L38.5944 47.8049L36.9468 55.2024C36.6472 56.5502 38.0402 57.616 39.1786 56.895L45.3946 52.9768Z" fill="#7D929E"/>
</svg>
