<svg xmlns="http://www.w3.org/2000/svg" width="22" height="22" viewBox="0 0 22 22">
    <defs>
        <radialGradient id="ldyzo5h2ha" cx="50%" cy="50%" r="50%" fx="50%" fy="50%">
            <stop offset="0%" stop-color="#A07A00"/>
            <stop offset="100%" stop-color="#0B2B4D"/>
        </radialGradient>
    </defs>
    <g fill="none" fill-rule="evenodd">
        <circle cx="9" cy="9" r="10" fill="url(#ldyzo5h2ha)" stroke="#EAB300" stroke-width="2" transform="translate(2 2)"/>
        <path fill="#FFF" fill-rule="nonzero" d="M14.522 8.867c-.119-1.23-1.18-1.643-2.522-1.76V5.4h-1.038v1.661c-.273 0-.552.005-.829.011V5.4H9.095v1.705c-.226.005-.447.01-.662.01v-.006H7v1.109s.767-.015.754 0c.42 0 .557.243.597.454v1.944c.03 0 .067.002.11.007h-.11v2.724c-.02.132-.097.343-.39.344.012.012-.756 0-.756 0L7 14.931h1.352c.251 0 .499.005.741.006l.001 1.726h1.038v-1.707c.284.005.56.008.83.008l-.002 1.7H12V14.94c1.745-.1 2.969-.54 3.12-2.18.123-1.32-.498-1.91-1.49-2.149.604-.305.981-.845.893-1.745zm-1.454 3.69c0 1.29-2.208 1.143-2.912 1.143v-2.287c.704.001 2.912-.201 2.912 1.144zm-.483-3.227c0 1.174-1.843 1.036-2.43 1.037V8.294c.588 0 2.43-.187 2.43 1.036z"/>
    </g>
</svg>
