<svg width="26" height="26" viewBox="0 0 26 26" fill="none" xmlns="http://www.w3.org/2000/svg">
<path fill-rule="evenodd" clip-rule="evenodd" d="M24.3686 2.9002V0.764707C24.3686 0.342371 24.0263 0 23.6039 0C23.1816 0 22.8392 0.34237 22.8392 0.764706V2.9002H22.2078C21.6556 2.9002 21.2078 3.34791 21.2078 3.9002V4.58735C20.9028 8.42878 17.4509 11.8552 13 11.8552C8.73192 11.8552 5.1791 8.58712 4.79216 4.42661V3.90019C4.79216 3.34791 4.34437 2.9002 3.79208 2.9002H3.16078V0.764707C3.16078 0.342371 2.81841 0 2.39608 0C1.97374 0 1.63137 0.34237 1.63137 0.764706V2.9002H1.00015C0.447869 2.9002 0 3.34791 0 3.9002V24C0 25.1046 0.895431 26 2 26H2.79216C3.89673 26 4.79216 25.1046 4.79216 24V21.1155H21.2078V24C21.2078 25.1046 22.1033 26 23.2078 26H24C25.1046 26 26 25.1046 26 24V3.9002C26 3.34791 25.5523 2.9002 25 2.9002H24.3686ZM7.74902 16.3327H4.79216V8.88681C5.55227 10.0723 6.56271 11.0833 7.74902 11.844V16.3327ZM9.27843 16.3327H12.2353V13.3516C11.1958 13.2707 10.2017 13.0259 9.27843 12.6433V16.3327ZM16.7216 16.3327H13.7647V13.3516C14.8042 13.2707 15.7983 13.0259 16.7216 12.6433V16.3327ZM18.251 16.3327H21.2078V8.88681C20.4477 10.0723 19.4373 11.0833 18.251 11.844V16.3327Z" fill="#80929D"/>
</svg>
