<svg xmlns="http://www.w3.org/2000/svg" width="60" height="60" viewBox="0 0 60 60">
    <g fill="none" fill-rule="evenodd" opacity=".3">
        <g fill="#FFF" stroke="#FFF" stroke-width="2">
            <g>
                <path d="M23.726 2.27c-1.677 0-3.041 1.433-3.041 3.192 0 .139.022.275.04.407.073.525-.225 1.074-.711 1.225-5.573 1.716-9.466 7.17-9.466 13.263 0 7.08-4.131 14.03-7.596 18.61-.472.628-.618 1.458-.39 2.213.222.732.75 1.277 1.45 1.492 3.177.983 9.176 2.155 19.714 2.155 10.54 0 16.536-1.172 19.711-2.155.702-.217 1.229-.76 1.452-1.494.229-.753.083-1.58-.39-2.21-3.464-4.582-7.596-11.53-7.596-18.61 0-6.093-3.892-11.548-9.465-13.264-.485-.148-.791-.648-.718-1.174.024-.175.047-.313.047-.458-.002-1.76-1.365-3.191-3.041-3.191zm0 44.685c-8.533 0-15.548-.774-20.287-2.243-1.334-.41-2.385-1.491-2.808-2.887-.434-1.432-.16-2.992.732-4.179C4.039 34.112 8.52 27.164 8.52 20.357c0-6.74 4.13-12.805 10.139-15.037.072-2.868 2.317-5.177 5.066-5.177 2.749 0 4.99 2.309 5.066 5.177C34.8 7.552 38.93 13.616 38.93 20.357c0 6.81 4.485 13.755 7.157 17.289h.002c.89 1.185 1.166 2.747.732 4.18-.424 1.395-1.474 2.476-2.812 2.886-3.303 1.024-9.502 2.243-20.283 2.243h0z" transform="translate(-517 -197) translate(523 199)"/>
                <path d="M18.852 48.678c.48 2.796 2.563 4.82 5.052 4.82 2.524 0 4.63-2.08 5.073-4.82-1.472.069-3.145.102-5.073.102-1.92 0-3.585-.033-5.052-.102zm5.052 7.18c-3.983 0-7.223-3.705-7.223-8.258 0-.325.117-.717.322-.936.206-.224.483-.45.768-.404 1.706.109 3.714.16 6.133.16s4.429-.051 6.134-.16c.303-.047.559.097.767.321.207.224.322.533.322.856v.163c0 4.553-3.24 8.257-7.223 8.257h0z" transform="translate(-517 -197) translate(523 199)"/>
            </g>
        </g>
    </g>
</svg>
