<svg xmlns="http://www.w3.org/2000/svg" width="24" height="24" viewBox="0 0 24 24">
    <g fill="none" fill-rule="evenodd">
        <circle cx="12" cy="12" r="12" fill="#3F5973"/>
        <g fill="#FFF" fill-rule="nonzero">
            <path d="M.605 3.327h11.848L11.37 4.412c-.237.236-.237.619 0 .855.118.118.272.177.427.177.155 0 .31-.059.428-.177l2.117-2.117c.237-.236.237-.62 0-.855L12.224.177c-.236-.236-.62-.236-.855 0-.237.236-.237.62 0 .856l1.084 1.084H.605c-.334 0-.605.271-.605.605 0 .334.271.605.605.605zM13.914 7.976H2.065L3.15 6.892c.236-.236.236-.62 0-.856s-.62-.236-.855 0L.177 8.154c-.236.236-.236.619 0 .855l2.118 2.117c.117.119.272.178.427.178.155 0 .31-.06.428-.178.236-.236.236-.619 0-.855L2.065 9.186h11.849c.334 0 .605-.27.605-.605 0-.334-.271-.605-.605-.605z" transform="translate(5 6)"/>
        </g>
    </g>
</svg>
