<svg xmlns="http://www.w3.org/2000/svg" width="16" height="16" viewBox="0 0 16 16">
    <g fill="none" fill-rule="evenodd" stroke-linecap="round" stroke-linejoin="round">
        <g fill="#032E49" stroke="#032E49" stroke-width=".5">
            <g>
                <g>
                    <path d="M16 9.91c0-.386-.318-.699-.699-.699H8.128s2.01-1.986 2.117-2.331c.106-.346-.365-.943-.912-.875C8.787 6.074 6 9.211 6 9.91c0 .698 3.04 3.899 3.422 4.058.382.16.9-.306.823-.8-.078-.493-2.117-2.56-2.117-2.56H15.3c.386 0 .699-.31.699-.698h0z" transform="translate(-1129.000000, -358.000000) translate(1099.000000, 347.000000) translate(38.000000, 19.000000) scale(1, -1) translate(-38.000000, -19.000000) translate(30.000000, 11.000000) translate(11.000000, 10.000000) scale(1, -1) rotate(90.000000) translate(-11.000000, -10.000000)"/>
                    <path d="M10 5.91c0-.386-.318-.699-.699-.699H2.128s2.01-1.986 2.117-2.331c.106-.346-.365-.943-.912-.875C2.787 2.074 0 5.211 0 5.91c0 .698 3.04 3.899 3.422 4.058.382.16.9-.306.823-.8-.078-.493-2.117-2.56-2.117-2.56H9.3c.386 0 .699-.31.699-.698h0z" transform="translate(-1129.000000, -358.000000) translate(1099.000000, 347.000000) translate(38.000000, 19.000000) scale(1, -1) translate(-38.000000, -19.000000) translate(30.000000, 11.000000) translate(5.000000, 6.000000) rotate(90.000000) translate(-5.000000, -6.000000)"/>
                </g>
            </g>
        </g>
    </g>
</svg>
