<svg width="28" height="28" viewBox="0 0 28 28" fill="none" xmlns="http://www.w3.org/2000/svg">
<path d="M8 1.37463H4C2.34315 1.37463 1 2.73846 1 4.42083V8.48243C1 10.1648 2.34315 11.5286 4 11.5286H8C9.65685 11.5286 11 10.1648 11 8.48243V4.42083C11 2.73846 9.65685 1.37463 8 1.37463Z" stroke="#8DA1AD" stroke-width="2"/>
<path d="M8 16.621H4C2.34315 16.621 1 17.9849 1 19.6672V23.7288C1 25.4112 2.34315 26.775 4 26.775H8C9.65685 26.775 11 25.4112 11 23.7288V19.6672C11 17.9849 9.65685 16.621 8 16.621Z" stroke="#8DA1AD" stroke-width="2"/>
<path d="M24 1.37463H20C18.3431 1.37463 17 2.73846 17 4.42083V8.48243C17 10.1648 18.3431 11.5286 20 11.5286H24C25.6569 11.5286 27 10.1648 27 8.48243V4.42083C27 2.73846 25.6569 1.37463 24 1.37463Z" stroke="#8DA1AD" stroke-width="2"/>
<path d="M21.5 25.8871L24.6524 27.8821C25.2297 28.2477 25.9362 27.7073 25.7842 27.0237L24.9487 23.2721L27.7364 20.7446C28.2454 20.2836 27.9719 19.4093 27.3035 19.3537L23.6345 19.0278L22.1988 15.4829C21.9406 14.839 21.0594 14.839 20.8012 15.4829L19.3655 19.0198L15.6965 19.3457C15.0281 19.4013 14.7546 20.2756 15.2636 20.7366L18.0513 23.2642L17.2158 27.0158C17.0638 27.6993 17.7703 28.2398 18.3476 27.8742L21.5 25.8871Z" fill="#8DA1AD"/>
</svg>
