<svg width="40" height="40" xmlns="http://www.w3.org/2000/svg">
    <g transform="matrix(1 0 0 -1 0 40)" fill="none" fill-rule="evenodd" opacity=".66">
        <circle stroke="#0BCCF7" stroke-width="3" cx="20" cy="20" r="18.5"/>
        <g fill="#0BCCF7">
            <path d="M18.208 12.733s-4.514 4.386-5.3 4.619c-.786.233-2.142-.796-1.987-1.988.156-1.192 7.287-7.273 8.874-7.273 1.588 0 8.86 6.632 9.223 7.465.363.834-.694 1.966-1.817 1.796-1.122-.17-5.818-4.619-5.818-4.619h-3.175z"/>
            <path d="M19.003 30a.7.7 0 0 1-.704-.695v-16.48s-4.514 4.385-5.3 4.618c-.786.233-2.142-.797-1.987-1.988.156-1.192 7.287-7.273 8.874-7.273 1.587 0 8.86 6.632 9.223 7.465.363.834-.694 1.966-1.817 1.796-1.122-.17-5.819-4.619-5.819-4.619v16.481a.7.7 0 0 1-.704.695h-1.766z"/>
            <path d="M29 29.704c0 .39-.312.705-.706.705H11.706a.705.705 0 0 1-.706-.705v-1.766c0-.389.312-.704.706-.704h16.588c.39 0 .706.316.706.704v1.766z"/>
        </g>
    </g>
</svg>
