<svg width="16" height="16" viewBox="0 0 16 16" fill="none" xmlns="http://www.w3.org/2000/svg">
<path d="M9.88001 2.84131C9.7476 3.07843 9.62961 3.32332 9.52667 3.57464C8.51518 3.41468 7.48483 3.41468 6.47334 3.57464C6.3704 3.32332 6.25241 3.07843 6.12001 2.84131C5.1672 3.00411 4.24094 3.29567 3.36667 3.70798C1.8033 5.96417 1.0943 8.70328 1.36667 11.4346C2.3855 12.2005 3.52898 12.7847 4.74667 13.1613C5.02395 12.795 5.27141 12.4071 5.48667 12.0013C5.08939 11.8548 4.70754 11.6695 4.34667 11.448C4.44565 11.3821 4.53927 11.3086 4.62667 11.228C5.67898 11.7349 6.83198 11.9981 8.00001 11.9981C9.16803 11.9981 10.321 11.7349 11.3733 11.228C11.4667 11.308 11.56 11.3813 11.6533 11.448C11.2905 11.6677 10.909 11.8551 10.5133 12.008C10.7197 12.423 10.9605 12.82 11.2333 13.1946C12.4495 12.8193 13.591 12.235 14.6067 11.468C14.8856 8.73611 14.176 5.99476 12.6067 3.74131C11.7422 3.32047 10.8251 3.01776 9.88001 2.84131V2.84131ZM5.78667 9.87464C5.45306 9.85069 5.1417 9.69843 4.91795 9.44982C4.6942 9.20121 4.57547 8.87559 4.58667 8.54131C4.57378 8.20659 4.69193 7.88003 4.91601 7.63105C5.1401 7.38207 5.45245 7.23029 5.78667 7.20798C6.1209 7.23029 6.43325 7.38207 6.65733 7.63105C6.88141 7.88003 6.99957 8.20659 6.98667 8.54131C6.99957 8.87603 6.88141 9.20259 6.65733 9.45157C6.43325 9.70055 6.1209 9.85233 5.78667 9.87464V9.87464ZM10.2133 9.87464C9.87973 9.85069 9.56837 9.69843 9.34462 9.44982C9.12087 9.20121 9.00214 8.87559 9.01334 8.54131C9.00045 8.20659 9.1186 7.88003 9.34268 7.63105C9.56676 7.38207 9.87911 7.23029 10.2133 7.20798C10.5482 7.22862 10.8615 7.37991 11.086 7.62927C11.3104 7.87864 11.428 8.20614 11.4133 8.54131C11.428 8.87647 11.3104 9.20398 11.086 9.45334C10.8615 9.70271 10.5482 9.85399 10.2133 9.87464V9.87464Z" fill="#00F6D2"/>
</svg>
