<svg width="16" height="17" viewBox="0 0 16 17" fill="none" xmlns="http://www.w3.org/2000/svg">
<path d="M7.33333 6.33341V8.78675C7.33333 9.02008 7.45999 9.24008 7.65999 9.36008L9.73999 10.5934C9.97999 10.7334 10.2867 10.6534 10.4267 10.4201C10.5667 10.1801 10.4933 9.87341 10.2533 9.73341L8.33999 8.59341V6.32675C8.33333 6.06008 8.10666 5.83341 7.83333 5.83341C7.55999 5.83341 7.33333 6.06008 7.33333 6.33341ZM14 6.83341V3.30675C14 3.00675 13.64 2.86008 13.4333 3.07341L12.2467 4.26008C11.04 3.05341 9.31999 2.36008 7.43999 2.52675C4.64666 2.78008 2.34666 5.02675 2.03999 7.82008C1.63999 11.4334 4.45999 14.5001 7.99999 14.5001C11.06 14.5001 13.5867 12.2067 13.9533 9.24675C14 8.84675 13.6867 8.50008 13.2867 8.50008C12.9533 8.50008 12.6733 8.74675 12.6333 9.07341C12.3467 11.4001 10.34 13.2001 7.93333 13.1667C5.45999 13.1334 3.37333 11.0467 3.33333 8.56675C3.29333 5.96675 5.40666 3.83341 7.99999 3.83341C9.28666 3.83341 10.4533 4.36008 11.3 5.20008L9.90666 6.59341C9.69333 6.80675 9.83999 7.16675 10.14 7.16675H13.6667C13.8533 7.16675 14 7.02008 14 6.83341Z" fill="#00F6D2"/>
</svg>
