<svg width="16" height="16" viewBox="0 0 16 16" fill="none" xmlns="http://www.w3.org/2000/svg">
<path d="M13.0886 5.33266C13.0973 5.44933 13.0973 5.56533 13.0973 5.68133C13.0973 9.23133 10.3953 13.322 5.45731 13.322C3.93598 13.322 2.52265 12.8813 1.33331 12.116C1.54931 12.1407 1.75731 12.1493 1.98198 12.1493C3.19064 12.1523 4.36508 11.7481 5.31598 11.002C4.75559 10.9919 4.21236 10.807 3.76214 10.4732C3.31191 10.1393 2.97717 9.67326 2.80465 9.14C2.97065 9.16466 3.13731 9.18133 3.31198 9.18133C3.55265 9.18133 3.79465 9.148 4.01931 9.09C3.41115 8.96721 2.8643 8.63756 2.47173 8.15712C2.07916 7.67668 1.86511 7.0751 1.86598 6.45466V6.42133C2.22398 6.62066 2.63931 6.74533 3.07931 6.762C2.71071 6.51705 2.40846 6.18468 2.19954 5.79452C1.99062 5.40437 1.88152 4.96857 1.88198 4.526C1.88198 4.02733 2.01465 3.57 2.24731 3.17133C2.92207 4.00134 3.76365 4.68037 4.71754 5.16444C5.67143 5.6485 6.71635 5.92681 7.78465 5.98133C7.74331 5.78133 7.71798 5.574 7.71798 5.366C7.7178 5.01331 7.78714 4.66404 7.92203 4.33816C8.05692 4.01228 8.25471 3.71618 8.5041 3.46679C8.7535 3.2174 9.04959 3.0196 9.37547 2.88472C9.70135 2.74983 10.0506 2.68049 10.4033 2.68066C11.1766 2.68066 11.8746 3.00466 12.3653 3.52866C12.9665 3.41241 13.543 3.19295 14.0693 2.88C13.8689 3.50054 13.4492 4.02673 12.8886 4.36C13.4218 4.29918 13.9429 4.15897 14.4346 3.944C14.0674 4.4794 13.6123 4.94889 13.0886 5.33266V5.33266Z" fill="#00F6D2"/>
</svg>
