<svg xmlns="http://www.w3.org/2000/svg" width="16" height="16" viewBox="0 0 16 16">
    <g fill="none" fill-rule="evenodd">
        <g fill="#0BCCF7" fill-rule="nonzero">
            <g>
                <path d="M14.537 3.038c-.708-.486-2.005.214-2.583.893L6.66 10.138 3.497 7.441c-.678-.579-1.385-.676-1.964 0-.58.677-.294 1.415.382 1.994l3.872 3.327c.295.25.665.39 1.05.39.043 0 .083-.002.127-.006.425-.033.823-.235 1.1-.56l6.344-7.44c.576-.676.837-1.622.13-2.108z" transform="translate(-871 -624) translate(90 432) translate(781 192)"/>
            </g>
        </g>
    </g>
</svg>
