<svg width="16" height="17" viewBox="0 0 16 17" fill="none" xmlns="http://www.w3.org/2000/svg">
<path d="M11.06 6.5H10V3.16667C10 2.8 9.7 2.5 9.33334 2.5H6.66667C6.3 2.5 6 2.8 6 3.16667V6.5H4.94C4.34667 6.5 4.04667 7.22 4.46667 7.64L7.52667 10.7C7.78667 10.96 8.20667 10.96 8.46667 10.7L11.5267 7.64C11.9467 7.22 11.6533 6.5 11.06 6.5ZM3.33334 13.1667C3.33334 13.5333 3.63334 13.8333 4 13.8333H12C12.3667 13.8333 12.6667 13.5333 12.6667 13.1667C12.6667 12.8 12.3667 12.5 12 12.5H4C3.63334 12.5 3.33334 12.8 3.33334 13.1667Z" fill="#00F6D2"/>
</svg>
