<svg width="16" height="16" viewBox="0 0 16 16" fill="none" xmlns="http://www.w3.org/2000/svg">
<path d="M3.32201 4.79917C4.12761 4.79917 4.78068 4.1461 4.78068 3.3405C4.78068 2.5349 4.12761 1.88184 3.32201 1.88184C2.51641 1.88184 1.86334 2.5349 1.86334 3.3405C1.86334 4.1461 2.51641 4.79917 3.32201 4.79917Z" fill="white" fill-opacity="0.5"/>
<path d="M6.15802 5.9041V13.9968H8.67069V9.99477C8.67069 8.93877 8.86935 7.9161 10.1787 7.9161C11.47 7.9161 11.486 9.12343 11.486 10.0614V13.9974H14V9.55943C14 7.37943 13.5307 5.7041 10.9827 5.7041C9.75936 5.7041 8.93935 6.37543 8.60402 7.01077H8.57002V5.9041H6.15802ZM2.06335 5.9041H4.58002V13.9968H2.06335V5.9041Z" fill="white" fill-opacity="0.5"/>
</svg>
