<svg xmlns="http://www.w3.org/2000/svg" width="40" height="40" viewBox="0 0 40 40">
    <g fill="none" fill-rule="evenodd" opacity=".6">
        <g stroke="#FFF">
            <g>
                <g transform="translate(-121 -711) translate(90 671) matrix(1 0 0 -1 31 80)">
                    <circle cx="20" cy="20" r="18.5" stroke-width="3"/>
                    <g fill="#FFF" fill-rule="nonzero">
                        <g>
                            <path stroke-width=".5" d="M12.752 0c1.723 0 3.125 1.402 3.125 3.125l-.004-.143-.003.054c-.047.346-.321.62-.668.668l-.106.007c-.431 0-.781-.35-.781-.781h0v.195c0-.862-.701-1.563-1.563-1.563h0-9.605c-.861 0-1.562.701-1.562 1.563h0v13.75c0 .862.7 1.563 1.562 1.563H5.76c.432 0 .781.35.781.78 0 .432-.35.782-.78.782h0-2.614C1.424 20 .022 18.598.022 16.875h0V3.125C.022 1.402 1.424 0 3.147 0h0zM7.537 10.938c.335 0 .606.35.606.78 0 .432-.271.782-.606.782h0H3.75c-.335 0-.606-.35-.606-.781 0-.432.271-.781.606-.781h0zm2.956-3.126c.359 0 .65.35.65.782 0 .431-.291.781-.65.781h0-6.7c-.359 0-.65-.35-.65-.781 0-.432.291-.781.65-.781h0zm1.478-3.125c.432 0 .781.35.781.782 0 .431-.35.781-.78.781h0-8.048c-.431 0-.781-.35-.781-.781 0-.432.35-.782.781-.782h0z" transform="matrix(1 0 0 -1 10 30) translate(1)"/>
                            <path stroke-width=".4" d="M14.914 17.6c.665 0 1.214.542 1.185 1.229.029.624-.549 1.171-1.185 1.171-.66 0-1.214-.547-1.214-1.2 0-.653.554-1.2 1.214-1.2zm-.297-9.563c.566-.148 1.131.153 1.374.745.08.21.109.422.109.66h0l-.11 1.98c-.052 1.018-.109 2.037-.16 3.056-.03.333-.03.634-.03.961-.023.544-.403.961-.888.961s-.86-.39-.889-.93c-.08-1.588-.161-3.146-.242-4.735-.029-.417-.052-.84-.081-1.256 0-.692.352-1.262.917-1.442z" transform="matrix(1 0 0 -1 10 30) translate(1)"/>
                        </g>
                    </g>
                </g>
            </g>
        </g>
    </g>
</svg>
