<svg width="16" height="17" viewBox="0 0 16 17" fill="none" xmlns="http://www.w3.org/2000/svg">
<path fill-rule="evenodd" clip-rule="evenodd" d="M3.66667 12.1665C3.66667 12.5332 3.36667 12.8332 3 12.8332C2.63334 12.8332 2.33334 12.5332 2.33334 12.1665V4.16654C2.33334 3.79988 2.63334 3.49988 3 3.49988C3.36667 3.49988 3.66667 3.79988 3.66667 4.16654L3.66667 12.1665ZM9.66667 6.16661V5.10661C9.66667 4.51328 10.3867 4.21995 10.8067 4.63995L13.8667 7.69995C14.1267 7.95995 14.1267 8.37995 13.8667 8.63995L10.8067 11.6999C10.3867 12.1199 9.66667 11.8199 9.66667 11.2266V10.1666H6.33334C5.96667 10.1666 5.66667 9.86661 5.66667 9.49995L5.66667 6.83328C5.66667 6.46661 5.96667 6.16661 6.33334 6.16661L9.66667 6.16661Z" fill="#00F6D2"/>
</svg>
