<svg xmlns="http://www.w3.org/2000/svg" width="16" height="17" viewBox="0 0 16 17">
    <g fill="none" fill-rule="evenodd">
        <g fill="#FFF" fill-rule="nonzero">
            <g>
                <g>
                    <g>
                        <path d="M8 0C4.364 0 1.237 2.066 0 5c1.237 2.933 4.364 5 8 5 3.635 0 6.763-2.066 8-5-1.237-2.933-4.364-5-8-5zm0 8.333C5.963 8.333 4.364 6.867 4.364 5c0-1.867 1.6-3.333 3.636-3.333S11.635 3.133 11.635 5c0 1.867-1.599 3.333-3.635 3.333zM8 3c-1.235 0-2.182.866-2.182 2S6.764 7 8 7s2.182-.866 2.182-2S9.236 3 8 3z" transform="translate(-881.000000, -639.000000) translate(861.000000, 617.000000) translate(20.000000, 22.000000) translate(0.000000, 3.000000)"/>
                    </g>
                </g>
            </g>
        </g>
    </g>
</svg>
