<svg xmlns="http://www.w3.org/2000/svg" width="40" height="40" viewBox="0 0 40 40">
    <g fill="none" fill-rule="evenodd" opacity=".6">
        <g stroke="#FF746B">
            <g>
                <g transform="translate(-121 -580) translate(90 540) matrix(1 0 0 -1 31 80)">
                    <circle cx="20" cy="20" r="18.5" stroke-width="3"/>
                    <g fill="#FF746B" fill-rule="nonzero" stroke-width=".5">
                        <g>
                            <path d="M12.752 0c1.723 0 3.125 1.402 3.125 3.125h0V7.93c0 .431-.35.78-.78.78-.432 0-.782-.349-.782-.78h0V3.125c0-.862-.701-1.563-1.563-1.563h0-9.605c-.861 0-1.562.701-1.562 1.563h0v13.75c0 .862.7 1.563 1.562 1.563H5.76c.432 0 .781.35.781.78 0 .432-.35.782-.78.782h0-2.614C1.424 20 .022 18.598.022 16.875h0V3.125C.022 1.402 1.424 0 3.147 0h0zM7.537 10.938c.335 0 .606.35.606.78 0 .432-.271.782-.606.782h0H3.75c-.335 0-.606-.35-.606-.781 0-.432.271-.781.606-.781h0zm2.956-3.126c.359 0 .65.35.65.782 0 .431-.291.781-.65.781h0-6.7c-.359 0-.65-.35-.65-.781 0-.432.291-.781.65-.781h0zm1.478-3.125c.432 0 .781.35.781.782 0 .431-.35.781-.78.781h0-8.048c-.431 0-.781-.35-.781-.781 0-.432.35-.782.781-.782h0z" transform="matrix(1 0 0 -1 10.6 30) translate(.4)"/>
                        </g>
                        <g>
                            <path d="M10.91 5.256c0-.393-.431-.71-.962-.71H.052c-.53 0-.961.317-.961.71 0 .392.43.71.96.71h9.897c.53 0 .961-.318.961-.71z" transform="matrix(1 0 0 -1 10.6 30) translate(10.2 10.5) scale(-1 1) rotate(45 0 -6.815)"/>
                            <path d="M10.91 5.256c0-.393-.431-.71-.962-.71H.052c-.53 0-.961.317-.961.71 0 .392.43.71.96.71h9.897c.53 0 .961-.318.961-.71z" transform="matrix(1 0 0 -1 10.6 30) translate(10.2 10.5) rotate(45 5 5.256)"/>
                        </g>
                    </g>
                </g>
            </g>
        </g>
    </g>
</svg>
