<svg xmlns="http://www.w3.org/2000/svg" width="26" height="26" viewBox="0 0 26 26">
    <g fill="none" fill-rule="evenodd">
        <g fill="#7D929E" fill-rule="nonzero">
            <g>
                <g>
                    <path d="M24.782 8.714h-2.44V6.397h2.44c.64 0 1.159.518 1.159 1.158 0 .64-.519 1.159-1.159 1.159zM24.782 14.129h-2.44v-2.317h2.44c.64 0 1.159.519 1.159 1.158 0 .64-.519 1.159-1.159 1.159zM24.782 19.544h-2.44v-2.317h2.44c.64 0 1.159.519 1.159 1.159s-.519 1.158-1.159 1.158zM1.218 8.714h2.44V6.397h-2.44c-.64 0-1.159.518-1.159 1.158 0 .64.519 1.159 1.159 1.159zM1.218 14.129h2.44v-2.317h-2.44c-.64 0-1.159.519-1.159 1.158 0 .64.519 1.159 1.159 1.159zM1.218 19.544h2.44v-2.317h-2.44c-.64 0-1.159.519-1.159 1.159s.519 1.158 1.159 1.158z" transform="translate(-52.000000, -246.000000) translate(51.000000, 245.000000) translate(1.000000, 1.000000)"/>
                    <g>
                        <path d="M5.1 1.188v2.44H2.781v-2.44c0-.64.519-1.158 1.159-1.158s1.158.518 1.158 1.158zM10.514 1.188v2.44H8.197v-2.44c0-.64.52-1.158 1.159-1.158.64 0 1.158.518 1.158 1.158zM15.93 1.188v2.44h-2.317v-2.44c0-.64.519-1.158 1.158-1.158.64 0 1.159.518 1.159 1.158zM5.083 24.753v-2.44H2.766v2.44c0 .64.519 1.159 1.158 1.159.64 0 1.159-.52 1.159-1.159zM10.498 24.753v-2.44H8.182v2.44c0 .64.518 1.159 1.158 1.159.64 0 1.158-.52 1.158-1.159zM15.93 24.753v-2.44h-2.317v2.44c0 .64.519 1.159 1.159 1.159s1.158-.52 1.158-1.159zM16.922 3.629c.98 0 1.776.795 1.776 1.776v15.131c0 .981-.795 1.776-1.777 1.776H1.791c-.981 0-1.777-.795-1.777-1.776V5.405c0-.981.796-1.776 1.777-1.776h15.13zm-.6 1.487H2.39c-.49 0-.888.398-.888.888v13.933c0 .49.397.888.888.888h13.932c.49 0 .888-.398.888-.888V6.004c0-.49-.397-.888-.888-.888z" transform="translate(-52.000000, -246.000000) translate(51.000000, 245.000000) translate(1.000000, 1.000000) translate(3.643939, 0.000000)"/>
                    </g>
                    <path d="M18.162 9.793H13.24c-.52 0-.94-.421-.94-.94 0-.52.42-.94.94-.94h4.922c.519 0 .94.42.94.94 0 .519-.421.94-.94.94zM16.361 12.538H11.44c-.519 0-.94-.421-.94-.94 0-.52.421-.94.94-.94h4.922c.52 0 .94.421.94.94 0 .519-.42.94-.94.94zM14.56 15.283H9.64c-.52 0-.94-.42-.94-.94s.42-.94.94-.94h4.922c.519 0 .94.421.94.94 0 .52-.421.94-.94.94zM12.76 18.028H7.838c-.519 0-.94-.42-.94-.94 0-.519.421-.94.94-.94h4.922c.52 0 .94.421.94.94 0 .52-.42.94-.94.94z" transform="translate(-52.000000, -246.000000) translate(51.000000, 245.000000) translate(1.000000, 1.000000)"/>
                </g>
            </g>
        </g>
    </g>
</svg>
