<svg xmlns="http://www.w3.org/2000/svg" width="16" height="16" viewBox="0 0 16 16">
    <g fill="none" fill-rule="evenodd">
        <g fill="#FFF">
            <g>
                <g>
                    <g>
                        <g>
                            <path fill-rule="nonzero" d="M0 13.176c0 .455.369.824.824.824h10.352c.455 0 .824-.369.824-.824 0-.454-.369-.823-.824-.823H.824c-.455 0-.824.369-.824.823z" transform="translate(-886 -189) translate(90 147) translate(766 31) translate(30 11) translate(2 1)"/>
                            <path d="M11.5 5.204c0-.38-.32-.69-.691-.69H3.053S5.465 2.032 5.593 1.6C5.722 1.167 5.156.421 4.5.507c-.656.085-4 4.007-4 4.88 0 .873 3.648 4.874 4.106 5.073.459.2 1.08-.382.987-1-.093-.617-2.54-3.2-2.54-3.2h7.756c.382 0 .691-.304.691-.69v-.366z" transform="translate(-886 -189) translate(90 147) translate(766 31) translate(30 11) translate(2 1) matrix(0 -1 -1 0 11.5 11.5)"/>
                        </g>
                    </g>
                </g>
            </g>
        </g>
    </g>
</svg>
