<svg width="16" height="17" viewBox="0 0 16 17" fill="none" xmlns="http://www.w3.org/2000/svg">
<path d="M9.99999 8.50008C11.4733 8.50008 12.6667 7.30675 12.6667 5.83341C12.6667 4.36008 11.4733 3.16675 9.99999 3.16675C8.52666 3.16675 7.33332 4.36008 7.33332 5.83341C7.33332 7.30675 8.52666 8.50008 9.99999 8.50008ZM3.99999 7.16675V5.83341C3.99999 5.46675 3.69999 5.16675 3.33332 5.16675C2.96666 5.16675 2.66666 5.46675 2.66666 5.83341V7.16675H1.33332C0.966656 7.16675 0.666656 7.46675 0.666656 7.83341C0.666656 8.20008 0.966656 8.50008 1.33332 8.50008H2.66666V9.83341C2.66666 10.2001 2.96666 10.5001 3.33332 10.5001C3.69999 10.5001 3.99999 10.2001 3.99999 9.83341V8.50008H5.33332C5.69999 8.50008 5.99999 8.20008 5.99999 7.83341C5.99999 7.46675 5.69999 7.16675 5.33332 7.16675H3.99999ZM9.99999 9.83341C8.21999 9.83341 4.66666 10.7267 4.66666 12.5001V13.1667C4.66666 13.5334 4.96666 13.8334 5.33332 13.8334H14.6667C15.0333 13.8334 15.3333 13.5334 15.3333 13.1667V12.5001C15.3333 10.7267 11.78 9.83341 9.99999 9.83341Z" fill="#042548"/>
</svg>
