<svg width="16" height="17" viewBox="0 0 16 17" fill="none" xmlns="http://www.w3.org/2000/svg">
<path d="M11.2953 4.34358C11.2944 3.56025 10.9828 2.80926 10.4289 2.25536C9.87501 1.70145 9.12402 1.38986 8.34068 1.38892C7.5575 1.39009 6.80674 1.70179 6.25303 2.25567C5.69932 2.80955 5.38785 3.5604 5.38691 4.34358C5.38785 5.12692 5.69944 5.8779 6.25335 6.43181C6.80725 6.98571 7.55823 7.29731 8.34157 7.29825C9.12491 7.29731 9.87589 6.98571 10.4298 6.43181C10.9837 5.8779 11.2953 5.12692 11.2962 4.34358H11.2953ZM8.34068 7.29825C6.93055 7.2999 5.57867 7.86086 4.58164 8.85805C3.58461 9.85525 3.02387 11.2072 3.02246 12.6174V13.1711C3.02246 13.3391 3.09357 13.4991 3.21891 13.6111C4.65891 14.9 6.47757 15.6111 8.34068 15.6111C10.2047 15.6111 12.0233 14.9 13.4633 13.6111C13.525 13.5556 13.5743 13.4878 13.608 13.412C13.6417 13.3361 13.659 13.2541 13.6589 13.1711V12.6174C13.6575 11.2072 13.0968 9.85525 12.0997 8.85805C11.1027 7.86086 9.75081 7.2999 8.34068 7.29825Z" fill="#032E49"/>
</svg>
