<svg width="14" height="12" viewBox="0 0 14 12" fill="none" xmlns="http://www.w3.org/2000/svg">
<path d="M12.0886 3.33266C12.0973 3.44933 12.0973 3.56533 12.0973 3.68133C12.0973 7.23133 9.39531 11.322 4.45731 11.322C2.93598 11.322 1.52265 10.8813 0.333313 10.116C0.549313 10.1407 0.757313 10.1493 0.98198 10.1493C2.19064 10.1523 3.36508 9.74809 4.31598 9.002C3.75559 8.99186 3.21236 8.80697 2.76214 8.47316C2.31191 8.13934 1.97717 7.67326 1.80465 7.14C1.97065 7.16466 2.13731 7.18133 2.31198 7.18133C2.55265 7.18133 2.79465 7.148 3.01931 7.09C2.41115 6.96721 1.8643 6.63756 1.47173 6.15712C1.07916 5.67668 0.865108 5.0751 0.86598 4.45466V4.42133C1.22398 4.62066 1.63931 4.74533 2.07931 4.762C1.71071 4.51705 1.40846 4.18468 1.19954 3.79452C0.990619 3.40437 0.881522 2.96857 0.88198 2.526C0.88198 2.02733 1.01465 1.57 1.24731 1.17133C1.92207 2.00134 2.76365 2.68037 3.71754 3.16444C4.67143 3.6485 5.71635 3.92681 6.78465 3.98133C6.74331 3.78133 6.71798 3.574 6.71798 3.366C6.7178 3.01331 6.78714 2.66404 6.92203 2.33816C7.05692 2.01228 7.25471 1.71618 7.5041 1.46679C7.7535 1.2174 8.04959 1.0196 8.37547 0.884716C8.70135 0.749828 9.05062 0.680489 9.40331 0.680664C10.1766 0.680664 10.8746 1.00466 11.3653 1.52866C11.9665 1.41241 12.543 1.19295 13.0693 0.879998C12.8689 1.50054 12.4492 2.02673 11.8886 2.36C12.4218 2.29918 12.9429 2.15897 13.4346 1.944C13.0674 2.4794 12.6123 2.94889 12.0886 3.33266Z" fill="#00F6D2"/>
</svg>
