<svg width="16" height="11" viewBox="0 0 16 11" fill="none" xmlns="http://www.w3.org/2000/svg">
<path d="M9.99999 5.50008C11.4733 5.50008 12.6667 4.30675 12.6667 2.83341C12.6667 1.36008 11.4733 0.166748 9.99999 0.166748C8.52666 0.166748 7.33332 1.36008 7.33332 2.83341C7.33332 4.30675 8.52666 5.50008 9.99999 5.50008ZM3.99999 4.16675V2.83341C3.99999 2.46675 3.69999 2.16675 3.33332 2.16675C2.96666 2.16675 2.66666 2.46675 2.66666 2.83341V4.16675H1.33332C0.966656 4.16675 0.666656 4.46675 0.666656 4.83341C0.666656 5.20008 0.966656 5.50008 1.33332 5.50008H2.66666V6.83341C2.66666 7.20008 2.96666 7.50008 3.33332 7.50008C3.69999 7.50008 3.99999 7.20008 3.99999 6.83341V5.50008H5.33332C5.69999 5.50008 5.99999 5.20008 5.99999 4.83341C5.99999 4.46675 5.69999 4.16675 5.33332 4.16675H3.99999ZM9.99999 6.83341C8.21999 6.83341 4.66666 7.72675 4.66666 9.50008V10.1667C4.66666 10.5334 4.96666 10.8334 5.33332 10.8334H14.6667C15.0333 10.8334 15.3333 10.5334 15.3333 10.1667V9.50008C15.3333 7.72675 11.78 6.83341 9.99999 6.83341Z" fill="#042548"/>
</svg>
