<svg width="22" height="23" xmlns="http://www.w3.org/2000/svg">
    <g transform="translate(0 .52)" fill="#FFF" fill-rule="evenodd">
        <g fill-rule="nonzero">
            <path d="M21.86 10.573C21.664 10.304 16.98 4 11 4 5.019 4 .336 10.304.14 10.573a.724.724 0 0 0 0 .854C.336 11.696 5.019 18 11 18c5.98 0 10.664-6.304 10.86-6.573a.723.723 0 0 0 0-.854zM11 16.552c-4.406 0-8.221-4.185-9.35-5.552C2.776 9.63 6.584 5.448 11 5.448c4.405 0 8.22 4.184 9.35 5.552-1.127 1.37-4.935 5.552-9.35 5.552z"/>
            <path d="M10.71 6.917c-2.394 0-4.342 1.962-4.342 4.375 0 2.412 1.948 4.375 4.343 4.375 2.394 0 4.342-1.963 4.342-4.375 0-2.413-1.948-4.375-4.342-4.375zm0 7.291c-1.596 0-2.894-1.308-2.894-2.916 0-1.609 1.298-2.917 2.895-2.917 1.596 0 2.894 1.308 2.894 2.917 0 1.608-1.298 2.916-2.894 2.916z"/>
        </g>
        <rect transform="rotate(50 10.835 11.48)" x="9.835" y="-.521" width="2" height="24" rx="1"/>
    </g>
</svg>
