<svg width="16" height="17" viewBox="0 0 16 17" fill="none" xmlns="http://www.w3.org/2000/svg">
<path d="M7.33333 6.33329V8.78663C7.33333 9.01996 7.45999 9.23996 7.65999 9.35996L9.73999 10.5933C9.97999 10.7333 10.2867 10.6533 10.4267 10.42C10.5667 10.18 10.4933 9.87329 10.2533 9.73329L8.33999 8.59329V6.32662C8.33333 6.05996 8.10666 5.83329 7.83333 5.83329C7.55999 5.83329 7.33333 6.05996 7.33333 6.33329ZM14 6.83329V3.30663C14 3.00663 13.64 2.85996 13.4333 3.07329L12.2467 4.25996C11.04 3.05329 9.31999 2.35996 7.43999 2.52663C4.64666 2.77996 2.34666 5.02662 2.03999 7.81996C1.63999 11.4333 4.45999 14.5 7.99999 14.5C11.06 14.5 13.5867 12.2066 13.9533 9.24663C14 8.84663 13.6867 8.49996 13.2867 8.49996C12.9533 8.49996 12.6733 8.74663 12.6333 9.07329C12.3467 11.4 10.34 13.2 7.93333 13.1666C5.45999 13.1333 3.37333 11.0466 3.33333 8.56663C3.29333 5.96663 5.40666 3.83329 7.99999 3.83329C9.28666 3.83329 10.4533 4.35996 11.3 5.19996L9.90666 6.59329C9.69333 6.80663 9.83999 7.16663 10.14 7.16663H13.6667C13.8533 7.16663 14 7.01996 14 6.83329Z" fill="#00F6D2"/>
</svg>
