<svg width="16" height="17" viewBox="0 0 16 17" fill="none" xmlns="http://www.w3.org/2000/svg">
<path d="M13.0886 5.33266C13.0973 5.44933 13.0973 5.56533 13.0973 5.68133C13.0973 9.23133 10.3953 13.322 5.45725 13.322C3.93592 13.322 2.52259 12.8813 1.33325 12.116C1.54925 12.1407 1.75725 12.1493 1.98192 12.1493C3.19058 12.1523 4.36502 11.7481 5.31592 11.002C4.75553 10.9919 4.2123 10.807 3.76208 10.4732C3.31185 10.1393 2.97711 9.67326 2.80459 9.14C2.97059 9.16466 3.13725 9.18133 3.31192 9.18133C3.55259 9.18133 3.79459 9.148 4.01925 9.09C3.41109 8.96721 2.86423 8.63756 2.47166 8.15712C2.07909 7.67668 1.86505 7.0751 1.86592 6.45466V6.42133C2.22392 6.62066 2.63925 6.74533 3.07925 6.762C2.71064 6.51705 2.4084 6.18468 2.19948 5.79452C1.99056 5.40437 1.88146 4.96857 1.88192 4.526C1.88192 4.02733 2.01459 3.57 2.24725 3.17133C2.92201 4.00134 3.76359 4.68037 4.71748 5.16444C5.67136 5.6485 6.71629 5.92681 7.78459 5.98133C7.74325 5.78133 7.71792 5.574 7.71792 5.366C7.71774 5.01331 7.78708 4.66404 7.92197 4.33816C8.05686 4.01228 8.25465 3.71618 8.50404 3.46679C8.75344 3.2174 9.04953 3.0196 9.37541 2.88472C9.70129 2.74983 10.0506 2.68049 10.4033 2.68066C11.1766 2.68066 11.8746 3.00466 12.3653 3.52866C12.9664 3.41241 13.5429 3.19295 14.0693 2.88C13.8689 3.50054 13.4491 4.02673 12.8886 4.36C13.4218 4.29918 13.9429 4.15897 14.4346 3.944C14.0673 4.4794 13.6123 4.94889 13.0886 5.33266Z" fill="white" fill-opacity="0.5"/>
</svg>
