<svg width="62" height="62" viewBox="0 0 62 62" xmlns="http://www.w3.org/2000/svg">
    <g fill="#FFF" fill-rule="evenodd" opacity=".3">
        <path d="M59.242 45.648h-7.851V7.445A6.453 6.453 0 0 0 44.945 1h-37.5A6.453 6.453 0 0 0 1 7.445v4.688c0 .97.787 1.758 1.758 1.758h7.617v27.07H2.758a1.758 1.758 0 0 0 0 3.516h7.617V54a7 7 0 0 0 7 7h27.57a6.453 6.453 0 0 0 6.446-6.445v-5.39h7.851a1.758 1.758 0 0 0 0-3.517zM10.375 10.375h-5.86v-2.93a2.933 2.933 0 0 1 2.93-2.93 2.933 2.933 0 0 1 2.93 2.93v2.93zm37.5 35.273h-8.998l1.686-1.686a1.758 1.758 0 1 0-2.486-2.486l-4.687 4.687a1.758 1.758 0 0 0 0 2.486l4.687 4.688a1.758 1.758 0 1 0 2.486-2.486l-1.686-1.687h8.998v5.39a2.933 2.933 0 0 1-2.93 2.93H17.406c-1.908 0-3.515-.503-3.515-3.881v-9.126h9.232l-1.686 1.686a1.758 1.758 0 1 0 2.486 2.486l4.687-4.687c.687-.687.687-1.8 0-2.486l-4.687-4.688a1.758 1.758 0 1 0-2.486 2.486l1.686 1.687h-9.232V7.445c0-1.054-.255-2.05-.705-2.93h31.76a2.933 2.933 0 0 1 2.929 2.93v38.203z" fill-rule="nonzero"/>
        <path d="M24.386 15.534a2 2 0 0 1 2.828 0l3.253 3.253 3.253-3.253a2 2 0 0 1 2.828 0l.566.565a2 2 0 0 1 0 2.829L33.86 22.18l3.253 3.252a2 2 0 0 1 .117 2.701l-.117.128-.566.565a2 2 0 0 1-2.828 0l-3.253-3.252-3.253 3.252a2 2 0 0 1-2.828 0l-.566-.565a2 2 0 0 1 0-2.829l3.253-3.252-3.253-3.253a2 2 0 0 1-.117-2.701l.117-.128z"/>
    </g>
</svg>
