<svg xmlns="http://www.w3.org/2000/svg" width="28" height="28" viewBox="0 0 28 28">
    <g fill="none" fill-rule="evenodd">
        <g>
            <g transform="translate(-21.000000, -212.000000) translate(21.000000, 212.000000) translate(0.000000, 1.000000)">
                <circle cx="23.7" cy="21.727" r="3.5" fill="#00F9D1"/>
                <circle cx="4.3" cy="4" r="3.5" fill="#00F9D1"/>
                <g stroke="#00F9D1" stroke-linecap="round" stroke-linejoin="round" stroke-width="2">
                    <path d="M0 0h6.258c3.263 0 5.909 2.646 5.909 5.91v5.52" transform="translate(8.863636, 17.024001) scale(-1, -1) translate(-8.863636, -17.024001) translate(1.363636, 10.524001)"/>
                    <path d="M10.425 7.885L10.425 11.431 13.971 11.431" transform="translate(8.863636, 17.024001) scale(-1, -1) translate(-8.863636, -17.024001) translate(1.363636, 10.524001) translate(12.197924, 9.657817) rotate(-45.000000) translate(-12.197924, -9.657817)"/>
                </g>
                <g stroke="#00F9D1" stroke-linecap="round" stroke-linejoin="round" stroke-width="2">
                    <path d="M0 0h6.258c3.263 0 5.909 2.646 5.909 5.91v5.52" transform="translate(11.636364, 2.251274)"/>
                    <path d="M10.425 7.885L10.425 11.431 13.971 11.431" transform="translate(11.636364, 2.251274) translate(12.197924, 9.657817) rotate(-45.000000) translate(-12.197924, -9.657817)"/>
                </g>
            </g>
        </g>
    </g>
</svg>
