<svg xmlns="http://www.w3.org/2000/svg" width="24" height="24" viewBox="0 0 24 24">
    <g fill="none" fill-rule="evenodd" opacity=".503">
        <g fill="#FFF" fill-rule="nonzero">
            <g>
                <g>
                    <g>
                        <g>
                            <path d="M.605 3.327h9.848L9.37 4.412c-.237.236-.237.619 0 .855.118.118.272.177.427.177.155 0 .31-.059.428-.177l2.117-2.117c.237-.236.237-.62 0-.856L10.224.177c-.236-.236-.62-.236-.855 0-.237.236-.237.62 0 .856l1.084 1.084H.605c-.334 0-.605.271-.605.605 0 .334.271.605.605.605zM11.914 8.117H2.065L3.15 7.033c.236-.237.236-.62 0-.856s-.62-.236-.856 0L.177 8.294c-.236.237-.236.62 0 .856l2.117 2.117c.118.118.273.177.428.177.155 0 .31-.059.428-.177.236-.236.236-.619 0-.855L2.065 9.327h9.849c.333 0 .604-.27.604-.605 0-.334-.27-.605-.604-.605z" transform="translate(-189 -175) translate(90 147) translate(20 28) translate(79) translate(6 6.2)"/>
                        </g>
                    </g>
                </g>
            </g>
        </g>
    </g>
</svg>
