<svg xmlns="http://www.w3.org/2000/svg" width="22" height="22" viewBox="0 0 22 22">
    <defs>
        <radialGradient id="mevkduyk2a" cx="50%" cy="50%" r="41.403%" fx="50%" fy="50%">
            <stop offset="0%" stop-color="#F09241"/>
            <stop offset="100%" stop-color="#0B2B4D"/>
        </radialGradient>
    </defs>
    <g fill="none" fill-rule="evenodd">
        <g>
            <g>
                <g transform="translate(-572 -170) translate(552 147) translate(20 23)">
                    <circle cx="11" cy="11" r="10" fill="url(#mevkduyk2a)" stroke="#F09241" stroke-width="2"/>
                    <g fill="#FFF" fill-rule="nonzero">
                        <path d="M8.1 2.085l-.274.272c1.35 1.475 1.35 3.736 0 5.211l.273.273c1.5-1.628 1.5-4.135 0-5.763v.007zM2.364 2.108C3.839.76 6.099.76 7.574 2.108l.273-.273c-1.628-1.5-4.135-1.5-5.762 0l.279.273zM2.108 7.57c-1.347-1.474-1.347-3.733 0-5.207l-.273-.273c-1.5 1.628-1.5 4.135 0 5.763l.273-.282zM7.57 7.823c-1.474 1.349-3.735 1.349-5.21 0l-.273.272c1.628 1.501 4.135 1.501 5.763 0l-.28-.272zM6.688 4.056c-.054-.569-.545-.76-1.166-.818v-.783h-.48v.769h-.384v-.77h-.476v.79h-.974v.513s.355-.006.35 0c.132-.014.253.079.272.211v2.16c-.003.046-.024.088-.058.117-.034.03-.079.046-.124.042.007.006-.349 0-.349 0l-.09.574h.964v.802h.48v-.79h.383v.786h.481v-.793c.811-.049 1.377-.249 1.448-1.008.057-.61-.23-.883-.69-.993.28-.138.452-.392.413-.809zm-.673 1.708c0 .596-1.021.528-1.347.528V5.234c.326 0 1.347-.093 1.347.53zm-.222-1.491c0 .545-.853.479-1.124.479V3.79c.271 0 1.124-.085 1.124.483z" transform="translate(6 6)"/>
                        <path d="M4.965 9.933C2.223 9.933 0 7.709 0 4.966 0 2.223 2.223 0 4.966 0 7.71 0 9.932 2.223 9.933 4.965c0 1.318-.523 2.582-1.455 3.513-.931.932-2.195 1.455-3.513 1.455zm0-9.546C2.44.39.392 2.44.393 4.965c0 2.527 2.05 4.575 4.576 4.575 2.527 0 4.575-2.048 4.576-4.575 0-1.214-.481-2.38-1.34-3.238C7.344.868 6.18.387 4.964.387z" transform="translate(6 6)"/>
                    </g>
                </g>
            </g>
        </g>
    </g>
</svg>
