<svg width="28" height="28" xmlns="http://www.w3.org/2000/svg">
    <g fill="none" fill-rule="evenodd">
        <path d="M21.888 14.176V7.692a.694.694 0 0 0-.201-.487l-5.504-5.503a.689.689 0 0 0-.487-.202H6.064A2.066 2.066 0 0 0 4 3.564V22.92c0 1.138.926 2.064 2.064 2.064h9.167" stroke="#00FBD1" stroke-width="1.6" stroke-linecap="round"/>
        <path d="M15.748 11H8.012C7.453 11 7 10.552 7 10s.453-1 1.012-1h7.736c.559 0 1.012.448 1.012 1s-.453 1-1.012 1zM12.988 14H8.012C7.453 14 7 13.552 7 13s.453-1 1.012-1h4.976c.559 0 1.012.448 1.012 1s-.453 1-1.012 1zM10.932 17h-2.92C7.453 17 7 16.552 7 16s.453-1 1.012-1h2.92c.559 0 1.012.448 1.012 1s-.453 1-1.012 1z" fill="#00FBD1" fill-rule="nonzero"/>
        <path d="M15.696 2.2v4.2a1 1 0 0 0 1 1h4.442a.3.3 0 0 0 .207-.518l-5.142-4.899a.3.3 0 0 0-.507.217z" stroke="#00FBD1" stroke-width="1.6"/>
        <g transform="translate(13.226 13.6)" fill="#00F6D2" fill-rule="nonzero">
            <circle stroke="#00F6D2" stroke-width=".2" cx="7" cy="10.35" r="1"/>
            <path d="M7 0C3.131 0 0 3.13 0 7c0 3.869 3.13 7 7 7 3.869 0 7-3.13 7-7 0-3.869-3.13-7-7-7zm0 12.906A5.903 5.903 0 0 1 1.094 7 5.903 5.903 0 0 1 7 1.094 5.903 5.903 0 0 1 12.906 7 5.903 5.903 0 0 1 7 12.906z" stroke="#00FBD1" stroke-width=".5"/>
            <path d="M7 3.514A2.19 2.19 0 0 0 4.812 5.7a.547.547 0 1 0 1.094 0 1.095 1.095 0 0 1 2.188 0c0 .603-.49 1.094-1.094 1.094a.547.547 0 0 0-.547.547V8.54a.547.547 0 1 0 1.094 0v-.72A2.191 2.191 0 0 0 9.187 5.7 2.19 2.19 0 0 0 7 3.514z" stroke="#00F6D2" stroke-width=".2"/>
        </g>
    </g>
</svg>
