<svg xmlns="http://www.w3.org/2000/svg" width="22" height="22" viewBox="0 0 22 22">
    <defs>
        <radialGradient id="y1wplu9sya" cx="50%" cy="50%" r="50%" fx="50%" fy="50%">
            <stop offset="0%" stop-color="#B06000"/>
            <stop offset="100%" stop-color="#0B2B4D"/>
        </radialGradient>
    </defs>
    <g fill="none" fill-rule="evenodd">
        <circle cx="11" cy="11" r="9.8" fill="url(#y1wplu9sya)" stroke="#F7941D" stroke-width="2"/>
        <path fill="#FFF" fill-rule="nonzero" d="M15.71 11.46l-.006-.01v-.001l-.01-.032v-.001l-.001-.001v-.001h-.001v-.002l-.002-.001c-.113-.38-.338-.717-.646-.967v-.001l-.028-.022-.013-.009-.009-.007-.004-.003-.008-.006-.004-.004-.009-.006-.004-.003-.009-.007-.005-.003-.009-.007-.004-.003-.01-.006-.005-.003-.006-.009-.005-.003-.01-.007-.005-.003-.01-.007-.005-.003-.01-.007-.005-.004-.01-.007-.006-.004-.01-.007-.006-.003-.011-.007-.005-.004-.012-.007-.005-.003-.01-.007-.007-.003-.011-.007-.006-.003-.012-.007-.006-.003-.013-.007-.006-.003-.012-.008-.006-.003-.013-.007-.006-.004-.013-.007-.006-.004-.014-.007-.006-.004-.013-.007-.01-.005c-.006-.005-.013-.008-.02-.012-.276-.142-.575-.236-.883-.279.086-.093.165-.192.237-.297l.011-.017.006-.009.007-.01.004-.006.006-.011.004-.005.007-.012.004-.005.007-.01.003-.006.007-.011.004-.005.006-.011.003-.005.006-.011.003-.005.006-.01.003-.006.006-.01.003-.005.005-.01.003-.005.005-.01.003-.005.005-.01.003-.005.006-.01.003-.005.006-.01.002-.004.005-.009.003-.005.005-.009.002-.004.005-.009.002-.004.005-.01.002-.004.005-.009.002-.004.004-.009.002-.004.004-.009.002-.004.004-.008.002-.005.004-.01.006-.012.012-.03h.001c.133-.327.164-.686.09-1.03l-.001-.001V8.15l-.001-.001-.001-.002-.001-.001v-.001l-.007-.029v-.002l-.001-.002-.004-.007-.01-.04-.011-.041-.005-.01-.001-.001-.009-.028v-.001l-.001-.001v-.001h-.001V7.98h-.001c-.1-.338-.301-.638-.575-.86v-.002c-.008-.006-.017-.012-.024-.019l-.011-.008-.009-.006-.004-.004-.007-.005-.004-.004-.007-.005-.004-.004-.009-.005-.004-.003-.008-.006-.004-.004-.009-.006-.004-.003-.008-.006-.005-.003-.009-.006-.005-.003-.008-.006-.005-.003-.01-.005L13.489 7l-.01-.006-.004-.003-.01-.005-.005-.003-.01-.006-.004-.003-.01-.007-.005-.002-.01-.007-.004-.003-.011-.006-.005-.003-.01-.006-.006-.003-.01-.006-.006-.004-.01-.006-.006-.004-.01-.007-.007-.003-.011-.007-.006-.003-.012-.006-.006-.003-.012-.007-.009-.004-.018-.01c-.529-.275-1.2-.358-1.875-.184l-.176.045L10.765 5l-1.03.264.442 1.724-.824.21-.443-1.717-1.03.264.443 1.723-2.123.547.283 1.098.855-.22c.136-.035.28-.015.401.057.121.071.209.188.244.324l1.188 4.622c.048.189-.065.381-.254.43l-.75.193.044 1.306 2.121-.545.449 1.72 1.029-.265-.443-1.724.823-.211.444 1.724 1.029-.265-.445-1.731.428-.111c.761-.196 1.377-.642 1.749-1.199l.013-.018.007-.01.008-.012.004-.007.008-.013.004-.006.007-.013.004-.006.007-.013.003-.006.008-.012.003-.006.007-.013.003-.006.007-.012.003-.006.006-.012.003-.006.007-.011.003-.006.007-.011.004-.006.006-.011.003-.006.006-.01.003-.007.006-.01.002-.006.006-.01.003-.007.005-.01.003-.005.005-.01.003-.005.005-.01.003-.005.005-.01.003-.005.005-.01.003-.005.005-.01.003-.005.005-.01.003-.005.004-.01.002-.004.005-.01.006-.015.014-.032v-.002c.15-.367.184-.771.1-1.159V11.6h-.001v-.002h-.001v-.001l-.008-.032v-.002l-.001-.002-.001-.001v-.002h-.001v-.002h-.001v-.001l-.001-.001v-.001h-.001l-.002-.004-.011-.046-.004-.043zM9.66 8.37c.176-.046.902-.228 1.141-.29.381-.098.756-.06 1.05.08l.01.005.004.002.006.003.002.002.006.003.003.002.006.003.003.002.006.003.003.001.006.003.003.002.006.003.003.002.006.003.003.002.006.003.003.001.006.004.003.001.005.004.003.002.005.003.003.002.005.003.003.002.005.003.003.002.004.002.003.002.005.003.003.001.005.003.003.002.004.003.003.002.004.003.002.001.005.003.001.001.005.003.002.001.005.003.001.001.004.004h.002l.005.004.006.004.014.01c.15.113.26.27.315.45l.001.003.005.015.003.005.006.022c.002.007.004.015.004.023l.003.005v.001l.004.015.002.003c.038.183.018.375-.059.546l-.007.016-.003.007-.003.005v.002l-.003.005v.002l-.004.005v.003l-.003.004-.001.003-.003.005v.002l-.004.005v.002l-.003.005-.001.003-.003.005-.002.002-.002.005-.002.003-.003.005-.001.003-.003.005-.002.002-.004.006-.001.003-.004.005-.001.003-.004.005-.002.003-.003.005-.002.003-.004.005-.001.003-.004.005-.002.003-.003.005-.002.003-.003.005-.002.003-.005.006-.001.003-.005.005-.001.003-.005.006-.001.003-.005.005-.003.004-.006.009c-.19.265-.5.48-.88.577-.24.061-.965.251-1.14.296L9.66 8.37zm4.025 3.542l.002.005.004.017v.001h.001v.002h.001c.04.203.012.414-.083.598l-.009.016-.004.008-.004.006-.001.003-.003.005-.002.003-.002.004-.002.003-.004.005-.001.003-.004.006-.002.002-.003.006-.002.003-.004.005-.001.003-.004.005-.001.003-.004.005-.002.003-.003.005-.002.003-.004.005-.001.003-.004.005-.001.003-.005.006-.001.002-.005.006-.002.003-.004.006-.001.003-.004.007-.002.003-.004.006-.002.004-.004.006-.003.004-.005.006-.002.004-.005.007-.003.003-.005.007-.002.004-.005.007-.002.003-.005.007-.004.004-.008.01c-.23.294-.601.535-1.052.65-.284.074-1.142.299-1.35.352l-.585-2.274c.208-.054 1.069-.27 1.353-.344.45-.115.893-.083 1.235.063l.01.005.006.003.009.003h.003l.008.004.004.002.007.003.004.001.007.004.003.002.007.003.003.002.008.003.003.002.007.003.003.002.006.003.003.002.006.003.003.002.006.003.003.001.006.004.002.001.006.003.003.002.006.003.003.002.006.003.003.002.006.003.003.001.006.004.003.001.005.004.003.001.005.004.003.002.005.003.003.002.005.004.003.001.005.004.003.001.005.003.003.002.005.004.007.005.016.01c.173.116.3.287.363.485l.002.004.005.015.003.006.006.023c.004.002.005.011.004.023z"/>
    </g>
</svg>
