<svg width="40" height="40" xmlns="http://www.w3.org/2000/svg">
    <g fill="none" fill-rule="evenodd" opacity=".6">
        <path d="M20.638 16.14a.885.885 0 0 0 .892-.88l.02-2.83c0-.56-.449-1.007-1-1.007h-1.024a1 1 0 0 0-1 1v1.557a1 1 0 0 0 .295.71l1.2 1.192a.885.885 0 0 0 .617.258zm.026 16.729 7.586-6.744a1 1 0 0 0 0-1.495l-.632-.561a1 1 0 0 0-1.328-.001l-4.775 4.234v-3.858l.013.013a1 1 0 0 0 1.414 0l.728-.729a1 1 0 0 0 0-1.414l-8.228-8.228a1 1 0 0 0-1.414 0l-.729.728a1 1 0 0 0 0 1.415l5.185 5.185V28.3l-4.774-4.232a1 1 0 0 0-1.328 0l-.632.562a1 1 0 0 0 0 1.495l7.586 6.744a1 1 0 0 0 1.328 0z" fill="#FF746B"/>
        <circle stroke="#FF746B" stroke-width="3" cx="20" cy="20" r="18.5"/>
        <path d="M29 11.47c0 .39-.312.705-.706.705H11.706A.705.705 0 0 1 11 11.47V9.705c0-.39.312-.705.706-.705h16.588c.39 0 .706.316.706.705v1.765z" fill="#FF746B"/>
    </g>
</svg>
