<svg width="16" height="16" viewBox="0 0 16 16" fill="none" xmlns="http://www.w3.org/2000/svg">
<g id="download">
<path id="Union" fill-rule="evenodd" clip-rule="evenodd" d="M8.75 2C8.75 1.58579 8.41421 1.25 8 1.25C7.58579 1.25 7.25 1.58579 7.25 2V8.18937L5.19696 6.13633C4.90406 5.84343 4.42919 5.84343 4.1363 6.13633C3.8434 6.42922 3.8434 6.90409 4.1363 7.19699L7.46963 10.5303C7.54333 10.604 7.62856 10.6592 7.71952 10.6958C7.80616 10.7308 7.90083 10.75 8 10.75C8.17954 10.75 8.34435 10.6869 8.47346 10.5817C8.49521 10.564 8.51595 10.5451 8.53557 10.525L11.8636 7.19699C12.1565 6.90409 12.1565 6.42922 11.8636 6.13633C11.5707 5.84343 11.0959 5.84343 10.803 6.13633L8.75 8.18929V2ZM2 9.25C2.41421 9.25 2.75 9.58579 2.75 10V12.6667C2.75 12.8214 2.81146 12.9697 2.92085 13.0791C3.03025 13.1885 3.17862 13.25 3.33333 13.25H12.6667C12.8214 13.25 12.9697 13.1885 13.0791 13.0791C13.1885 12.9697 13.25 12.8214 13.25 12.6667V10C13.25 9.58579 13.5858 9.25 14 9.25C14.4142 9.25 14.75 9.58579 14.75 10V12.6667C14.75 13.2192 14.5305 13.7491 14.1398 14.1398C13.7491 14.5305 13.2192 14.75 12.6667 14.75H3.33333C2.7808 14.75 2.25089 14.5305 1.86019 14.1398C1.46949 13.7491 1.25 13.2192 1.25 12.6667V10C1.25 9.58579 1.58579 9.25 2 9.25Z" fill="#00F6D2"/>
</g>
</svg>
