<svg width="40" height="40" xmlns="http://www.w3.org/2000/svg">
    <g fill="none" fill-rule="evenodd" opacity=".6">
        <path d="M20.638 28.404a.885.885 0 0 1 .892.88l.02 2.83c0 .56-.449 1.007-1 1.007h-1.024a1 1 0 0 1-1-1v-1.557a1 1 0 0 1 .295-.709l1.2-1.193a.885.885 0 0 1 .617-.258zm.026-16.728 7.586 6.743a1 1 0 0 1 0 1.495l-.632.562a1 1 0 0 1-1.328 0l-4.775-4.234V21.1l.013-.013a1 1 0 0 1 1.414 0l.728.729a1 1 0 0 1 0 1.414l-8.228 8.228a1 1 0 0 1-1.414 0l-.729-.728a1 1 0 0 1 0-1.415l5.185-5.185v-7.886l-4.774 4.232a1 1 0 0 1-1.328 0l-.632-.562a1 1 0 0 1 0-1.495l7.586-6.743a1 1 0 0 1 1.328 0z" fill="#FF746B"/>
        <circle stroke="#FF746B" stroke-width="3" cx="20" cy="20" r="18.5"/>
        <path d="M29 9.47c0 .39-.312.705-.706.705H11.706A.705.705 0 0 1 11 9.47V7.705c0-.39.312-.705.706-.705h16.588c.39 0 .706.316.706.705V9.47z" fill="#FF746B"/>
    </g>
</svg>
