<svg width="14" height="14" viewBox="0 0 14 14" fill="none" xmlns="http://www.w3.org/2000/svg">
<path d="M6.99334 0.334717C3.31334 0.334717 0.333344 3.32138 0.333344 7.00138C0.333344 10.6814 3.31334 13.6681 6.99334 13.6681C10.68 13.6681 13.6667 10.6814 13.6667 7.00138C13.6667 3.32138 10.68 0.334717 6.99334 0.334717ZM11.6133 4.33472H9.64668C9.43334 3.50138 9.12668 2.70138 8.72668 1.96138C9.95334 2.38138 10.9733 3.23472 11.6133 4.33472ZM7.00001 1.69472C7.55334 2.49472 7.98668 3.38138 8.27334 4.33472H5.72668C6.01334 3.38138 6.44668 2.49472 7.00001 1.69472ZM1.84001 8.33472C1.73334 7.90805 1.66668 7.46138 1.66668 7.00138C1.66668 6.54138 1.73334 6.09472 1.84001 5.66805H4.09334C4.04001 6.10805 4.00001 6.54805 4.00001 7.00138C4.00001 7.45472 4.04001 7.89472 4.09334 8.33472H1.84001ZM2.38668 9.66805H4.35334C4.56668 10.5014 4.87334 11.3014 5.27334 12.0414C4.04668 11.6214 3.02668 10.7747 2.38668 9.66805V9.66805ZM4.35334 4.33472H2.38668C3.02668 3.22805 4.04668 2.38138 5.27334 1.96138C4.87334 2.70138 4.56668 3.50138 4.35334 4.33472V4.33472ZM7.00001 12.308C6.44668 11.508 6.01334 10.6214 5.72668 9.66805H8.27334C7.98668 10.6214 7.55334 11.508 7.00001 12.308ZM8.56001 8.33472H5.44001C5.38001 7.89472 5.33334 7.45472 5.33334 7.00138C5.33334 6.54805 5.38001 6.10138 5.44001 5.66805H8.56001C8.62001 6.10138 8.66668 6.54805 8.66668 7.00138C8.66668 7.45472 8.62001 7.89472 8.56001 8.33472ZM8.72668 12.0414C9.12668 11.3014 9.43334 10.5014 9.64668 9.66805H11.6133C10.9733 10.7681 9.95334 11.6214 8.72668 12.0414V12.0414ZM9.90668 8.33472C9.96001 7.89472 10 7.45472 10 7.00138C10 6.54805 9.96001 6.10805 9.90668 5.66805H12.16C12.2667 6.09472 12.3333 6.54138 12.3333 7.00138C12.3333 7.46138 12.2667 7.90805 12.16 8.33472H9.90668Z" fill="#00F6D2"/>
</svg>
