<svg xmlns="http://www.w3.org/2000/svg" width="60" height="60" viewBox="0 0 60 60">
    <g fill="none" fill-rule="evenodd" opacity=".3">
        <g fill="#FFF" fill-rule="nonzero">
            <g>
                <path d="M51.679 3.467h-3.666v-.75C48.013 1.22 46.742 0 45.179 0H35.011c-1.562 0-2.833 1.22-2.833 2.717v.75H8.32c-2.225 0-4.035 1.736-4.035 3.87V56.13c0 2.134 1.81 3.87 4.035 3.87H51.68c2.225 0 4.035-1.736 4.035-3.87V7.337c0-2.134-1.81-3.87-4.035-3.87zm-7.335.052v10.593l-2.964-1.559c-.402-.212-.844-.318-1.285-.318-.441 0-.882.106-1.284.318l-2.964 1.56V3.518h8.497zM10.627 56.48H8.321c-.202 0-.366-.158-.366-.351V7.337c0-.193.164-.35.366-.35h2.306V56.48zm41.052 0H14.297V6.986h17.88v8.745c0 .914.49 1.738 1.31 2.204.821.465 1.81.48 2.646.041l3.962-2.085 3.963 2.085c.405.213.845.32 1.285.32.469 0 .937-.121 1.36-.361.82-.466 1.31-1.29 1.31-2.204V6.986h3.666c.202 0 .366.158.366.351V56.13c0 .193-.164.351-.366.351z" transform="translate(-517 -197) translate(517 197)"/>
            </g>
        </g>
    </g>
</svg>
