<svg width="16" height="16" viewBox="0 0 16 16" fill="none" xmlns="http://www.w3.org/2000/svg">
<path d="M13.9647 5.53761C13.958 5.0327 13.8635 4.5328 13.6854 4.06028C13.5309 3.66172 13.2951 3.29975 12.9928 2.9975C12.6906 2.69526 12.3286 2.45938 11.93 2.30495C11.4636 2.12985 10.9708 2.03518 10.4727 2.02495C9.83138 1.99628 9.62805 1.98828 8.00005 1.98828C6.37205 1.98828 6.16338 1.98828 5.52671 2.02495C5.02882 2.03525 4.53628 2.12993 4.07005 2.30495C3.67142 2.45927 3.30939 2.69511 3.00714 2.99737C2.70488 3.29963 2.46904 3.66165 2.31471 4.06028C2.13927 4.52637 2.0448 5.01902 2.03538 5.51695C2.00671 6.15895 1.99805 6.36228 1.99805 7.99028C1.99805 9.61828 1.99805 9.82628 2.03538 10.4636C2.04538 10.9623 2.13938 11.4543 2.31471 11.9216C2.4693 12.3201 2.70531 12.682 3.00767 12.9841C3.31003 13.2863 3.67209 13.522 4.07071 13.6763C4.53567 13.8584 5.0283 13.9599 5.52738 13.9763C6.16938 14.0049 6.37271 14.0136 8.00071 14.0136C9.62871 14.0136 9.83738 14.0136 10.474 13.9763C10.9721 13.9665 11.465 13.872 11.9314 13.6969C12.3298 13.5423 12.6917 13.3064 12.9939 13.0042C13.2962 12.702 13.5321 12.3401 13.6867 11.9416C13.862 11.4749 13.956 10.9829 13.966 10.4836C13.9947 9.84228 14.0034 9.63895 14.0034 8.01028C14.002 6.38228 14.002 6.17561 13.9647 5.53761ZM7.99605 11.0689C6.29338 11.0689 4.91405 9.68961 4.91405 7.98695C4.91405 6.28428 6.29338 4.90495 7.99605 4.90495C8.81344 4.90495 9.59736 5.22966 10.1754 5.80764C10.7533 6.38563 11.078 7.16955 11.078 7.98695C11.078 8.80434 10.7533 9.58826 10.1754 10.1663C9.59736 10.7442 8.81344 11.0689 7.99605 11.0689ZM11.2007 5.50961C11.1063 5.5097 11.0128 5.49117 10.9256 5.45509C10.8384 5.419 10.7591 5.36607 10.6923 5.29932C10.6256 5.23257 10.5727 5.15331 10.5366 5.06607C10.5005 4.97884 10.482 4.88535 10.482 4.79095C10.482 4.69661 10.5006 4.60321 10.5367 4.51605C10.5728 4.4289 10.6257 4.34971 10.6924 4.28301C10.7591 4.21631 10.8383 4.16339 10.9255 4.12729C11.0126 4.09119 11.106 4.07261 11.2004 4.07261C11.2947 4.07261 11.3881 4.09119 11.4753 4.12729C11.5624 4.16339 11.6416 4.21631 11.7083 4.28301C11.775 4.34971 11.8279 4.4289 11.864 4.51605C11.9001 4.60321 11.9187 4.69661 11.9187 4.79095C11.9187 5.18828 11.5974 5.50961 11.2007 5.50961Z" fill="white"/>
<path d="M7.99602 9.98886C9.10169 9.98886 9.99802 9.09254 9.99802 7.98686C9.99802 6.88119 9.10169 5.98486 7.99602 5.98486C6.89034 5.98486 5.99402 6.88119 5.99402 7.98686C5.99402 9.09254 6.89034 9.98886 7.99602 9.98886Z" fill="white"/>
</svg>
