<svg width="16" height="16" viewBox="0 0 16 16" fill="none" xmlns="http://www.w3.org/2000/svg">
<path d="M9.87994 2.84082C9.74754 3.07795 9.62955 3.32283 9.52661 3.57415C8.51512 3.41419 7.48477 3.41419 6.47328 3.57415C6.37034 3.32283 6.25235 3.07795 6.11994 2.84082C5.16714 3.00362 4.24088 3.29518 3.36661 3.70749C1.80324 5.96368 1.09424 8.70279 1.36661 11.4342C2.38544 12.2001 3.52892 12.7842 4.74661 13.1608C5.02389 12.7946 5.27135 12.4066 5.48661 12.0008C5.08933 11.8543 4.70748 11.669 4.34661 11.4475C4.44559 11.3816 4.53921 11.3081 4.62661 11.2275C5.67892 11.7344 6.83192 11.9976 7.99994 11.9976C9.16797 11.9976 10.321 11.7344 11.3733 11.2275C11.4666 11.3075 11.5599 11.3808 11.6533 11.4475C11.2904 11.6672 10.909 11.8546 10.5133 12.0075C10.7196 12.4225 10.9605 12.8195 11.2333 13.1942C12.4494 12.8188 13.591 12.2345 14.6066 11.4675C14.8855 8.73562 14.1759 5.99428 12.6066 3.74082C11.7422 3.31998 10.8251 3.01727 9.87994 2.84082ZM5.78661 9.87415C5.453 9.8502 5.14164 9.69794 4.91789 9.44933C4.69414 9.20073 4.57541 8.8751 4.58661 8.54082C4.57372 8.2061 4.69187 7.87954 4.91595 7.63056C5.14004 7.38158 5.45238 7.2298 5.78661 7.20749C6.12084 7.2298 6.43319 7.38158 6.65727 7.63056C6.88135 7.87954 6.9995 8.2061 6.98661 8.54082C6.9995 8.87554 6.88135 9.2021 6.65727 9.45108C6.43319 9.70006 6.12084 9.85184 5.78661 9.87415ZM10.2133 9.87415C9.87967 9.8502 9.56831 9.69794 9.34456 9.44933C9.12081 9.20073 9.00207 8.8751 9.01328 8.54082C9.00038 8.2061 9.11854 7.87954 9.34262 7.63056C9.5667 7.38158 9.87905 7.2298 10.2133 7.20749C10.5481 7.22814 10.8615 7.37942 11.0859 7.62878C11.3103 7.87815 11.4279 8.20565 11.4133 8.54082C11.4279 8.87599 11.3103 9.20349 11.0859 9.45286C10.8615 9.70222 10.5481 9.8535 10.2133 9.87415Z" fill="white" fill-opacity="0.5"/>
</svg>
