<svg width="14" height="12" viewBox="0 0 14 12" fill="none" xmlns="http://www.w3.org/2000/svg">
<path d="M8.88 0.841309C8.7476 1.07843 8.62961 1.32332 8.52667 1.57464C7.51518 1.41468 6.48483 1.41468 5.47334 1.57464C5.3704 1.32332 5.25241 1.07843 5.12001 0.841309C4.1672 1.00411 3.24094 1.29567 2.36667 1.70798C0.8033 3.96417 0.0942973 6.70328 0.366672 9.43464C1.3855 10.2005 2.52898 10.7847 3.74667 11.1613C4.02395 10.795 4.27141 10.4071 4.48667 10.0013C4.08939 9.85483 3.70754 9.66949 3.34667 9.44797C3.44565 9.38212 3.53927 9.30856 3.62667 9.22797C4.67898 9.73485 5.83198 9.99807 7.00001 9.99807C8.16803 9.99807 9.32103 9.73485 10.3733 9.22797C10.4667 9.30797 10.56 9.38131 10.6533 9.44797C10.2905 9.66774 9.90904 9.85513 9.51334 10.008C9.71968 10.423 9.96052 10.82 10.2333 11.1946C11.4495 10.8193 12.591 10.235 13.6067 9.46797C13.8856 6.73611 13.176 3.99476 11.6067 1.74131C10.7422 1.32047 9.82512 1.01776 8.88 0.841309ZM4.78667 7.87464C4.45306 7.85069 4.1417 7.69843 3.91795 7.44982C3.6942 7.20121 3.57547 6.87559 3.58667 6.54131C3.57378 6.20659 3.69193 5.88003 3.91601 5.63105C4.1401 5.38207 4.45245 5.23029 4.78667 5.20797C5.1209 5.23029 5.43325 5.38207 5.65733 5.63105C5.88141 5.88003 5.99957 6.20659 5.98667 6.54131C5.99957 6.87603 5.88141 7.20259 5.65733 7.45157C5.43325 7.70055 5.1209 7.85233 4.78667 7.87464ZM9.21334 7.87464C8.87973 7.85069 8.56837 7.69843 8.34462 7.44982C8.12087 7.20121 8.00214 6.87559 8.01334 6.54131C8.00045 6.20659 8.1186 5.88003 8.34268 5.63105C8.56676 5.38207 8.87911 5.23029 9.21334 5.20797C9.54819 5.22862 9.86154 5.37991 10.086 5.62927C10.3104 5.87864 10.428 6.20614 10.4133 6.54131C10.428 6.87647 10.3104 7.20398 10.086 7.45334C9.86154 7.70271 9.54819 7.85399 9.21334 7.87464Z" fill="#00F6D2"/>
</svg>
