<svg width="14" height="14" viewBox="0 0 14 14" fill="none" xmlns="http://www.w3.org/2000/svg">
<path d="M12.9647 4.5381C12.9579 4.03318 12.8634 3.53329 12.6853 3.06077C12.5309 2.6622 12.295 2.30024 11.9928 1.99799C11.6905 1.69574 11.3286 1.45987 10.93 1.30544C10.4635 1.13034 9.97077 1.03566 9.47265 1.02544C8.83132 0.99677 8.62799 0.98877 6.99999 0.98877C5.37199 0.98877 5.16332 0.98877 4.52665 1.02544C4.02876 1.03574 3.53622 1.13041 3.06999 1.30544C2.67136 1.45976 2.30933 1.6956 2.00707 1.99786C1.70482 2.30012 1.46898 2.66214 1.31465 3.06077C1.13921 3.52686 1.04473 4.01951 1.03532 4.51744C1.00665 5.15944 0.997986 5.36277 0.997986 6.99077C0.997986 8.61877 0.997986 8.82677 1.03532 9.4641C1.04532 9.96277 1.13932 10.4548 1.31465 10.9221C1.46924 11.3206 1.70525 11.6825 2.00761 11.9846C2.30997 12.2867 2.67203 12.5225 3.07065 12.6768C3.53561 12.8589 4.02823 12.9604 4.52732 12.9768C5.16932 13.0054 5.37265 13.0141 7.00065 13.0141C8.62865 13.0141 8.83732 13.0141 9.47399 12.9768C9.97209 12.967 10.4649 12.8725 10.9313 12.6974C11.3298 12.5428 11.6917 12.3069 11.9939 12.0047C12.2961 11.7024 12.532 11.3406 12.6867 10.9421C12.862 10.4754 12.956 9.98344 12.966 9.4841C12.9947 8.84277 13.0033 8.63944 13.0033 7.01077C13.002 5.38277 13.002 5.1761 12.9647 4.5381ZM6.99599 10.0694C5.29332 10.0694 3.91399 8.6901 3.91399 6.98744C3.91399 5.28477 5.29332 3.90544 6.99599 3.90544C7.81338 3.90544 8.5973 4.23015 9.17529 4.80813C9.75328 5.38612 10.078 6.17004 10.078 6.98744C10.078 7.80483 9.75328 8.58875 9.17529 9.16674C8.5973 9.74473 7.81338 10.0694 6.99599 10.0694ZM10.2007 4.5101C10.1063 4.51019 10.0128 4.49166 9.92553 4.45558C9.83829 4.41949 9.75904 4.36656 9.69228 4.29981C9.62553 4.23305 9.5726 4.15379 9.53651 4.06656C9.50043 3.97933 9.4819 3.88584 9.48199 3.79144C9.48199 3.6971 9.50057 3.60369 9.53667 3.51654C9.57277 3.42939 9.62568 3.3502 9.69238 3.2835C9.75909 3.21679 9.83827 3.16388 9.92543 3.12778C10.0126 3.09168 10.106 3.0731 10.2003 3.0731C10.2947 3.0731 10.3881 3.09168 10.4752 3.12778C10.5624 3.16388 10.6416 3.21679 10.7083 3.2835C10.775 3.3502 10.8279 3.42939 10.864 3.51654C10.9001 3.60369 10.9187 3.6971 10.9187 3.79144C10.9187 4.18877 10.5973 4.5101 10.2007 4.5101Z" fill="#00F6D2"/>
</svg>
