<svg width="28" height="28" viewBox="0 0 28 28" fill="none" xmlns="http://www.w3.org/2000/svg">
<path d="M19.9599 26.9999H1.54171C1.24269 26.9999 1 26.7573 1 26.4582C1 26.1592 1.24269 25.9165 1.54171 25.9165H19.9599C20.2589 25.9165 20.5016 26.1592 20.5016 26.4582C20.5016 26.7573 20.2589 26.9999 19.9599 26.9999Z" fill="#00F6D2" stroke="#00F6D2"/>
<path d="M24.1503 11.4937C24.1482 11.4937 24.1471 11.4937 24.1449 11.4937C23.7094 11.4927 23.3009 11.3204 22.9943 11.0116L17.0095 4.95855C16.3833 4.32475 16.3865 3.29658 17.0171 2.66711L18.2088 1.47535C18.8416 0.84155 19.8741 0.84155 20.5068 1.47535L26.5263 7.49375C27.1601 8.12756 27.1601 9.15897 26.5263 9.79278L25.2998 11.0192C24.9921 11.3247 24.5848 11.4937 24.1503 11.4937V11.4937ZM19.3573 2.08098C19.2186 2.08098 19.0799 2.13299 18.9737 2.23916L17.782 3.43093C17.5718 3.64111 17.5707 3.98347 17.7787 4.19474L23.7635 10.2478C23.8654 10.3507 24.0019 10.4082 24.1471 10.4082C24.2727 10.3767 24.4288 10.3529 24.5317 10.2489L25.7581 9.02355C25.9694 8.81228 25.9694 8.46883 25.7581 8.25648L19.7386 2.23808C19.6346 2.13407 19.4959 2.08098 19.3573 2.08098V2.08098ZM17.4006 3.04848H17.4114H17.4006Z" fill="#00F6D2" stroke="#00F6D2"/>
<path d="M7.34275 14.6336C7.10981 14.6336 6.89421 14.4819 6.82379 14.2479C6.63636 13.625 6.54102 12.9782 6.54102 12.3259C6.54102 11.3021 6.78587 10.2685 7.24632 9.33462C8.11848 7.5914 9.70785 6.31513 11.6082 5.83084L17.5345 4.32489C17.827 4.24688 18.1184 4.42673 18.1921 4.716C18.2658 5.00528 18.0903 5.30105 17.801 5.37364L11.8747 6.87959C10.2799 7.28696 8.94729 8.35738 8.21707 9.81675C7.83029 10.6001 7.62444 11.4679 7.62444 12.3259C7.62444 12.872 7.70353 13.4137 7.86062 13.937C7.94729 14.223 7.78478 14.5253 7.49768 14.612C7.44567 14.626 7.39367 14.6336 7.34275 14.6336V14.6336Z" fill="#00F6D2" stroke="#00F6D2"/>
<path d="M13.1713 22.1156C12.3002 22.1156 11.5136 21.6671 11.0662 20.9163C10.4952 19.9564 10.6794 18.6996 11.5136 17.861L15.3392 14.029C14.8842 13.484 14.2168 13.1861 13.4844 13.2229C12.7119 13.263 12.0207 13.6888 11.6372 14.3616C11.4866 14.6227 11.1539 14.7105 10.8972 14.5631C10.6382 14.4147 10.5472 14.0842 10.6946 13.8242C11.2623 12.8307 12.284 12.2013 13.427 12.1406C14.5656 12.0788 15.6523 12.6 16.3219 13.5295L16.4909 13.7646C16.6426 13.9759 16.623 14.2663 16.4432 14.4548L12.2785 18.6259C11.8018 19.1059 11.6816 19.8361 11.9947 20.3616C12.4378 21.1081 13.5451 21.2327 14.1518 20.627L18.856 15.8491L22.6274 10.0377C22.791 9.78631 23.1268 9.71589 23.376 9.8784C23.6263 10.0409 23.6978 10.3768 23.5342 10.627L19.7325 16.4851C19.713 16.5165 19.6902 16.5447 19.6642 16.5718L14.9199 21.3908C14.454 21.8589 13.8332 22.1156 13.1713 22.1156V22.1156Z" fill="#00F6D2" stroke="#00F6D2"/>
<path d="M17.8116 27.0001H3.7087C3.40968 27.0001 3.16699 26.7574 3.16699 26.4584V14.5407C3.16699 14.2417 3.40968 13.999 3.7087 13.999H15.5949C15.8939 13.999 16.1366 14.2417 16.1366 14.5407C16.1366 14.8398 15.8939 15.0824 15.5949 15.0824H4.25041V25.9167H17.2699V17.6848C17.2699 17.3858 17.5126 17.1431 17.8116 17.1431C18.1106 17.1431 18.3533 17.3858 18.3533 17.6848V26.4584C18.3533 26.7574 18.1106 27.0001 17.8116 27.0001Z" fill="#00F6D2" stroke="#00F6D2"/>
</svg>
