<svg width="20" height="20" viewBox="0 0 20 20" fill="none" xmlns="http://www.w3.org/2000/svg">
<g id="home 1">
<path id="Vector" d="M18.5165 8.82913C18.5161 8.82872 18.5157 8.82831 18.5152 8.8279L11.1719 1.4856C10.8589 1.17249 10.4428 1 10.0001 1C9.55746 1 9.14131 1.17235 8.82816 1.48546L1.48869 8.82405C1.48621 8.82652 1.48374 8.82913 1.48127 8.8316C0.838503 9.47801 0.839602 10.5268 1.48443 11.1716C1.77903 11.4663 2.16812 11.637 2.58413 11.6548C2.60103 11.6565 2.61806 11.6573 2.63523 11.6573H2.9279V17.0608C2.9279 18.13 3.79797 19 4.8676 19H7.74054C8.03171 19 8.26794 18.7639 8.26794 18.4727V14.2363C8.26794 13.7484 8.66486 13.3515 9.15284 13.3515H10.8474C11.3354 13.3515 11.7323 13.7484 11.7323 14.2363V18.4727C11.7323 18.7639 11.9684 19 12.2597 19H15.1326C16.2023 19 17.0723 18.13 17.0723 17.0608V11.6573H17.3437C17.7862 11.6573 18.2024 11.4849 18.5157 11.1718C19.1612 10.526 19.1614 9.4754 18.5165 8.82913Z" fill="#7D929E"/>
</g>
</svg>
