<svg width="12" height="13" viewBox="0 0 12 13" fill="none" xmlns="http://www.w3.org/2000/svg">
<path d="M5.33333 4.33334V6.78667C5.33333 7.02 5.45999 7.24 5.65999 7.36L7.73999 8.59334C7.97999 8.73334 8.28666 8.65334 8.42666 8.42C8.56666 8.18 8.49333 7.87334 8.25333 7.73334L6.33999 6.59334V4.32667C6.33333 4.06 6.10666 3.83334 5.83333 3.83334C5.55999 3.83334 5.33333 4.06 5.33333 4.33334ZM12 4.83334V1.30667C12 1.00667 11.64 0.860004 11.4333 1.07334L10.2467 2.26C9.04 1.05334 7.31999 0.360004 5.43999 0.526671C2.64666 0.780004 0.346661 3.02667 0.0399946 5.82C-0.360005 9.43334 2.45999 12.5 5.99999 12.5C9.05999 12.5 11.5867 10.2067 11.9533 7.24667C12 6.84667 11.6867 6.5 11.2867 6.5C10.9533 6.5 10.6733 6.74667 10.6333 7.07334C10.3467 9.4 8.33999 11.2 5.93333 11.1667C3.45999 11.1333 1.37333 9.04667 1.33333 6.56667C1.29333 3.96667 3.40666 1.83334 5.99999 1.83334C7.28666 1.83334 8.45333 2.36 9.29999 3.2L7.90666 4.59334C7.69333 4.80667 7.83999 5.16667 8.13999 5.16667H11.6667C11.8533 5.16667 12 5.02 12 4.83334Z" fill="white"/>
</svg>
