<svg xmlns="http://www.w3.org/2000/svg" width="18" height="18" viewBox="0 0 18 18">
    <g fill="none" fill-rule="evenodd" stroke-linejoin="round">
        <g stroke="#05E2C2">
            <g>
                <g>
                    <g>
                        <path fill="#001F44" stroke-width="1.3" d="M9 15.135L6.887 16.196 5.683 14.161 3.332 13.911 3.419 11.549 1.576 10.067 2.927 8.127 2.178 5.884 4.363 4.982 4.945 2.691 7.271 3.113 9 1.5 10.729 3.113 13.055 2.691 13.637 4.982 15.822 5.884 15.073 8.127 16.424 10.067 14.581 11.549 14.668 13.911 12.317 14.161 11.113 16.196z" transform="translate(-586.000000, -167.000000) translate(90.000000, 148.000000) translate(462.000000, 0.000000) translate(34.000000, 19.000000)"/>
                        <path stroke-linecap="round" d="M6.692 9.396L8.414 11.061 11.724 7.731" transform="translate(-586.000000, -167.000000) translate(90.000000, 148.000000) translate(462.000000, 0.000000) translate(34.000000, 19.000000)"/>
                    </g>
                </g>
            </g>
        </g>
    </g>
</svg>
