<svg width="82" height="113" viewBox="0 0 82 113" fill="none" xmlns="http://www.w3.org/2000/svg">
<g clip-path="url(#clip0_170_1762)">
<path d="M35.3155 113.007C54.8197 113.007 70.631 109.558 70.631 105.305C70.631 101.051 54.8197 97.6024 35.3155 97.6024C15.8113 97.6024 0 101.051 0 105.305C0 109.558 15.8113 113.007 35.3155 113.007Z" fill="#003C62"/>
<path fill-rule="evenodd" clip-rule="evenodd" d="M69.1222 104.361C69.1222 107.378 57.9468 109.817 44.1544 109.817C30.362 109.817 19.1865 107.378 19.1865 104.361V48.6184H69.1222V104.361Z" fill="#00F6D2"/>
<path d="M69.1221 57.5966C75.4375 57.5966 79.4164 62.1687 81.0987 68.0233C82.3004 72.3368 82.3004 76.8945 81.0987 81.208C79.4164 87.056 75.4375 91.6281 69.1221 91.6281V86.1988C72.5469 86.1988 74.81 83.3611 75.8581 79.7194C76.7751 76.3759 76.7751 72.8488 75.8581 69.5053C74.81 65.8702 72.5202 63.0259 69.1221 63.0259V57.5966ZM69.1221 91.6281C62.8067 91.6281 58.8346 87.056 57.1523 81.208C55.9505 76.8945 55.9505 72.3368 57.1523 68.0233C58.8346 62.1687 62.8067 57.5966 69.1221 57.5966V63.0259C65.6974 63.0259 63.4343 65.8702 62.3929 69.5053C61.4759 72.8488 61.4759 76.3759 62.3929 79.7194C63.4343 83.3611 65.6974 86.1988 69.1221 86.1988V91.6281Z" fill="#8DFFEE"/>
<path d="M69.1221 57.5965C69.6534 57.5955 70.1841 57.6288 70.711 57.6961V63.2451C70.194 63.0998 69.6594 63.026 69.1221 63.0258C65.6974 63.0258 63.4343 65.8701 62.3929 69.5052C61.4759 72.8487 61.4759 76.3758 62.3929 79.7193C63.4343 83.361 65.6974 86.1987 69.1221 86.1987C69.6596 86.2017 70.1947 86.1279 70.711 85.9794V91.5284C70.1841 91.5957 69.6534 91.629 69.1221 91.628C62.8067 91.628 58.8346 87.0559 57.1523 81.2079C55.9505 76.8944 55.9505 72.3367 57.1523 68.0232C58.8346 62.1686 62.8067 57.5965 69.1221 57.5965Z" fill="#00F6D2"/>
<path fill-rule="evenodd" clip-rule="evenodd" d="M69.1221 104.361C69.1221 107.378 57.9467 109.817 44.1543 109.817C38.9292 109.857 33.7101 109.456 28.5528 108.621C26.4165 108.248 26.757 106.361 26.757 104.241V48.6184H69.1221V104.361Z" fill="#8DFFEE"/>
<path fill-rule="evenodd" clip-rule="evenodd" d="M44.1544 54.0677C57.9067 54.0677 69.1222 51.6222 69.1222 48.6184C69.1222 45.6147 57.9134 43.1758 44.1544 43.1758C30.3954 43.1758 19.1865 45.628 19.1865 48.6317C19.1865 51.6355 30.402 54.0677 44.1544 54.0677Z" fill="#8DFFEE"/>
<path fill-rule="evenodd" clip-rule="evenodd" d="M44.1543 52.2868C56.2042 52.2868 66.0311 50.6387 66.0311 48.6184C66.0311 46.5982 56.2042 44.9435 44.1543 44.9435C32.1043 44.9435 22.2773 46.5982 22.2773 48.6184C22.2773 50.6387 32.1043 52.2868 44.1543 52.2868Z" fill="#00E9C7"/>
<path d="M44.1545 52.2868C54.3084 52.2868 62.5399 51.5341 62.5399 50.6055C62.5399 49.6769 54.3084 48.9242 44.1545 48.9242C34.0005 48.9242 25.769 49.6769 25.769 50.6055C25.769 51.5341 34.0005 52.2868 44.1545 52.2868Z" fill="#5C3D30"/>
<path fill-rule="evenodd" clip-rule="evenodd" d="M52.3191 52.0076C49.7555 52.187 46.9784 52.2867 43.9876 52.2867C36.3437 52.2867 29.6277 51.6221 25.769 50.6054C29.6277 49.5953 36.3437 48.9241 43.9876 48.9241C45.4652 48.9241 46.8983 48.9484 48.2869 48.9972C50.1094 49.0769 49.4017 49.7747 46.2841 49.6617C43.1664 49.5487 36.9378 50.1269 37.799 50.8313C38.6602 51.5358 51.4846 50.4858 52.3191 52.0076Z" fill="#A17E6F"/>
<path d="M37.4651 50.1137C38.1509 50.1137 38.7068 49.9679 38.7068 49.788C38.7068 49.6082 38.1509 49.4624 37.4651 49.4624C36.7793 49.4624 36.2234 49.6082 36.2234 49.788C36.2234 49.9679 36.7793 50.1137 37.4651 50.1137Z" fill="#5C3D30"/>
<path fill-rule="evenodd" clip-rule="evenodd" d="M39.9552 49.9409C40.4092 49.9409 40.7764 49.8478 40.7764 49.7282C40.7764 49.6086 40.4092 49.5089 39.9552 49.5089C39.5013 49.5089 39.1274 49.6086 39.1274 49.7282C39.1274 49.8478 39.4946 49.9409 39.9552 49.9409Z" fill="#5C3D30"/>
<path fill-rule="evenodd" clip-rule="evenodd" d="M47.579 51.9677C48.033 51.9677 48.4068 51.868 48.4068 51.7484C48.4068 51.6288 48.033 51.5358 47.579 51.5358C47.1251 51.5358 46.7512 51.6354 46.7512 51.7484C46.7512 51.8614 47.1251 51.9677 47.579 51.9677Z" fill="#5C3D30"/>
<path fill-rule="evenodd" clip-rule="evenodd" d="M31.8773 51.1837C32.3312 51.1837 32.7051 51.084 32.7051 50.971C32.7051 50.858 32.3312 50.7517 31.8773 50.7517C31.4233 50.7517 31.0562 50.8514 31.0562 50.971C31.0562 51.0906 31.43 51.1837 31.8773 51.1837Z" fill="#5C3D30"/>
<path fill-rule="evenodd" clip-rule="evenodd" d="M47.5124 41.0027C30.075 24.1165 56.4848 20.3352 47.5124 0C64.7295 18.5875 37.8257 22.608 47.5124 41.0027Z" fill="#56829F"/>
<path fill-rule="evenodd" clip-rule="evenodd" d="M39.8885 20.2223C42.7057 14.1018 47.0184 8.41987 42.6523 3.5022C37.7456 -2.0202 28.633 -0.0863653 27.3378 6.67875C26.1896 12.5268 33.0791 16.2017 33.0791 16.2017C33.0791 16.2017 29.3206 12.8125 30.8026 8.09424C31.8774 4.65187 35.7895 4.25314 38.5066 6.10059C41.4974 8.12082 42.0048 12.992 39.8885 20.2223Z" fill="#56829F"/>
<path fill-rule="evenodd" clip-rule="evenodd" d="M59.4823 32.0181C60.457 29.6323 58.3941 26.2032 54.7424 26.6684C52.1722 27.0007 49.6554 28.8814 47.5325 33.8256C48.7742 29.1738 48.9945 24.1033 53.6476 23.3723C58.8681 22.5748 62.4264 27.9311 59.4823 32.0181Z" fill="#56829F"/>
</g>
<defs>
<clipPath id="clip0_170_1762">
<rect width="82" height="113" fill="white"/>
</clipPath>
</defs>
</svg>
