<svg xmlns="http://www.w3.org/2000/svg" width="16" height="16" viewBox="0 0 16 16">
    <g fill="#032E49">
        <g>
            <path d="M10.562 3.141L9.304 3.095 9.032 10.511 10.289 10.556zM6.871 3.118H8.129000000000001V10.533H6.871zM5.968 10.51L5.696 3.095 4.438 3.141 4.711 10.556z" transform="translate(-.5) translate(1 2.375)"/>
            <path d="M.012.654c0 .346.28.626.627.626h.684l1.04 11.773c.03.324.301.572.627.572h8.998c.327 0 .599-.248.627-.572l1.04-11.773h.706c.347 0 .627-.28.627-.626s-.28-.627-.627-.627H.64c-.347 0-.627.28-.627.627zm11.4 11.718H3.567L2.587 1.28h9.805l-.98 11.092z" transform="translate(-.5) translate(1 2.375)"/>
        </g>
        <path d="M10.556 0H6.444c-.578 0-1.048.469-1.048 1.044V3.03h1.258V1.253h3.692V3.03h1.258V1.044c0-.576-.47-1.044-1.048-1.044z" transform="translate(-.5)"/>
    </g>
</svg>
