<svg width="40" height="40" xmlns="http://www.w3.org/2000/svg">
    <g transform="matrix(1 0 0 -1 0 40)" fill="none" fill-rule="evenodd" opacity=".6">
        <circle stroke="#DA68F5" stroke-width="3" cx="20" cy="20" r="18.5"/>
        <g fill="#DA68F5">
            <path d="M19.003 7.182a.703.703 0 0 0-.704.691v14.485s-4.514-4.386-5.3-4.619c-.786-.233-2.142.796-1.987 1.988C11.168 20.92 18.3 27 19.886 27c1.587 0 8.86-6.632 9.223-7.466.363-.833-.694-1.965-1.817-1.795-1.122.17-5.819 4.619-5.819 4.619V7.873a.698.698 0 0 0-.704-.691h-1.766zM29 29.764a.703.703 0 0 0-.706-.705H11.706a.705.705 0 0 0-.706.705v1.765c0 .39.312.705.706.705h16.588c.39 0 .706-.316.706-.705v-1.765z"/>
        </g>
    </g>
</svg>
