<?xml version="1.0" encoding="UTF-8"?>
<svg width="60px" height="60px" viewBox="0 0 60 60" version="1.1" xmlns="http://www.w3.org/2000/svg" xmlns:xlink="http://www.w3.org/1999/xlink">
    <title>atomic-empty-state copy</title>
    <g id="v2" stroke="none" stroke-width="1" fill="none" fill-rule="evenodd" opacity="0.3">
        <g id="easy-onboarding-wallet" transform="translate(-608.000000, -541.000000)" fill="#FFFFFF" fill-rule="nonzero" stroke="#FFFFFF">
            <g id="Group-5" transform="translate(90.000000, 435.000000)">
                <g id="Shape" transform="translate(518.000000, 106.000000)">
                    <path d="M57.8571429,28.0968606 L55.1569289,28.0968606 L55.1569289,15.8004071 C55.1569289,12.852446 52.7343494,10.4541809 49.756501,10.4541809 L46.0993556,10.4541809 L42.3568358,3.79277703 C41.7864415,2.77474135 40.7009444,2.14285714 39.5236867,2.14285714 C38.974972,2.14285714 38.4306269,2.28294311 37.9499764,2.54697688 L23.5869288,10.4540145 L7.54328505,10.4540145 C4.5654366,10.4540145 2.14285714,12.8522796 2.14285714,15.8002408 L2.14285714,52.5109166 C2.14285714,55.4588777 4.5654366,57.8571429 7.54328505,57.8571429 L49.756501,57.8571429 C52.7343494,57.8571429 55.1569289,55.4588777 55.1569289,52.5109166 L55.1569289,41.729621 L57.8571429,41.729621 L57.8571429,28.0968606 Z M49.756501,12.5925716 C51.4197871,12.5925716 52.7785491,13.8435293 52.9610619,15.4442028 L48.9020859,15.4442028 L47.301318,12.5925716 L49.756501,12.5925716 Z M39.0008532,4.41600985 C39.5073849,4.13483968 40.1890348,4.33149242 40.468686,4.83094382 L46.4307691,15.4432046 L18.9684824,15.4432046 L39.0008532,4.41600985 Z M52.9966905,52.5109166 C52.9966905,54.2794604 51.5428067,55.7187522 49.7563329,55.7187522 L7.54328505,55.7187522 C5.75681126,55.7187522 4.30292747,54.2794604 4.30292747,52.5109166 L4.30292747,15.8004071 C4.30292747,14.0318634 5.75681126,12.5925716 7.54328505,12.5925716 L19.7029029,12.5925716 L14.5228012,15.4443692 L8.21838055,15.4443692 C7.62109665,15.4443692 7.13826136,15.9233567 7.13826136,16.5136477 C7.13826136,17.1039387 7.62109665,17.5829262 8.21838055,17.5829262 L10.6377669,17.5829262 L50.103208,17.5829262 L52.9966905,17.5829262 L52.9966905,28.0978588 L45.0980563,28.0978588 C41.429987,28.0978588 38.4447439,31.0533067 38.4447439,34.6843949 L38.4447439,35.1442496 C38.4447439,38.7755041 41.4301551,41.7307856 45.0980563,41.7307856 L52.9966905,41.7307856 L52.9966905,52.5109166 Z M55.6969045,39.5912304 L55.1569289,39.5912304 L45.0980563,39.5912304 C42.6203533,39.5912304 40.6048143,37.5960867 40.6048143,35.1430849 L40.6048143,34.6832303 C40.6048143,32.2303949 42.6201853,30.2350849 45.0980563,30.2350849 L55.1569289,30.2350849 L55.6969045,30.2350849 L55.6969045,39.5912304 Z M48.40631,35.0010025 C48.40631,36.3055323 47.3391314,37.3618337 46.021544,37.3618337 C44.7037885,37.3618337 43.6367779,36.3053659 43.6367779,35.0010025 C43.6367779,33.6966391 44.7039565,32.6401713 46.021544,32.6401713 C47.3392994,32.6400049 48.40631,33.697471 48.40631,35.0010025 Z"></path>
                </g>
            </g>
        </g>
    </g>
</svg>