<svg width="16" height="16" viewBox="0 0 16 16" fill="none" xmlns="http://www.w3.org/2000/svg">
<g id="Frame 32">
<g id="Union">
<path fill-rule="evenodd" clip-rule="evenodd" d="M4.6861 2.66676C4.6861 2.29857 4.98457 2.00009 5.35276 2.00009H9.14795C11.505 2.00009 13.3984 3.93741 13.3984 6.30567V8.55023L13.8032 8.13911C14.0616 7.87678 14.4805 7.87678 14.7388 8.13911C14.9972 8.40144 14.9972 8.82677 14.7388 9.0891L13.2184 10.633C12.96 10.8953 12.5411 10.8953 12.2828 10.633L10.7623 9.0891C10.504 8.82677 10.504 8.40144 10.7623 8.13911C11.0207 7.87678 11.4396 7.87678 11.6979 8.13911L12.065 8.51187V6.30567C12.065 4.65451 10.7494 3.33343 9.14795 3.33343H5.35276C4.98457 3.33343 4.6861 3.03495 4.6861 2.66676ZM3.90117 7.98127C4.15952 8.2436 4.57839 8.2436 4.83675 7.98127C5.0951 7.71894 5.0951 7.29361 4.83675 7.03128L3.3163 5.48742C3.05794 5.22509 2.63907 5.22509 2.38072 5.48742L0.860269 7.03128C0.601916 7.29362 0.601916 7.71894 0.860269 7.98127C1.11862 8.2436 1.53749 8.2436 1.79585 7.98127L2.20065 7.57024V9.81487C2.20065 12.1831 4.09405 14.1205 6.45104 14.1205H10.2462C10.6144 14.1205 10.9129 13.822 10.9129 13.4538C10.9129 13.0856 10.6144 12.7871 10.2462 12.7871H6.45104C4.84956 12.7871 3.53398 11.466 3.53398 9.81487V7.60843L3.90117 7.98127Z" fill="#042548"/>
<path d="M13.3984 8.55023H13.1484C13.1484 8.65169 13.2097 8.74309 13.3036 8.78156C13.3975 8.82003 13.5053 8.79794 13.5765 8.72565L13.3984 8.55023ZM13.8032 8.13911L13.9814 8.31453H13.9814L13.8032 8.13911ZM14.7388 9.0891L14.5607 8.91368L14.7388 9.0891ZM13.2184 10.633L13.0402 10.4575L13.0402 10.4575L13.2184 10.633ZM12.2828 10.633L12.4609 10.4575L12.4609 10.4575L12.2828 10.633ZM10.7623 9.0891L10.9405 8.91368L10.7623 9.0891ZM10.7623 8.13911L10.5842 7.96369V7.96369L10.7623 8.13911ZM11.6979 8.13911L11.876 7.96369L11.876 7.96369L11.6979 8.13911ZM12.065 8.51187L11.8869 8.68729C11.9581 8.75959 12.0659 8.78168 12.1598 8.74321C12.2537 8.70474 12.315 8.61334 12.315 8.51187H12.065ZM4.83675 7.98127L5.01487 8.15669L4.83675 7.98127ZM3.90117 7.98127L3.72305 8.15669H3.72305L3.90117 7.98127ZM4.83675 7.03128L4.65862 7.20671L4.83675 7.03128ZM3.3163 5.48742L3.13818 5.66285V5.66285L3.3163 5.48742ZM2.38072 5.48742L2.55884 5.66285H2.55884L2.38072 5.48742ZM0.860269 7.03128L0.682147 6.85586H0.682147L0.860269 7.03128ZM0.860269 7.98127L0.682147 8.15669H0.682147L0.860269 7.98127ZM1.79585 7.98127L1.97397 8.15669H1.97397L1.79585 7.98127ZM2.20065 7.57024H2.45065C2.45065 7.46877 2.38932 7.37737 2.29543 7.3389C2.20155 7.30043 2.09372 7.32253 2.02252 7.39482L2.20065 7.57024ZM3.53398 7.60843L3.7121 7.433C3.64091 7.36071 3.53308 7.33862 3.43919 7.37709C3.3453 7.41556 3.28398 7.50696 3.28398 7.60843H3.53398ZM5.35276 1.75009C4.8465 1.75009 4.4361 2.1605 4.4361 2.66676H4.9361C4.9361 2.43664 5.12264 2.25009 5.35276 2.25009V1.75009ZM9.14795 1.75009H5.35276V2.25009H9.14795V1.75009ZM13.6484 6.30567C13.6484 3.80312 11.6468 1.75009 9.14795 1.75009V2.25009C11.3631 2.25009 13.1484 4.07169 13.1484 6.30567H13.6484ZM13.6484 8.55023V6.30567H13.1484V8.55023H13.6484ZM13.5765 8.72565L13.9814 8.31453L13.6251 7.96369L13.2202 8.3748L13.5765 8.72565ZM13.9814 8.31453C14.1418 8.15164 14.4003 8.15164 14.5607 8.31453L14.9169 7.96369C14.5606 7.60192 13.9814 7.60192 13.6251 7.96369L13.9814 8.31453ZM14.5607 8.31453C14.7232 8.47955 14.7232 8.74866 14.5607 8.91368L14.9169 9.26452C15.2711 8.90487 15.2711 8.32334 14.9169 7.96369L14.5607 8.31453ZM14.5607 8.91368L13.0402 10.4575L13.3965 10.8084L14.9169 9.26452L14.5607 8.91368ZM13.0402 10.4575C12.8798 10.6204 12.6213 10.6204 12.4609 10.4575L12.1047 10.8084C12.4609 11.1701 13.0402 11.1701 13.3965 10.8084L13.0402 10.4575ZM12.4609 10.4575L10.9405 8.91368L10.5842 9.26452L12.1047 10.8084L12.4609 10.4575ZM10.9405 8.91368C10.7779 8.74866 10.7779 8.47955 10.9405 8.31453L10.5842 7.96369C10.23 8.32334 10.23 8.90487 10.5842 9.26452L10.9405 8.91368ZM10.9405 8.31453C11.1009 8.15164 11.3594 8.15164 11.5198 8.31453L11.876 7.96369C11.5198 7.60192 10.9405 7.60192 10.5842 7.96369L10.9405 8.31453ZM11.5198 8.31453L11.8869 8.68729L12.2431 8.33645L11.876 7.96369L11.5198 8.31453ZM11.815 6.30567V8.51187H12.315V6.30567H11.815ZM9.14795 3.58343C10.608 3.58343 11.815 4.78921 11.815 6.30567H12.315C12.315 4.5198 10.8909 3.08343 9.14795 3.08343V3.58343ZM5.35276 3.58343H9.14795V3.08343H5.35276V3.58343ZM4.4361 2.66676C4.4361 3.17302 4.8465 3.58343 5.35276 3.58343V3.08343C5.12264 3.08343 4.9361 2.89688 4.9361 2.66676H4.4361ZM4.65862 7.80585C4.4982 7.96874 4.23971 7.96874 4.07929 7.80585L3.72305 8.15669C4.07933 8.51846 4.65858 8.51846 5.01487 8.15669L4.65862 7.80585ZM4.65862 7.20671C4.82114 7.37172 4.82114 7.64083 4.65862 7.80585L5.01487 8.15669C5.36906 7.79705 5.36906 7.21551 5.01487 6.85586L4.65862 7.20671ZM3.13818 5.66285L4.65862 7.20671L5.01487 6.85586L3.49442 5.312L3.13818 5.66285ZM2.55884 5.66285C2.71926 5.49995 2.97775 5.49995 3.13818 5.66285L3.49442 5.312C3.13814 4.95023 2.55888 4.95023 2.2026 5.312L2.55884 5.66285ZM1.03839 7.20671L2.55884 5.66285L2.2026 5.312L0.682147 6.85586L1.03839 7.20671ZM1.03839 7.80585C0.875875 7.64083 0.875875 7.37172 1.03839 7.20671L0.682147 6.85586C0.327956 7.21551 0.327956 7.79705 0.682147 8.15669L1.03839 7.80585ZM1.61773 7.80585C1.4573 7.96874 1.19881 7.96874 1.03839 7.80585L0.682147 8.15669C1.03843 8.51846 1.61769 8.51846 1.97397 8.15669L1.61773 7.80585ZM2.02252 7.39482L1.61773 7.80585L1.97397 8.15669L2.37877 7.74566L2.02252 7.39482ZM2.45065 9.81487V7.57024H1.95065V9.81487H2.45065ZM6.45104 13.8705C4.23587 13.8705 2.45065 12.0489 2.45065 9.81487H1.95065C1.95065 12.3174 3.95222 14.3705 6.45104 14.3705V13.8705ZM10.2462 13.8705H6.45104V14.3705H10.2462V13.8705ZM10.6629 13.4538C10.6629 13.6839 10.4764 13.8705 10.2462 13.8705V14.3705C10.7525 14.3705 11.1629 13.96 11.1629 13.4538H10.6629ZM10.2462 13.0371C10.4764 13.0371 10.6629 13.2237 10.6629 13.4538H11.1629C11.1629 12.9475 10.7525 12.5371 10.2462 12.5371V13.0371ZM6.45104 13.0371H10.2462V12.5371H6.45104V13.0371ZM3.28398 9.81487C3.28398 11.6007 4.70815 13.0371 6.45104 13.0371V12.5371C4.99097 12.5371 3.78398 11.3313 3.78398 9.81487H3.28398ZM3.28398 7.60843V9.81487H3.78398V7.60843H3.28398ZM4.07929 7.80585L3.7121 7.433L3.35586 7.78385L3.72305 8.15669L4.07929 7.80585Z" fill="#042548"/>
</g>
</g>
</svg>
