<svg width="16" height="17" viewBox="0 0 16 17" fill="none" xmlns="http://www.w3.org/2000/svg">
<path d="M14.6667 6.50008V5.83341C14.6667 5.46675 14.3667 5.16675 14 5.16675C13.6333 5.16675 13.3333 5.46675 13.3333 5.83341V6.50008H12.6667C12.3 6.50008 12 6.80008 12 7.16675C12 7.53342 12.3 7.83342 12.6667 7.83342H13.3333V8.50008C13.3333 8.86675 13.6333 9.16675 14 9.16675C14.3667 9.16675 14.6667 8.86675 14.6667 8.50008V7.83342H15.3333C15.7 7.83342 16 7.53342 16 7.16675C16 6.80008 15.7 6.50008 15.3333 6.50008H14.6667Z" fill="white"/>
<path d="M5.33332 8.50008C6.80666 8.50008 7.99999 7.30675 7.99999 5.83341C7.99999 4.36008 6.80666 3.16675 5.33332 3.16675C3.85999 3.16675 2.66666 4.36008 2.66666 5.83341C2.66666 7.30675 3.85999 8.50008 5.33332 8.50008Z" fill="white"/>
<path d="M5.33333 9.16675C3.55333 9.16675 0 10.0601 0 11.8334V13.8334H10.6667V11.8334C10.6667 10.0601 7.11333 9.16675 5.33333 9.16675Z" fill="white"/>
<path d="M8.34 3.2002C8.95333 3.90686 9.33333 4.82686 9.33333 5.83353C9.33333 6.8402 8.95333 7.7602 8.34 8.46686C9.64666 8.3002 10.6667 7.19353 10.6667 5.83353C10.6667 4.47353 9.64666 3.36686 8.34 3.2002Z" fill="white"/>
<path d="M11.02 9.71997C11.6133 10.2733 12 10.9666 12 11.8333V13.8333H13.3333V11.8333C13.3333 10.8666 12.2733 10.16 11.02 9.71997Z" fill="white"/>
</svg>
