<svg width="16" height="16" viewBox="0 0 16 16" fill="none" xmlns="http://www.w3.org/2000/svg">
<path d="M7.99334 1.33472C4.31334 1.33472 1.33334 4.32138 1.33334 8.00138C1.33334 11.6814 4.31334 14.6681 7.99334 14.6681C11.68 14.6681 14.6667 11.6814 14.6667 8.00138C14.6667 4.32138 11.68 1.33472 7.99334 1.33472ZM12.6133 5.33472H10.6467C10.4333 4.50138 10.1267 3.70138 9.72668 2.96138C10.9533 3.38138 11.9733 4.23472 12.6133 5.33472ZM8.00001 2.69472C8.55334 3.49472 8.98668 4.38138 9.27334 5.33472H6.72668C7.01334 4.38138 7.44668 3.49472 8.00001 2.69472ZM2.84001 9.33472C2.73334 8.90805 2.66668 8.46138 2.66668 8.00138C2.66668 7.54138 2.73334 7.09472 2.84001 6.66805H5.09334C5.04001 7.10805 5.00001 7.54805 5.00001 8.00138C5.00001 8.45472 5.04001 8.89472 5.09334 9.33472H2.84001ZM3.38668 10.6681H5.35334C5.56668 11.5014 5.87334 12.3014 6.27334 13.0414C5.04668 12.6214 4.02668 11.7747 3.38668 10.6681ZM5.35334 5.33472H3.38668C4.02668 4.22805 5.04668 3.38138 6.27334 2.96138C5.87334 3.70138 5.56668 4.50138 5.35334 5.33472ZM8.00001 13.3081C7.44668 12.508 7.01334 11.6214 6.72668 10.6681H9.27334C8.98668 11.6214 8.55334 12.508 8.00001 13.3081ZM9.56001 9.33472H6.44001C6.38001 8.89472 6.33334 8.45472 6.33334 8.00138C6.33334 7.54805 6.38001 7.10138 6.44001 6.66805H9.56001C9.62001 7.10138 9.66668 7.54805 9.66668 8.00138C9.66668 8.45472 9.62001 8.89472 9.56001 9.33472ZM9.72668 13.0414C10.1267 12.3014 10.4333 11.5014 10.6467 10.6681H12.6133C11.9733 11.7681 10.9533 12.6214 9.72668 13.0414ZM10.9067 9.33472C10.96 8.89472 11 8.45472 11 8.00138C11 7.54805 10.96 7.10805 10.9067 6.66805H13.16C13.2667 7.09472 13.3333 7.54138 13.3333 8.00138C13.3333 8.46138 13.2667 8.90805 13.16 9.33472H10.9067Z" fill="#00F6D2"/>
</svg>
