<svg width="16" height="16" viewBox="0 0 16 16" fill="none" xmlns="http://www.w3.org/2000/svg">
<path d="M3.32201 4.79966C4.12761 4.79966 4.78068 4.14659 4.78068 3.34099C4.78068 2.53539 4.12761 1.88232 3.32201 1.88232C2.51641 1.88232 1.86334 2.53539 1.86334 3.34099C1.86334 4.14659 2.51641 4.79966 3.32201 4.79966Z" fill="#00F6D2"/>
<path d="M6.15802 5.90459V13.9973H8.67069V9.99526C8.67069 8.93926 8.86935 7.91659 10.1787 7.91659C11.47 7.91659 11.486 9.12392 11.486 10.0619V13.9979H14V9.55992C14 7.37992 13.5307 5.70459 10.9827 5.70459C9.75936 5.70459 8.93935 6.37592 8.60402 7.01126H8.57002V5.90459H6.15802ZM2.06335 5.90459H4.58002V13.9973H2.06335V5.90459Z" fill="#00F6D2"/>
</svg>
