<svg width="24" height="24" viewBox="0 0 24 24" fill="none" xmlns="http://www.w3.org/2000/svg">
<path d="M5.51198 18.488C5.98974 18.9672 6.55737 19.3473 7.18234 19.6067C7.8073 19.8662 8.47731 19.9997 9.15398 19.9997C9.83064 19.9997 10.5006 19.8662 11.1256 19.6067C11.7506 19.3473 12.3182 18.9672 12.796 18.488C13.4694 17.818 13.9434 16.9741 14.1652 16.0504C14.387 15.1268 14.3478 14.1597 14.052 13.257C15.9927 11.326 17.9287 9.39032 19.86 7.44997C19.9049 7.4081 19.9406 7.35729 19.9647 7.30079C19.9888 7.2443 20.0008 7.18339 20 7.12197V4.46897C20.0018 4.40742 19.9902 4.34621 19.966 4.28958C19.9419 4.23295 19.9057 4.18224 19.86 4.14097C19.8186 4.09483 19.7676 4.05829 19.7106 4.03394C19.6536 4.00958 19.5919 3.99799 19.53 3.99997H16.877C16.8156 3.99912 16.7546 4.01114 16.6982 4.03525C16.6417 4.05937 16.5908 4.09504 16.549 4.13997C16.305 4.37497 16.127 4.56297 15.883 4.79697C15.8331 4.84658 15.7954 4.90707 15.7728 4.9737C15.7503 5.04032 15.7435 5.11127 15.753 5.18097C15.78 5.44397 15.808 5.64097 15.836 5.89397C15.48 5.93097 15.208 5.95897 14.843 5.98697C14.7352 5.99901 14.6347 6.04734 14.558 6.12402C14.4813 6.20071 14.433 6.30119 14.421 6.40897C14.393 6.76597 14.365 7.04697 14.327 7.40297C14.074 7.36597 13.877 7.34697 13.615 7.31897C13.5501 7.3115 13.4844 7.31783 13.4222 7.33753C13.36 7.35724 13.3026 7.38989 13.2539 7.43332C13.2051 7.47676 13.1662 7.53001 13.1395 7.58958C13.1128 7.64915 13.099 7.7137 13.099 7.77897V8.65597H12.236C12.115 8.65597 11.993 8.68697 11.908 8.78097C11.478 9.21197 11.173 9.50697 10.742 9.94797C9.83929 9.65219 8.87217 9.613 7.94851 9.83477C7.02485 10.0566 6.18096 10.5306 5.51098 11.204C5.0318 11.6817 4.65161 12.2494 4.39221 12.8743C4.1328 13.4993 3.99927 14.1693 3.99927 14.846C3.99927 15.5226 4.1328 16.1926 4.39221 16.8176C4.65161 17.4426 5.0318 18.0102 5.51098 18.488H5.51198ZM6.83398 15.178C6.96397 15.0467 7.1187 14.9424 7.28923 14.8713C7.45976 14.8001 7.6427 14.7635 7.82748 14.7635C8.01225 14.7635 8.19519 14.8001 8.36572 14.8713C8.53625 14.9424 8.69098 15.0467 8.82098 15.178C8.95244 15.308 9.0568 15.4628 9.12803 15.6334C9.19926 15.804 9.23594 15.9871 9.23594 16.172C9.23594 16.3569 9.19926 16.5399 9.12803 16.7105C9.0568 16.8812 8.95244 17.036 8.82098 17.166C8.69098 17.2973 8.53625 17.4015 8.36572 17.4727C8.19519 17.5438 8.01225 17.5804 7.82748 17.5804C7.6427 17.5804 7.45976 17.5438 7.28923 17.4727C7.1187 17.4015 6.96397 17.2973 6.83398 17.166C6.70267 17.036 6.59843 16.8812 6.52729 16.7107C6.45615 16.5402 6.41952 16.3572 6.41952 16.1725C6.41952 15.9877 6.45615 15.8048 6.52729 15.6342C6.59843 15.4637 6.70267 15.309 6.83398 15.179V15.178Z" fill="#00F6D2"/>
<path d="M5.51195 11.204C6.18193 10.5306 7.02582 10.0566 7.94948 9.83477C8.87315 9.613 9.84026 9.65219 10.743 9.94797C11.174 9.50697 11.478 9.21197 11.909 8.78097C11.994 8.68697 12.116 8.65597 12.237 8.65597H13.1V7.77797C13.1 7.49697 13.353 7.28097 13.616 7.31797C13.878 7.34697 14.075 7.36597 14.328 7.40297C14.366 7.04697 14.394 6.76597 14.422 6.40897C14.434 6.30119 14.4823 6.20071 14.559 6.12402C14.6357 6.04734 14.7362 5.99901 14.844 5.98697C15.209 5.95897 15.481 5.93097 15.837 5.89397C15.809 5.64097 15.781 5.44397 15.753 5.18097C15.7436 5.1112 15.7505 5.0402 15.7733 4.97356C15.796 4.90693 15.8339 4.84648 15.884 4.79697C16.128 4.56297 16.306 4.37497 16.55 4.14097C16.5917 4.09586 16.6425 4.06 16.699 4.03571C16.7555 4.01143 16.8165 3.99925 16.878 3.99997H19.531C19.662 3.99997 19.775 4.04697 19.859 4.13997L8.82095 15.18C8.69096 15.0487 8.53622 14.9444 8.36569 14.8733C8.19516 14.8021 8.01222 14.7655 7.82745 14.7655C7.64268 14.7655 7.45974 14.8021 7.28921 14.8733C7.11868 14.9444 6.96395 15.0487 6.83395 15.18C6.70264 15.31 6.5984 15.4647 6.52726 15.6352C6.45613 15.8058 6.4195 15.9887 6.4195 16.1735C6.4195 16.3582 6.45613 16.5412 6.52726 16.7117C6.5984 16.8822 6.70264 17.037 6.83395 17.167L5.51195 18.489C5.03278 18.0112 4.65259 17.4436 4.39318 16.8186C4.13377 16.1936 4.00024 15.5236 4.00024 14.847C4.00024 14.1703 4.13377 13.5003 4.39318 12.8753C4.65259 12.2504 5.03278 11.6827 5.51195 11.205V11.204Z" fill="#00F6D2"/>
</svg>
