<svg width="16" height="16" viewBox="0 0 16 16" fill="none" xmlns="http://www.w3.org/2000/svg">
<path d="M7.99331 1.33337C4.31331 1.33337 1.33331 4.32004 1.33331 8.00004C1.33331 11.68 4.31331 14.6667 7.99331 14.6667C11.68 14.6667 14.6666 11.68 14.6666 8.00004C14.6666 4.32004 11.68 1.33337 7.99331 1.33337ZM12.6133 5.33337H10.6466C10.4333 4.50004 10.1266 3.70004 9.72665 2.96004C10.9533 3.38004 11.9733 4.23337 12.6133 5.33337ZM7.99998 2.69337C8.55331 3.49337 8.98665 4.38004 9.27331 5.33337H6.72665C7.01331 4.38004 7.44665 3.49337 7.99998 2.69337ZM2.83998 9.33337C2.73331 8.90671 2.66665 8.46004 2.66665 8.00004C2.66665 7.54004 2.73331 7.09337 2.83998 6.66671H5.09331C5.03998 7.10671 4.99998 7.54671 4.99998 8.00004C4.99998 8.45337 5.03998 8.89337 5.09331 9.33337H2.83998ZM3.38665 10.6667H5.35331C5.56665 11.5 5.87331 12.3 6.27331 13.04C5.04665 12.62 4.02665 11.7734 3.38665 10.6667ZM5.35331 5.33337H3.38665C4.02665 4.22671 5.04665 3.38004 6.27331 2.96004C5.87331 3.70004 5.56665 4.50004 5.35331 5.33337ZM7.99998 13.3067C7.44665 12.5067 7.01331 11.62 6.72665 10.6667H9.27331C8.98665 11.62 8.55331 12.5067 7.99998 13.3067ZM9.55998 9.33337H6.43998C6.37998 8.89337 6.33331 8.45337 6.33331 8.00004C6.33331 7.54671 6.37998 7.10004 6.43998 6.66671H9.55998C9.61998 7.10004 9.66665 7.54671 9.66665 8.00004C9.66665 8.45337 9.61998 8.89337 9.55998 9.33337ZM9.72665 13.04C10.1266 12.3 10.4333 11.5 10.6466 10.6667H12.6133C11.9733 11.7667 10.9533 12.62 9.72665 13.04ZM10.9066 9.33337C10.96 8.89337 11 8.45337 11 8.00004C11 7.54671 10.96 7.10671 10.9066 6.66671H13.16C13.2666 7.09337 13.3333 7.54004 13.3333 8.00004C13.3333 8.46004 13.2666 8.90671 13.16 9.33337H10.9066Z" fill="white" fill-opacity="0.5"/>
</svg>
