<svg width="66" height="85" viewBox="0 0 66 85" fill="none" xmlns="http://www.w3.org/2000/svg">
<path d="M60.72 0H5.28C2.376 0 0 2.376 0 5.28V79.2C0 82.104 2.376 84.48 5.28 84.48H60.72C63.624 84.48 66 82.104 66 79.2V5.28C66 2.376 63.624 0 60.72 0ZM5.28 81.84C144.325 81.84 -17.9244 81.84 5.28 81.84V81.84Z" fill="#00F6D2" fill-opacity="0.1"/>
<path d="M60.72 0H5.28C2.376 0 0 2.376 0 5.28V79.2C0 82.104 2.376 84.48 5.28 84.48H60.72C63.624 84.48 66 82.104 66 79.2V5.28C66 2.376 63.624 0 60.72 0ZM63.36 79.2C63.36 80.6544 62.1744 81.84 60.72 81.84H5.28C3.82565 81.84 2.64 80.6544 2.64 79.2V5.28C2.64 3.82565 3.82565 2.64 5.28 2.64H60.72C62.1744 2.64 63.36 3.82565 63.36 5.28V79.2Z" fill="#00F6D2"/>
<path d="M13 67.1086C13 66.3796 13.591 65.7886 14.32 65.7886H51.2423C51.9713 65.7886 52.5623 66.3796 52.5623 67.1086C52.5623 67.8376 51.9713 68.4286 51.2423 68.4286H14.32C13.591 68.4286 13 67.8376 13 67.1086Z" fill="#00F6D2"/>
<path d="M13 57.7599C13 57.0309 13.591 56.4399 14.32 56.4399H51.2423C51.9713 56.4399 52.5623 57.0309 52.5623 57.7599C52.5623 58.489 51.9713 59.0799 51.2423 59.0799H14.32C13.591 59.0799 13 58.489 13 57.7599Z" fill="#00F6D2"/>
<path d="M16.1367 19.1357V29H19.9033C22.8633 29 24.6064 27.1611 24.6064 24.0303C24.6064 20.8994 22.8633 19.1357 19.9033 19.1357H16.1367ZM18.2012 20.8379H19.6572C21.4756 20.8379 22.501 21.9727 22.501 24.0371C22.501 26.1699 21.5029 27.291 19.6572 27.291H18.2012V20.8379ZM31.9893 29H34.1836L30.752 19.1357H28.3252L24.9004 29H27.0195L27.7715 26.6074H31.2373L31.9893 29ZM29.4805 21.0225H29.5283L30.793 25.0625H28.2158L29.4805 21.0225ZM35.1953 19.1357V29H37.2598V25.8896H39.1055C41.1836 25.8896 42.626 24.5361 42.626 22.5127C42.626 20.4824 41.2314 19.1357 39.208 19.1357H35.1953ZM37.2598 20.7695H38.6611C39.8438 20.7695 40.5273 21.3984 40.5273 22.5195C40.5273 23.6475 39.8369 24.2764 38.6543 24.2764H37.2598V20.7695ZM43.8496 19.1357V29H45.9141V25.8896H47.7598C49.8379 25.8896 51.2803 24.5361 51.2803 22.5127C51.2803 20.4824 49.8857 19.1357 47.8623 19.1357H43.8496ZM45.9141 20.7695H47.3154C48.498 20.7695 49.1816 21.3984 49.1816 22.5195C49.1816 23.6475 48.4912 24.2764 47.3086 24.2764H45.9141V20.7695Z" fill="#00F6D2"/>
</svg>
