<svg width="16" height="16" viewBox="0 0 16 16" fill="none" xmlns="http://www.w3.org/2000/svg">
<path d="M13.9647 5.5381C13.9579 5.03318 13.8634 4.53329 13.6853 4.06077C13.5309 3.6622 13.295 3.30024 12.9928 2.99799C12.6905 2.69574 12.3286 2.45987 11.93 2.30544C11.4635 2.13034 10.9708 2.03566 10.4727 2.02544C9.83132 1.99677 9.62799 1.98877 7.99999 1.98877C6.37199 1.98877 6.16332 1.98877 5.52665 2.02544C5.02876 2.03574 4.53622 2.13041 4.06999 2.30544C3.67136 2.45976 3.30933 2.6956 3.00707 2.99786C2.70482 3.30012 2.46898 3.66214 2.31465 4.06077C2.13921 4.52686 2.04473 5.01951 2.03532 5.51744C2.00665 6.15944 1.99799 6.36277 1.99799 7.99077C1.99799 9.61877 1.99799 9.82677 2.03532 10.4641C2.04532 10.9628 2.13932 11.4548 2.31465 11.9221C2.46924 12.3206 2.70525 12.6825 3.00761 12.9846C3.30997 13.2867 3.67203 13.5225 4.07065 13.6768C4.53561 13.8589 5.02823 13.9604 5.52732 13.9768C6.16932 14.0054 6.37265 14.0141 8.00065 14.0141C9.62865 14.0141 9.83732 14.0141 10.474 13.9768C10.9721 13.967 11.4649 13.8725 11.9313 13.6974C12.3298 13.5428 12.6917 13.3069 12.9939 13.0047C13.2961 12.7024 13.532 12.3406 13.6867 11.9421C13.862 11.4754 13.956 10.9834 13.966 10.4841C13.9947 9.84277 14.0033 9.63944 14.0033 8.01077C14.002 6.38277 14.002 6.1761 13.9647 5.5381ZM7.99599 11.0694C6.29332 11.0694 4.91399 9.6901 4.91399 7.98744C4.91399 6.28477 6.29332 4.90544 7.99599 4.90544C8.81338 4.90544 9.5973 5.23015 10.1753 5.80813C10.7533 6.38612 11.078 7.17004 11.078 7.98744C11.078 8.80483 10.7533 9.58875 10.1753 10.1667C9.5973 10.7447 8.81338 11.0694 7.99599 11.0694ZM11.2007 5.5101C11.1063 5.51019 11.0128 5.49166 10.9255 5.45558C10.8383 5.41949 10.759 5.36656 10.6923 5.29981C10.6255 5.23305 10.5726 5.15379 10.5365 5.06656C10.5004 4.97933 10.4819 4.88584 10.482 4.79144C10.482 4.6971 10.5006 4.60369 10.5367 4.51654C10.5728 4.42939 10.6257 4.3502 10.6924 4.2835C10.7591 4.21679 10.8383 4.16388 10.9254 4.12778C11.0126 4.09168 11.106 4.0731 11.2003 4.0731C11.2947 4.0731 11.3881 4.09168 11.4752 4.12778C11.5624 4.16388 11.6416 4.21679 11.7083 4.2835C11.775 4.3502 11.8279 4.42939 11.864 4.51654C11.9001 4.60369 11.9187 4.6971 11.9187 4.79144C11.9187 5.18877 11.5973 5.5101 11.2007 5.5101Z" fill="#00F6D2"/>
<path d="M7.99602 9.98935C9.10169 9.98935 9.99802 9.09303 9.99802 7.98735C9.99802 6.88168 9.10169 5.98535 7.99602 5.98535C6.89034 5.98535 5.99402 6.88168 5.99402 7.98735C5.99402 9.09303 6.89034 9.98935 7.99602 9.98935Z" fill="#00F6D2"/>
</svg>
