<svg xmlns="http://www.w3.org/2000/svg" width="16" height="16" viewBox="0 0 16 16">
    <g fill="none" fill-rule="evenodd">
        <g fill="#FF746B" fill-rule="nonzero">
            <g>
                <path d="M9.426 8l4.279-4.278c.393-.394.393-1.033 0-1.427-.394-.393-1.033-.393-1.427 0L8 6.575l-4.279-4.28c-.393-.393-1.032-.393-1.426 0-.393.394-.393 1.033 0 1.427L6.574 8l-4.279 4.28c-.393.393-.393 1.032 0 1.426.394.393 1.033.393 1.426 0L8 9.426l4.278 4.28c.394.393 1.033.393 1.427 0 .393-.394.393-1.033 0-1.427L9.426 8.001z" transform="translate(-871 -568) translate(90 432) translate(781 136)"/>
            </g>
        </g>
    </g>
</svg>
