<svg width="28" height="28" viewBox="0 0 28 28" fill="none" xmlns="http://www.w3.org/2000/svg">
<path fill-rule="evenodd" clip-rule="evenodd" d="M5.6459 15.6845L5.66944 16.7083L5.70003 18.0389L7.03582 17.0205L7.74301 16.4814L8.61702 16.6454C9.3037 16.7742 10.0244 16.8431 10.7692 16.8431C16.0982 16.8431 19.5385 13.538 19.5385 10.4215C19.5385 7.30505 16.0982 4 10.7692 4C5.44027 4 2 7.30505 2 10.4215C2 12.1436 2.96574 13.8457 4.80145 15.1051L5.6459 15.6845ZM5.75684 20.5104L5.64963 20.5922L4.85292 21.1995L4.41512 21.5333C4.1552 21.7314 3.78024 21.5511 3.77273 21.2244L3.76007 20.674L3.73705 19.6725L3.73395 19.5377L3.66997 16.7543C1.42025 15.2108 0 12.9459 0 10.4215C0 5.77045 4.82155 2 10.7692 2C16.7169 2 21.5385 5.77045 21.5385 10.4215C21.5385 15.0726 16.7169 18.8431 10.7692 18.8431C9.90111 18.8431 9.05698 18.7628 8.24834 18.6111L5.75684 20.5104ZM12.6293 18.718C12.0251 18.8002 11.4037 18.8431 10.7694 18.8431C10.4692 18.8431 10.1719 18.8335 9.87793 18.8147C11.6299 21.0088 14.6832 22.4616 18.1567 22.4616C19.004 22.4616 19.8262 22.3752 20.6106 22.2126L22.819 23.8462L22.9202 23.9211L23.7149 24.5089L24.1681 24.8442C24.4292 25.0373 24.7995 24.8552 24.8059 24.5305L24.817 23.9669L24.8365 22.9786L24.839 22.8528L24.8893 20.3117C26.8038 18.8618 27.9998 16.8006 27.9998 14.5139C27.9998 10.7733 24.7995 7.63633 20.4891 6.79065C20.928 7.50784 21.2409 8.28118 21.4054 9.09314C24.2687 10.088 25.9998 12.3386 25.9998 14.5139C25.9998 16.0601 25.1958 17.5707 23.6818 18.7174L22.9088 19.3028L22.8896 20.2722L22.8675 21.3944L21.8 20.6047L21.0808 20.0727L20.2048 20.2542C19.5542 20.389 18.868 20.4616 18.1567 20.4616C15.8809 20.4616 13.986 19.7641 12.6293 18.718ZM10.7688 13.8462H5.21191L10.7677 4.36926L16.3258 13.8462H10.7688ZM7.93332 12.2643H10.7688H13.6043L10.7677 7.3481L7.93332 12.2643ZM9.20314 11.5953L10.7575 11.5924L12.3119 11.5953L10.7575 8.75485L9.20314 11.5953Z" fill="#00F6D2"/>
</svg>