<svg xmlns="http://www.w3.org/2000/svg" width="22" height="22" viewBox="0 0 22 22">
    <defs>
        <radialGradient id="l2ackrk0oa" cx="50%" cy="50%" r="41.403%" fx="50%" fy="50%">
            <stop offset="0%" stop-color="#53AE94"/>
            <stop offset="100%" stop-color="#0B2B4D"/>
        </radialGradient>
    </defs>
    <g fill="none" fill-rule="evenodd">
        <g>
            <g>
                <g transform="translate(-341 -324) translate(321 301) translate(20 23)">
                    <circle cx="11" cy="11" r="10" fill="url(#l2ackrk0oa)" stroke="#53AE94" stroke-width="2"/>
                    <g fill="#FFF" fill-rule="nonzero">
                        <path d="M5.964 3.647V2.484h2.658V.714H1.385v1.77h2.658v1.162c-2.16.099-3.784.527-3.784 1.04 0 .512 1.625.94 3.784 1.04v3.722h1.922V5.725c2.156-.1 3.777-.527 3.777-1.04 0-.511-1.62-.939-3.777-1.038m0 1.763v-.001c-.054.003-.333.02-.953.02-.496 0-.845-.014-.968-.02v.001C2.135 5.325.71 4.993.71 4.595c0-.397 1.425-.73 3.333-.814V5.08c.125.009.482.03.976.03.593 0 .89-.025.945-.03V3.78c1.905.085 3.326.418 3.326.814 0 .396-1.422.73-3.326.814" transform="translate(6 6)"/>
                    </g>
                </g>
            </g>
        </g>
    </g>
</svg>
