<svg xmlns="http://www.w3.org/2000/svg" width="60" height="60" viewBox="0 0 60 60">
    <g fill="none" fill-rule="evenodd" opacity=".3">
        <g fill="#FFF">
            <g>
                <g>
                    <path d="M33.286 38.464c0-.39-.319-.707-.7-.707H4.945s7.235-7.448 7.62-8.744c.385-1.297-1.314-3.535-3.28-3.278-1.967.257-12 12.022-12 14.641 0 2.62 10.943 14.62 12.318 15.219 1.375.598 3.242-1.147 2.962-2.999-.28-1.852-7.62-9.6-7.62-9.6h27.64c.386 0 .7-.313.7-.707v-3.825z" transform="translate(-517 -270) translate(517 270) translate(4) matrix(0 -1 -1 0 56 56)"/>
                    <path d="M54.714 15.75c0-.39-.318-.707-.7-.707h-27.64s7.236-7.448 7.62-8.745c.385-1.296-1.313-3.535-3.28-3.278-1.966.257-12 12.023-12 14.642 0 2.62 10.943 14.62 12.319 15.218 1.375.599 3.242-1.146 2.962-2.998-.28-1.852-7.62-9.6-7.62-9.6h27.639c.387 0 .7-.313.7-.707v-3.826z" transform="translate(-517 -270) translate(517 270) translate(4) rotate(90 36.714 18)"/>
                </g>
            </g>
        </g>
    </g>
</svg>
