<svg width="16" height="16" viewBox="0 0 16 16" fill="none" xmlns="http://www.w3.org/2000/svg">
<path d="M1.51198 14.488C1.98974 14.9672 2.55737 15.3473 3.18234 15.6067C3.8073 15.8662 4.47731 15.9997 5.15398 15.9997C5.83064 15.9997 6.50065 15.8662 7.12561 15.6067C7.75058 15.3473 8.31821 14.9672 8.79597 14.488C9.46937 13.818 9.9434 12.9741 10.1652 12.0504C10.387 11.1268 10.3478 10.1597 10.052 9.25697C11.9927 7.32599 13.9287 5.39032 15.86 3.44997C15.9049 3.4081 15.9406 3.35729 15.9647 3.30079C15.9888 3.2443 16.0008 3.18339 16 3.12197V0.468974C16.0018 0.407424 15.9902 0.346213 15.966 0.289579C15.9419 0.232945 15.9057 0.18224 15.86 0.140974C15.8186 0.0948266 15.7676 0.0582931 15.7106 0.0339357C15.6536 0.00957834 15.5919 -0.00201308 15.53 -2.56594e-05H12.877C12.8156 -0.000875952 12.7546 0.0111416 12.6982 0.0352535C12.6417 0.0593655 12.5908 0.0950377 12.549 0.139974C12.305 0.374974 12.127 0.562974 11.883 0.796974C11.8331 0.846576 11.7954 0.907067 11.7728 0.973696C11.7503 1.04032 11.7435 1.11127 11.753 1.18097C11.78 1.44397 11.808 1.64097 11.836 1.89397C11.48 1.93097 11.208 1.95897 10.843 1.98697C10.7352 1.99901 10.6347 2.04734 10.558 2.12402C10.4813 2.20071 10.433 2.30119 10.421 2.40897C10.393 2.76597 10.365 3.04697 10.327 3.40297C10.074 3.36597 9.87698 3.34697 9.61497 3.31897C9.55013 3.3115 9.48443 3.31783 9.4222 3.33753C9.35997 3.35724 9.3026 3.38989 9.25388 3.43332C9.20515 3.47676 9.16616 3.53001 9.13946 3.58958C9.11277 3.64915 9.09897 3.7137 9.09898 3.77897V4.65597H8.23598C8.11497 4.65597 7.99298 4.68697 7.90798 4.78097C7.47798 5.21197 7.17298 5.50697 6.74198 5.94797C5.83929 5.65219 4.87217 5.613 3.94851 5.83477C3.02485 6.05655 2.18096 6.53058 1.51098 7.20397C1.0318 7.68174 0.651613 8.24937 0.392205 8.87434C0.132798 9.4993 -0.000732422 10.1693 -0.000732422 10.846C-0.000732422 11.5226 0.132798 12.1926 0.392205 12.8176C0.651613 13.4426 1.0318 14.0102 1.51098 14.488H1.51198ZM2.83398 11.178C2.96397 11.0467 3.1187 10.9424 3.28923 10.8713C3.45976 10.8001 3.6427 10.7635 3.82748 10.7635C4.01225 10.7635 4.19519 10.8001 4.36572 10.8713C4.53625 10.9424 4.69098 11.0467 4.82098 11.178C4.95244 11.308 5.0568 11.4628 5.12803 11.6334C5.19926 11.804 5.23594 11.9871 5.23594 12.172C5.23594 12.3569 5.19926 12.5399 5.12803 12.7105C5.0568 12.8812 4.95244 13.036 4.82098 13.166C4.69098 13.2973 4.53625 13.4015 4.36572 13.4727C4.19519 13.5438 4.01225 13.5804 3.82748 13.5804C3.6427 13.5804 3.45976 13.5438 3.28923 13.4727C3.1187 13.4015 2.96397 13.2973 2.83398 13.166C2.70267 13.036 2.59843 12.8812 2.52729 12.7107C2.45615 12.5402 2.41952 12.3572 2.41952 12.1725C2.41952 11.9877 2.45615 11.8048 2.52729 11.6342C2.59843 11.4637 2.70267 11.309 2.83398 11.179V11.178Z" fill="#00F6D2"/>
</svg>
