<svg width="327" height="324" viewBox="0 0 327 324" fill="none" xmlns="http://www.w3.org/2000/svg">
<g mask="url(#mask0_1166_4660)">
<g opacity="0.45">
<path fill-rule="evenodd" clip-rule="evenodd" d="M164.457 1.48901L305.06 243.414H23.7979L164.457 1.48901Z" stroke="url(#paint0_linear_1166_4660)"/>
<path fill-rule="evenodd" clip-rule="evenodd" d="M164.457 1.48901L305.06 243.414H23.7979L164.457 1.48901Z" stroke="url(#paint1_linear_1166_4660)"/>
<g style="mix-blend-mode:lighten">
<path fill-rule="evenodd" clip-rule="evenodd" d="M164.401 323.72L23.7976 81.7947L305.06 81.7947L164.401 323.72Z" stroke="url(#paint2_linear_1166_4660)"/>
</g>
<g style="mix-blend-mode:lighten">
<path fill-rule="evenodd" clip-rule="evenodd" d="M164.401 323.72L23.7976 81.7947L305.06 81.7947L164.401 323.72Z" stroke="url(#paint3_linear_1166_4660)"/>
</g>
<path fill-rule="evenodd" clip-rule="evenodd" d="M83.5605 23.155L325.934 162.337L82.861 302.675L83.5605 23.155Z" stroke="url(#paint4_linear_1166_4660)"/>
<path fill-rule="evenodd" clip-rule="evenodd" d="M83.5605 23.155L325.934 162.337L82.861 302.675L83.5605 23.155Z" stroke="url(#paint5_linear_1166_4660)"/>
<g style="mix-blend-mode:lighten">
<path fill-rule="evenodd" clip-rule="evenodd" d="M244.48 301.978L2.1065 162.796L245.179 22.4578L244.48 301.978Z" stroke="url(#paint6_linear_1166_4660)"/>
</g>
<g style="mix-blend-mode:lighten">
<path fill-rule="evenodd" clip-rule="evenodd" d="M244.48 301.978L2.1065 162.796L245.179 22.4578L244.48 301.978Z" stroke="url(#paint7_linear_1166_4660)"/>
</g>
</g>
<path d="M163.248 188.793H210.092L163.26 107.627V58.447L255.056 214.91H163.242L163.248 188.793Z" fill="#0B76FF"/>
<path d="M163.242 188.793H116.392L163.224 107.627V58.447L71.4277 214.91H163.242V188.793Z" fill="#24C1FF"/>
<path d="M163.242 126.129V178.598L134.551 178.652L163.242 126.129Z" fill="#39FFF2"/>
<path d="M163.241 126.129V178.598L191.932 178.652L163.241 126.129Z" fill="#00E2C2"/>
<path d="M50.7734 107.393L163.241 159.11V164.521L50.7734 140.027V107.393Z" fill="url(#paint8_linear_1166_4660)"/>
<path d="M275.939 92.374L163.241 159.11V160.914L275.939 113.916V92.374Z" fill="url(#paint9_linear_1166_4660)"/>
<path d="M275.939 157.006L163.241 164.521V162.718L275.939 135.464V157.006Z" fill="url(#paint10_linear_1166_4660)"/>
<path d="M275.939 113.916L163.241 160.914V162.718L275.939 135.464V113.916Z" fill="url(#paint11_linear_1166_4660)"/>
<path fill-rule="evenodd" clip-rule="evenodd" d="M224.844 253.512H228.237V234.263H223.452L218.172 246.933L212.922 234.264H208.136V253.512H211.53V239.227L217.447 253.512H218.897L224.844 239.227V253.512ZM106.149 253.512H98.0947V234.264H105.934C107.351 234.264 108.463 234.73 109.267 235.664C110.072 236.596 110.474 237.765 110.474 239.17C110.474 240.324 110.207 241.3 109.674 242.099C109.14 242.897 108.483 243.393 107.702 243.585C108.562 243.739 109.292 244.273 109.889 245.187C110.486 246.1 110.785 247.144 110.785 248.317C110.785 249.857 110.375 251.107 109.555 252.069C108.734 253.031 107.598 253.512 106.149 253.512ZM104.938 241.832C105.442 241.832 105.838 241.647 106.125 241.277C106.411 240.907 106.555 240.431 106.555 239.846C106.555 239.246 106.411 238.761 106.125 238.391C105.838 238.021 105.442 237.837 104.938 237.837H101.721V241.831H104.938V241.832ZM106.66 249.592C106.327 249.978 105.864 250.17 105.272 250.17H101.721V245.802H105.272C105.864 245.802 106.327 246.011 106.66 246.428C106.993 246.845 107.16 247.361 107.16 247.975C107.16 248.667 106.993 249.206 106.66 249.592ZM145.896 253.512H133.81V234.264H145.897V237.837H136.905V241.929H145.712V245.5H136.905V249.939H145.897V253.512H145.896ZM182.824 253.512H186.682H186.683L179.083 234.264H174.848L167.249 253.512H171.106L172.528 249.818H181.404L182.824 253.512ZM179.842 245.854L176.965 238.27L174.089 245.854H179.842Z" fill="#25C1FF"/>
<path d="M228.237 253.512V254.012H228.737V253.512H228.237ZM224.844 253.512H224.344V254.012H224.844V253.512ZM228.237 234.263H228.737V233.763H228.237V234.263ZM223.452 234.263V233.763H223.118L222.99 234.071L223.452 234.263ZM218.172 246.933L217.71 247.125L218.17 248.236L218.633 247.126L218.172 246.933ZM212.922 234.264L213.384 234.073L213.256 233.764H212.922V234.264ZM208.136 234.264V233.764H207.636V234.264H208.136ZM208.136 253.512H207.636V254.012H208.136V253.512ZM211.53 253.512V254.012H212.03V253.512H211.53ZM211.53 239.227L211.992 239.036L211.03 239.227H211.53ZM217.447 253.512L216.985 253.704L217.113 254.012H217.447V253.512ZM218.897 253.512V254.012H219.23L219.358 253.704L218.897 253.512ZM224.844 239.227H225.344L224.382 239.035L224.844 239.227ZM98.0947 253.512H97.5947V254.012H98.0947V253.512ZM98.0947 234.264V233.764H97.5947V234.264H98.0947ZM109.267 235.664L108.888 235.991L108.888 235.991L109.267 235.664ZM109.674 242.099L110.089 242.377L110.09 242.377L109.674 242.099ZM107.702 243.585L107.582 243.1L107.614 244.077L107.702 243.585ZM109.889 245.187L109.47 245.461L109.47 245.461L109.889 245.187ZM109.555 252.069L109.935 252.394L109.935 252.394L109.555 252.069ZM106.125 241.277L106.52 241.584L106.52 241.583L106.125 241.277ZM104.938 241.832H104.438V242.332H104.938V241.832ZM106.125 238.391L106.52 238.086L106.52 238.085L106.125 238.391ZM101.721 237.837V237.337H101.221V237.837H101.721ZM101.721 241.831H101.221V242.331H101.721V241.831ZM104.938 241.831H105.438V241.331H104.938V241.831ZM106.66 249.592L107.038 249.919L106.66 249.592ZM101.721 250.17H101.221V250.67H101.721V250.17ZM101.721 245.802V245.302H101.221V245.802H101.721ZM106.66 246.428L107.05 246.116L106.66 246.428ZM133.81 253.512H133.31V254.012H133.81V253.512ZM133.81 234.264V233.764H133.31V234.264H133.81ZM145.897 234.264H146.397V233.764H145.897V234.264ZM145.897 237.837V238.337H146.397V237.837H145.897ZM136.905 237.837V237.337H136.405V237.837H136.905ZM136.905 241.929H136.405V242.429H136.905V241.929ZM145.712 241.929H146.212V241.429H145.712V241.929ZM145.712 245.5V246H146.212V245.5H145.712ZM136.905 245.5V245H136.405V245.5H136.905ZM136.905 249.939H136.405V250.439H136.905V249.939ZM145.897 249.939H146.397V249.439H145.897V249.939ZM145.897 253.512V254.012H146.397V253.512H145.897ZM182.824 253.512L182.357 253.692L182.48 254.012H182.824V253.512ZM186.683 253.512V254.012H187.418L187.148 253.329L186.683 253.512ZM179.083 234.264L179.548 234.081L179.423 233.764H179.083V234.264ZM174.848 234.264V233.764H174.508L174.383 234.081L174.848 234.264ZM167.249 253.512L166.784 253.329L166.514 254.012H167.249V253.512ZM171.106 253.512V254.012H171.449L171.572 253.692L171.106 253.512ZM172.528 249.818V249.318H172.184L172.061 249.639L172.528 249.818ZM181.404 249.818L181.87 249.639L181.747 249.318H181.404V249.818ZM176.965 238.27L177.432 238.093L176.965 236.86L176.497 238.093L176.965 238.27ZM179.842 245.854V246.354H180.566L180.309 245.677L179.842 245.854ZM174.089 245.854L173.621 245.677L173.364 246.354H174.089V245.854ZM228.237 253.012H224.844V254.012H228.237V253.012ZM227.737 234.263V253.512H228.737V234.263H227.737ZM223.452 234.763H228.237V233.763H223.452V234.763ZM218.633 247.126L223.913 234.456L222.99 234.071L217.71 246.741L218.633 247.126ZM212.46 234.456L217.71 247.125L218.634 246.742L213.384 234.073L212.46 234.456ZM208.136 234.764H212.922V233.764H208.136V234.764ZM208.636 253.512V234.264H207.636V253.512H208.636ZM211.53 253.012H208.136V254.012H211.53V253.012ZM211.03 239.227V253.512H212.03V239.227H211.03ZM217.909 253.321L211.992 239.036L211.068 239.419L216.985 253.704L217.909 253.321ZM218.897 253.012H217.447V254.012H218.897V253.012ZM224.382 239.035L218.435 253.32L219.358 253.704L225.305 239.419L224.382 239.035ZM225.344 253.512V239.227H224.344V253.512H225.344ZM98.0947 254.012H106.149V253.012H98.0947V254.012ZM97.5947 234.264V253.512H98.5947V234.264H97.5947ZM105.934 233.764H98.0947V234.764H105.934V233.764ZM109.646 235.338C108.732 234.276 107.472 233.764 105.934 233.764V234.764C107.23 234.764 108.194 235.184 108.888 235.991L109.646 235.338ZM110.974 239.17C110.974 237.663 110.54 236.373 109.645 235.337L108.888 235.991C109.604 236.819 109.974 237.867 109.974 239.17H110.974ZM110.09 242.377C110.688 241.48 110.974 240.403 110.974 239.17H109.974C109.974 240.246 109.726 241.12 109.258 241.822L110.09 242.377ZM107.821 244.071C108.746 243.843 109.5 243.257 110.089 242.377L109.258 241.821C108.779 242.537 108.219 242.943 107.582 243.1L107.821 244.071ZM110.307 244.914C109.655 243.915 108.817 243.277 107.79 243.093L107.614 244.077C108.306 244.201 108.929 244.632 109.47 245.461L110.307 244.914ZM111.285 248.317C111.285 247.055 110.961 245.914 110.307 244.914L109.47 245.461C110.01 246.286 110.285 247.234 110.285 248.317H111.285ZM109.935 252.394C110.848 251.323 111.285 249.949 111.285 248.317H110.285C110.285 249.765 109.901 250.892 109.174 251.745L109.935 252.394ZM106.149 254.012C107.72 254.012 109.005 253.484 109.935 252.394L109.174 251.745C108.463 252.578 107.475 253.012 106.149 253.012V254.012ZM105.73 240.971C105.546 241.208 105.301 241.332 104.938 241.332V242.332C105.582 242.332 106.13 242.086 106.52 241.584L105.73 240.971ZM106.055 239.846C106.055 240.348 105.933 240.708 105.729 240.972L106.52 241.583C106.889 241.106 107.055 240.515 107.055 239.846H106.055ZM105.729 238.697C105.931 238.958 106.055 239.326 106.055 239.846H107.055C107.055 239.167 106.891 238.565 106.52 238.086L105.729 238.697ZM104.938 238.337C105.302 238.337 105.546 238.461 105.73 238.698L106.52 238.085C106.129 237.582 105.582 237.337 104.938 237.337V238.337ZM101.721 238.337H104.938V237.337H101.721V238.337ZM102.221 241.831V237.837H101.221V241.831H102.221ZM104.938 241.331H101.721V242.331H104.938V241.331ZM105.438 241.832V241.831H104.438V241.832H105.438ZM105.272 250.67C105.982 250.67 106.594 250.434 107.038 249.919L106.281 249.266C106.059 249.523 105.745 249.67 105.272 249.67V250.67ZM101.721 250.67H105.272V249.67H101.721V250.67ZM101.221 245.802V250.17H102.221V245.802H101.221ZM105.272 245.302H101.721V246.302H105.272V245.302ZM107.05 246.116C106.611 245.567 105.997 245.302 105.272 245.302V246.302C105.73 246.302 106.042 246.456 106.269 246.74L107.05 246.116ZM107.66 247.975C107.66 247.266 107.464 246.635 107.05 246.116L106.269 246.74C106.521 247.056 106.66 247.457 106.66 247.975H107.66ZM107.038 249.919C107.474 249.414 107.66 248.745 107.66 247.975H106.66C106.66 248.59 106.512 248.998 106.281 249.266L107.038 249.919ZM133.81 254.012H145.896V253.012H133.81V254.012ZM133.31 234.264V253.512H134.31V234.264H133.31ZM145.897 233.764H133.81V234.764H145.897V233.764ZM146.397 237.837V234.264H145.397V237.837H146.397ZM136.905 238.337H145.897V237.337H136.905V238.337ZM137.405 241.929V237.837H136.405V241.929H137.405ZM145.712 241.429H136.905V242.429H145.712V241.429ZM146.212 245.5V241.929H145.212V245.5H146.212ZM136.905 246H145.712V245H136.905V246ZM137.405 249.939V245.5H136.405V249.939H137.405ZM145.897 249.439H136.905V250.439H145.897V249.439ZM146.397 253.512V249.939H145.397V253.512H146.397ZM145.896 254.012H145.897V253.012H145.896V254.012ZM186.682 253.012H182.824V254.012H186.682V253.012ZM186.683 253.012H186.682V254.012H186.683V253.012ZM178.618 234.448L186.218 253.696L187.148 253.329L179.548 234.081L178.618 234.448ZM174.848 234.764H179.083V233.764H174.848V234.764ZM167.714 253.696L175.313 234.448L174.383 234.081L166.784 253.329L167.714 253.696ZM171.106 253.012H167.249V254.012H171.106V253.012ZM172.061 249.639L170.639 253.333L171.572 253.692L172.994 249.998L172.061 249.639ZM181.404 249.318H172.528V250.318H181.404V249.318ZM183.29 253.333L181.87 249.639L180.937 249.998L182.357 253.692L183.29 253.333ZM176.497 238.448L179.374 246.032L180.309 245.677L177.432 238.093L176.497 238.448ZM174.556 246.032L177.432 238.448L176.497 238.093L173.621 245.677L174.556 246.032ZM179.842 245.354H174.089V246.354H179.842V245.354Z" fill="#25C1FF"/>
<path d="M128.493 271H126.112V263.136H130.309C132.148 263.136 133.138 264.363 133.138 265.836C133.138 267.298 132.148 268.524 130.309 268.524H128.493V271ZM130.002 266.449C130.403 266.449 130.722 266.249 130.722 265.836C130.722 265.412 130.403 265.211 130.002 265.211H128.493V266.449H130.002ZM144.956 271H142.245L141.16 268.524H140.299V271H137.918V263.136H142.115C143.954 263.136 144.944 264.363 144.944 265.836C144.944 267.192 144.155 267.911 143.53 268.218L144.956 271ZM141.749 266.449C142.15 266.449 142.528 266.261 142.528 265.824C142.528 265.4 142.15 265.211 141.749 265.211H140.299V266.449H141.749ZM152.289 271H149.908V263.136H152.289V271ZM162.604 271H159.609L156.709 263.136H159.409L161.106 268.43L162.804 263.136H165.504L162.604 271ZM177.402 271H174.702L174.419 270.08H171.59L171.307 271H168.607L171.507 263.136H174.502L177.402 271ZM173.782 268.005L173.004 265.471L172.226 268.005H173.782ZM185.371 271.141C182.907 271.141 181.044 269.491 181.044 267.074C181.044 264.645 182.907 263.007 185.371 263.007C187.434 263.007 188.472 264.209 188.943 265.294L186.892 266.249C186.692 265.636 186.079 265.105 185.371 265.105C184.228 265.105 183.461 265.978 183.461 267.074C183.461 268.171 184.228 269.043 185.371 269.043C186.079 269.043 186.692 268.512 186.892 267.899L188.943 268.843C188.484 269.892 187.434 271.141 185.371 271.141ZM197.812 271H195.431V267.876L192.484 263.136H195.16L196.622 265.789L198.06 263.136H200.736L197.812 267.876V271Z" fill="#25C1FF"/>
</g>
<defs>
<linearGradient id="paint0_linear_1166_4660" x1="52.4936" y1="23.1486" x2="52.4936" y2="215.709" gradientUnits="userSpaceOnUse">
<stop stop-color="#0073FF"/>
<stop offset="0.32564" stop-color="#0073FF" stop-opacity="0.15"/>
<stop offset="1" stop-color="#0073FF" stop-opacity="0.15"/>
</linearGradient>
<linearGradient id="paint1_linear_1166_4660" x1="23.7979" y1="360.336" x2="305.06" y2="360.336" gradientUnits="userSpaceOnUse">
<stop stop-color="#0073FF"/>
<stop offset="0.11179" stop-color="#0073FF" stop-opacity="0.01"/>
<stop offset="0.87993" stop-color="#0073FF" stop-opacity="0.01"/>
<stop offset="1" stop-color="#0073FF"/>
</linearGradient>
<linearGradient id="paint2_linear_1166_4660" x1="310.906" y1="329.054" x2="310.906" y2="77.0723" gradientUnits="userSpaceOnUse">
<stop stop-color="#00E8C1" stop-opacity="0.5"/>
<stop offset="0.1989" stop-color="#00E8C1" stop-opacity="0.15"/>
<stop offset="0.80309" stop-color="#00E8C1" stop-opacity="0.15"/>
<stop offset="1" stop-color="#00E8C1" stop-opacity="0.3"/>
</linearGradient>
<linearGradient id="paint3_linear_1166_4660" x1="301.091" y1="-27.9497" x2="32.6826" y2="-27.9497" gradientUnits="userSpaceOnUse">
<stop stop-color="#00E8C1" stop-opacity="0.7"/>
<stop offset="0.1989" stop-color="#00E8C1" stop-opacity="0.01"/>
<stop offset="0.80309" stop-color="#00E8C1" stop-opacity="0.01"/>
<stop offset="1" stop-color="#00E8C1" stop-opacity="0.7"/>
</linearGradient>
<linearGradient id="paint4_linear_1166_4660" x1="39.1612" y1="52.8043" x2="68.8541" y2="322.965" gradientUnits="userSpaceOnUse">
<stop stop-color="#00C2FF"/>
<stop offset="0.13495" stop-color="#00C2FF" stop-opacity="0.15"/>
<stop offset="0.8583" stop-color="#00C2FF" stop-opacity="0.15"/>
<stop offset="1" stop-color="#00C2FF" stop-opacity="0.4"/>
</linearGradient>
<linearGradient id="paint5_linear_1166_4660" x1="313.754" y1="146.374" x2="273.874" y2="140.888" gradientUnits="userSpaceOnUse">
<stop stop-color="#00C2FF" stop-opacity="0.7"/>
<stop offset="1" stop-color="#00C2FF" stop-opacity="0.01"/>
</linearGradient>
<linearGradient id="paint6_linear_1166_4660" x1="315.519" y1="284.91" x2="286.509" y2="39.0427" gradientUnits="userSpaceOnUse">
<stop stop-color="#FF39FF" stop-opacity="0.7"/>
<stop offset="0.12774" stop-color="#FF00FF" stop-opacity="0.15"/>
<stop offset="0.76954" stop-color="#FF00FF" stop-opacity="0.15"/>
<stop offset="1" stop-color="#FF31FF"/>
</linearGradient>
<linearGradient id="paint7_linear_1166_4660" x1="80.3387" y1="146.125" x2="48.2042" y2="141.605" gradientUnits="userSpaceOnUse">
<stop stop-color="#FF00FF" stop-opacity="0.01"/>
<stop offset="1" stop-color="#FF2CFF" stop-opacity="0.7"/>
</linearGradient>
<linearGradient id="paint8_linear_1166_4660" x1="50.8038" y1="151.731" x2="112.391" y2="151.731" gradientUnits="userSpaceOnUse">
<stop stop-color="white" stop-opacity="0.01"/>
<stop offset="1" stop-color="white"/>
</linearGradient>
<linearGradient id="paint9_linear_1166_4660" x1="275.244" y1="104.74" x2="203.589" y2="104.74" gradientUnits="userSpaceOnUse">
<stop stop-color="#FD76FD" stop-opacity="0.01"/>
<stop offset="1" stop-color="#FF51FF"/>
</linearGradient>
<linearGradient id="paint10_linear_1166_4660" x1="276.428" y1="142.544" x2="218.393" y2="142.544" gradientUnits="userSpaceOnUse">
<stop stop-color="#9D6EFF" stop-opacity="0.01"/>
<stop offset="1" stop-color="#A18CFF"/>
</linearGradient>
<linearGradient id="paint11_linear_1166_4660" x1="275.837" y1="124.073" x2="209.511" y2="124.073" gradientUnits="userSpaceOnUse">
<stop stop-color="#AE60D6" stop-opacity="0.01"/>
<stop offset="1" stop-color="#AB38E6"/>
</linearGradient>
</defs>
</svg>
