<svg xmlns="http://www.w3.org/2000/svg" width="242" height="211" viewBox="0 0 242 211">
    <defs>
        <linearGradient id="34hsiy65qa" x1=".027%" x2="54.787%" y1="50.232%" y2="50.232%">
            <stop offset="0%" stop-color="#FFF" stop-opacity="0"/>
            <stop offset="100%" stop-color="#FFF"/>
        </linearGradient>
        <linearGradient id="xje8ahwk1b" x1="99.383%" x2="35.802%" y1="49.833%" y2="49.833%">
            <stop offset="0%" stop-color="#FD76FD" stop-opacity="0"/>
            <stop offset="100%" stop-color="#FF51FF"/>
        </linearGradient>
        <linearGradient id="0wh62k0atc" x1="100.434%" x2="48.938%" y1="50.114%" y2="50.114%">
            <stop offset="0%" stop-color="#9D6EFF" stop-opacity="0"/>
            <stop offset="100%" stop-color="#A18CFF"/>
        </linearGradient>
        <linearGradient id="47sg2gbf1d" x1="99.909%" x2="41.056%" y1="50.24%" y2="50.24%">
            <stop offset="0%" stop-color="#AE60D6" stop-opacity="0"/>
            <stop offset="100%" stop-color="#AB38E6"/>
        </linearGradient>
    </defs>
    <g fill="none" fill-rule="evenodd">
        <g fill-rule="nonzero">
            <g>
                <g>
                    <path fill="#0B76FF" d="M98.321 140.282L148.481 140.282 98.334 52.929 98.334 52.929 98.334 0 196.628 168.391 98.314 168.391z" transform="translate(-391 -140) translate(391 140) translate(22.563 .369)"/>
                    <path fill="#24C1FF" d="M98.314 140.282L48.148 140.282 98.295 52.929 98.295 52.929 98.295 0 0 168.391 98.314 168.391z" transform="translate(-391 -140) translate(391 140) translate(22.563 .369)"/>
                </g>
                <path fill="#25C1FF" stroke="#25C1FF" d="M59.741 210.304h-8.623v-20.716h8.393c1.518 0 2.708.502 3.57 1.507.861 1.004 1.292 2.262 1.292 3.773 0 1.243-.286 2.293-.857 3.153-.572.859-1.275 1.392-2.111 1.6.921.165 1.702.74 2.341 1.723.64.984.96 2.107.96 3.37 0 1.656-.44 3.002-1.318 4.038-.879 1.035-2.094 1.552-3.647 1.552zm-1.296-12.571c.54 0 .964-.199 1.27-.596.308-.398.461-.911.461-1.541 0-.646-.153-1.168-.46-1.565-.307-.398-.73-.597-1.271-.597H55v4.299h3.445zm.358 8.975c.634 0 1.13-.208 1.486-.623.356-.415.535-.995.535-1.74 0-.661-.179-1.216-.535-1.665-.357-.449-.852-.673-1.486-.673H55v4.7h3.803zm43.5 3.596H89.36v-20.716h12.942v3.846h-9.628v4.404h9.43v3.844h-9.43v4.776h9.628v3.846zm43.673 0h-4.13l-1.522-3.975h-9.504l-1.522 3.975h-4.13l8.136-20.716h4.535l8.137 20.716zm-7.324-8.242l-3.08-8.162-3.08 8.162h6.16zm51.821 8.242h-3.633V194.93l-6.368 15.374h-1.552l-6.336-15.374v15.374h-3.634v-20.716h5.124l5.622 13.635 5.653-13.635h5.124v20.716z" transform="translate(-391 -140) translate(391 140)"/>
                <path fill="#39FFF2" d="M120.877 75.363L120.877 131.832 90.155 131.89z" transform="translate(-391 -140) translate(391 140)"/>
                <path fill="#00E2C2" d="M120.877 75.363L120.877 131.832 151.599 131.89z" transform="translate(-391 -140) translate(391 140)"/>
                <path fill="url(#34hsiy65qa)" d="M0.446 53.046L120.877 108.706 120.877 114.529 0.446 88.168z" transform="translate(-391 -140) translate(391 140)"/>
                <path fill="url(#xje8ahwk1b)" d="M241.554 36.882L120.877 108.706 120.877 110.647 241.554 60.066z" transform="translate(-391 -140) translate(391 140)"/>
                <path fill="url(#0wh62k0atc)" d="M241.554 106.441L120.877 114.529 120.877 112.588 241.554 83.257z" transform="translate(-391 -140) translate(391 140)"/>
                <path fill="url(#47sg2gbf1d)" d="M241.554 60.066L120.877 110.647 120.877 112.588 241.554 83.257z" transform="translate(-391 -140) translate(391 140)"/>
            </g>
        </g>
    </g>
</svg>
