<?xml version="1.0" encoding="UTF-8"?>
<svg width="106px" height="106px" viewBox="0 0 106 106" version="1.1" xmlns="http://www.w3.org/2000/svg" xmlns:xlink="http://www.w3.org/1999/xlink">
    <title>upload-success</title>
    <defs>
        <linearGradient x1="50%" y1="0%" x2="50%" y2="100%" id="linearGradient-1">
            <stop stop-color="#093A60" offset="0%"></stop>
            <stop stop-color="#103051" offset="100%"></stop>
        </linearGradient>
    </defs>
    <g id="Page-2" stroke="none" stroke-width="1" fill="none" fill-rule="evenodd">
        <g id="upload-success" transform="translate(4.000000, 4.000000)">
            <circle id="Oval-3" stroke="#00F6D2" stroke-width="4" fill="url(#linearGradient-1)" cx="49" cy="49" r="51"></circle>
            <g id="Group-20" transform="translate(28.000000, 34.000000)" fill="#FFFFFF">
                <path d="M1.74971288,16.5613791 L19.0666136,16.5613791 C20.7402892,16.5613791 22.0970713,17.9181612 22.0970713,19.5918367 C22.0970713,21.2655123 20.7402892,22.6222944 19.0666136,22.6222944 L1.74971288,22.6222944 C0.0760373474,22.6222944 -1.28074475,21.2655123 -1.28074475,19.5918367 C-1.28074475,17.9181612 0.0760373474,16.5613791 1.74971288,16.5613791 Z" id="Rectangle" transform="translate(10.408163, 19.591837) rotate(45.000000) translate(-10.408163, -19.591837) "></path>
                <path d="M12.4204877,11.9695424 L42.725064,11.9695424 C44.3987396,11.9695424 45.7555217,13.3263245 45.7555217,15 C45.7555217,16.6736755 44.3987396,18.0304576 42.725064,18.0304576 L12.4204877,18.0304576 C10.7468122,18.0304576 9.39003006,16.6736755 9.39003006,15 C9.39003006,13.3263245 10.7468122,11.9695424 12.4204877,11.9695424 Z" id="Rectangle-Copy-19" transform="translate(27.572776, 15.000000) scale(-1, 1) rotate(45.000000) translate(-27.572776, -15.000000) "></path>
            </g>
        </g>
    </g>
</svg>