<?xml version="1.0" encoding="UTF-8"?>
<svg width="106px" height="106px" viewBox="0 0 106 106" version="1.1" xmlns="http://www.w3.org/2000/svg" xmlns:xlink="http://www.w3.org/1999/xlink">
    <title>upload-error</title>
    <defs>
        <linearGradient x1="50%" y1="0%" x2="50%" y2="100%" id="linearGradient-1">
            <stop stop-color="#093A60" offset="0%"></stop>
            <stop stop-color="#103051" offset="100%"></stop>
        </linearGradient>
    </defs>
    <g id="Page-2" stroke="none" stroke-width="1" fill="none" fill-rule="evenodd">
        <g id="upload-error" transform="translate(4.000000, 4.000000)">
            <circle id="Oval-3" stroke="#FF746B" stroke-width="4" fill="url(#linearGradient-1)" cx="49" cy="49" r="51"></circle>
            <g id="icon-cancel" transform="translate(30.000000, 30.000000)" fill="#FFFFFF" fill-rule="nonzero">
                <path d="M23.2071467,18.7521467 L36.5771467,5.38014674 C37.7736639,4.14366821 37.7575066,2.17611067 36.5408447,0.95944876 C35.3241828,-0.257213152 33.3566253,-0.2733704 32.1201467,0.923146739 L18.7501467,14.2951467 L5.38014674,0.923146739 C4.58398038,0.126980352 3.4235426,-0.183958024 2.33595911,0.107459089 C1.24837561,0.398876203 0.398876203,1.24837561 0.107459089,2.33595911 C-0.183958024,3.4235426 0.126980352,4.58398038 0.923146739,5.38014674 L14.2931467,18.7511467 L0.923146739,32.1231467 C-0.2733704,33.3596253 -0.257213152,35.3271828 0.95944876,36.5438447 C2.17611067,37.7605066 4.14366821,37.7766639 5.38014674,36.5801467 L18.7501467,23.2091467 L32.1201467,36.5801467 C33.3509133,37.8109133 35.3463802,37.8109133 36.5771467,36.5801467 C37.8079133,35.3493802 37.8079133,33.3539133 36.5771467,32.1231467 L23.2071467,18.7521467 Z" id="Path"></path>
            </g>
        </g>
    </g>
</svg>